<svg width="101" height="101" viewBox="0 0 101 101" fill="none" xmlns="http://www.w3.org/2000/svg">
<g clip-path="url(#clip0_118_782)">
<path fill-rule="evenodd" clip-rule="evenodd" d="M0.219727 0.839844H100.22V100.84H0.219727V0.839844Z" fill="white"/>
<path d="M11.0249 51.9798H7.85494L9.53994 46.4098L11.0249 51.9798ZM6.21494 58.2198L7.29494 54.5198H11.5649L12.5749 58.2198H16.5299L12.5949 44.1798C12.3699 43.3548 11.8749 42.9648 11.0199 42.9648H5.41994V44.2698H5.89494C6.47494 44.2698 6.79494 44.4948 6.79494 44.9548C6.79494 45.2498 6.72494 45.5048 6.49994 46.1948L2.56494 58.2248H6.20994L6.21494 58.2198Z" fill="#173156"/>
<path d="M21.3946 58.2198V44.1298C21.3946 43.3948 20.9746 42.9648 20.2846 42.9648H16.8696V44.2698H17.0946C17.6796 44.2698 17.9246 44.5248 17.9246 45.1198V58.2198H21.3896H21.3946Z" fill="#173156"/>
<path d="M27.5196 58.2198V44.1298C27.5196 43.3948 27.0946 42.9648 26.4096 42.9648H22.9946V44.2698H23.2246C23.8096 44.2698 24.0546 44.5248 24.0546 45.1198V58.2198H27.5196Z" fill="#173156"/>
<path d="M33.6445 44.3544C33.6445 43.3444 32.9245 42.7344 31.6745 42.7344C30.4245 42.7344 29.7045 43.3394 29.7045 44.3544C29.7045 45.3694 30.4495 45.9744 31.6745 45.9744C32.8995 45.9744 33.6445 45.3694 33.6445 44.3544ZM33.6445 58.2194V47.8394C33.6445 47.1044 33.2195 46.6594 32.5295 46.6594H29.1445V48.0444H29.3445C29.9295 48.0444 30.1745 48.3194 30.1745 48.9194V58.2144H33.6395L33.6445 58.2194Z" fill="#173156"/>
<path d="M41.4648 52.7541V54.9591C40.8698 55.5741 40.1448 55.9391 39.5298 55.9391C38.9148 55.9391 38.6648 55.6241 38.6648 54.7791C38.6648 53.9341 38.8448 53.5491 39.4848 53.3041C39.9648 53.0991 40.5798 52.9141 41.4648 52.7591V52.7541ZM36.7498 50.0941C37.9148 49.5241 39.1848 49.2041 40.1848 49.2041C41.1248 49.2041 41.4598 49.5491 41.4598 50.5491V50.7991C40.0398 51.0241 39.5948 51.1191 38.7948 51.2991C38.3298 51.4091 37.9048 51.5491 37.4898 51.7341C36.0898 52.2991 35.4248 53.4191 35.4248 55.1241C35.4248 57.2891 36.3348 58.3341 38.2248 58.3341C38.9098 58.3341 39.5348 58.1991 40.0898 57.9691C40.5748 57.7391 40.8648 57.5541 41.5798 56.9841V57.1441C41.5798 57.8541 41.9448 58.2191 42.6498 58.2191H45.8948V56.9141H45.7348C45.1298 56.9141 44.9048 56.6641 44.9048 55.9841V50.5691C44.9048 47.6641 43.9148 46.6641 41.0648 46.6641C40.1448 46.6641 39.2448 46.7791 38.3698 46.9841C37.4948 47.1891 37.0448 47.3691 35.9898 47.8991L36.7498 50.0941Z" fill="#173156"/>
<path d="M51.2396 58.2204V50.4604C51.8646 49.7954 52.5146 49.4954 53.2596 49.4954C54.0546 49.4954 54.2446 49.7954 54.2446 50.9454V58.2204H57.7146V50.3604C57.7146 48.5354 57.5746 47.9604 56.9996 47.3354C56.5196 46.8054 55.7846 46.5254 54.8346 46.5254C53.4346 46.5254 52.4446 46.9804 51.1096 48.2804V47.8054C51.1096 47.0504 50.7546 46.6604 50.0396 46.6604H46.7446V48.0454H46.9446C47.5296 48.0454 47.7746 48.3204 47.7746 48.9204V58.2154H51.2396V58.2204Z" fill="#173156"/>
<path d="M68.3947 55.8845H63.4947L68.1697 49.2295V46.8945H60.7647C59.9247 46.8945 59.5397 47.2795 59.5397 48.1245V50.1895H60.9247V49.9845C60.9247 49.4595 61.1947 49.2095 61.7547 49.2095H64.2747L59.5347 55.9345V58.2245H68.3847V55.8895L68.3947 55.8845Z" fill="#173156"/>
<path d="M87.1697 57.5047V44.7797C87.1697 43.7647 86.8397 43.4247 85.8597 43.4247H82.9947V44.8097H83.4647C83.5697 44.8097 83.6747 44.8797 83.7647 44.9697C83.8897 45.1297 83.9347 45.2897 83.9347 45.6297V57.5047H87.1697ZM88.7897 57.5047H92.0247V47.8747C92.0247 46.9047 91.6697 46.5197 90.6947 46.5197H88.7897V57.5097V57.5047ZM82.5497 57.5047V46.5147H80.6347C79.6897 46.5147 79.3147 46.8997 79.3147 47.8697V57.4997H82.5497V57.5047ZM95.2597 51.0447C95.2597 56.8047 91.1497 60.9947 85.5547 60.9947C79.9597 60.9947 75.8497 56.8047 75.8497 51.0447C75.8497 45.2847 79.9347 41.1197 85.5547 41.1197C91.1747 41.1197 95.2597 45.3097 95.2597 51.0447ZM97.5697 51.0447C97.5697 44.0347 92.4397 38.8047 85.5647 38.8047C78.6897 38.8047 73.5347 44.0347 73.5347 51.0447C73.5347 58.0547 78.6897 63.3047 85.5647 63.3047C92.4397 63.3047 97.5697 58.0747 97.5697 51.0447Z" fill="#173156"/>
</g>
<defs>
<clipPath id="clip0_118_782">
<rect width="100" height="100" fill="white" transform="translate(0.219727 0.839844)"/>
</clipPath>
</defs>
</svg>
