<svg width="150" height="150" viewBox="0 0 150 150" fill="none" xmlns="http://www.w3.org/2000/svg">
<g clip-path="url(#clip0_119_1040)">
<path d="M25.1228 24H124.992V126.86H25.1228V24Z" fill="#00008F"/>
<path d="M87.1432 74.7901L124.992 24H119.56L81.3457 74.7901H87.1451H87.1432Z" fill="#FF1721"/>
<path d="M101.551 97.438C103.322 102.504 106.863 115.568 108.265 116.485H98.9254C98.9254 116.485 98.9254 114.469 98.3753 113.067C98.0086 111.602 94.5286 100.37 94.5286 100.37H79.5726L77.3137 103.787C77.3137 103.787 80.1227 112.884 80.3041 113.371L81.892 116.607H72.8564C72.8564 116.607 72.6731 115.142 72.4897 114.592C72.4897 114.042 71.6353 111.479 71.6353 111.479C71.6353 111.479 69.4993 113.859 69.0097 114.897C68.4596 115.995 68.1553 116.545 68.1553 116.545H61.0742C61.0742 116.545 60.8909 115.08 60.7075 114.53C60.7075 113.98 59.8531 111.233 59.8531 111.233C59.8531 111.233 57.9005 113.797 57.4109 114.834C56.8608 115.933 56.5565 116.483 56.5565 116.483H49.415L52.0406 113.736C53.2617 112.271 57.4733 106.472 57.4733 106.472L55.7644 100.549H40.9918C40.9918 100.549 32.5668 111.965 32.202 112.332C31.8372 112.698 29.393 116.299 29.393 116.666H25V113.736L25.1834 113.553C25.3667 113.369 31.5328 105.373 37.3322 97.5589C42.4606 90.6613 47.3432 83.9451 47.7099 83.2135C48.7477 81.5652 50.1522 78.329 50.1522 78.329H57.9042C57.9042 78.329 58.0876 81.4423 58.4543 82.1134C58.6377 82.8468 63.3993 98.5948 63.3993 98.7782L66.0249 95.3605L61.63 81.3819C61.63 81.3819 60.5922 78.6353 60.2255 78.2686H69.1987C69.1987 78.2686 69.1987 79.5502 69.5654 80.8318C69.9321 81.93 71.8848 89.1944 71.8848 89.1944C71.8848 89.1944 78.0509 81.1966 78.4157 80.6484C79.1492 79.7335 79.1492 78.2686 79.1492 78.2686H86.5364C86.5364 78.2686 85.1319 79.3668 82.8126 82.4196C81.9581 83.5179 74.2061 93.8351 74.2061 93.8351C74.2061 93.8351 74.9395 96.2149 75.2438 97.4361C75.4272 97.8028 75.4272 97.9861 75.4272 97.9861L75.9773 97.4361C78.1133 94.6895 87.2699 82.1758 87.7594 81.3195C88.3095 80.4046 88.7972 79.4878 89.3473 78.3895H96.5512C96.5512 78.3895 96.7345 80.5879 96.9179 81.3195C96.795 81.5028 101.557 97.4361 101.557 97.4361L101.551 97.438ZM90.4399 85.6558C89.4021 88.0357 83.0526 95.973 83.0526 95.973H93.0636C93.0636 95.973 91.1109 89.8069 90.8047 88.5253C90.438 87.3041 90.438 85.8392 90.438 85.6558C90.438 85.4724 90.438 85.2891 90.438 85.6558H90.4399ZM52.1029 85.6558C51.0652 88.0357 44.7157 95.973 44.7157 95.973H54.7267C54.7267 95.973 52.774 89.8069 52.4678 88.5253C52.2239 87.3041 52.2239 85.8392 52.1011 85.6558C52.2239 85.4724 52.2239 85.2891 52.1011 85.6558H52.1029ZM67.0589 109.647L69.8679 105.863C69.6845 105.496 68.0967 100.797 68.0967 100.797L65.4711 104.398L67.0589 109.647Z" fill="white"/>
</g>
<defs>
<clipPath id="clip0_119_1040">
<rect width="99.9924" height="102.86" fill="white" transform="translate(25 24)"/>
</clipPath>
</defs>
</svg>
