<svg width="240" height="150" viewBox="0 0 240 150" fill="none" xmlns="http://www.w3.org/2000/svg">
<path fill-rule="evenodd" clip-rule="evenodd" d="M92.0475 54.3786C86.4877 57.5717 84.7811 57.8211 78.7878 61.366C82.2743 57.6328 83.4925 56.0624 85.677 52.9297C80.1128 53.2198 72.0528 53.8704 66.2729 55.1245C71.3029 52.5073 81.2465 49.5672 86.4951 48.8816C85.2776 47.2393 75.4347 41.9887 72.9776 41C80.7678 41.5918 90.3009 44.4286 94.9093 47.2197C96.7722 46.67 98.6321 46.6257 102 46.3371C101.143 47.7904 101.13 48.6337 97.7999 50.7799C98.7225 53.1899 96.5291 66.461 94.7255 69.9921C94.6469 64.4333 94.1408 57.4147 92.0482 54.3794L92.0475 54.3786ZM51.4838 101.977C48.2811 100.82 45.9832 99.4684 43.4705 97.1558C44.2271 95.123 45.0881 93.5076 46.5034 91.4763C43.8958 91.8412 42.0114 92.1197 39.7788 92.5501C37.9507 89.4195 37.1452 86.4228 36.2145 82.2533C35.7106 86.6678 35.5283 89.8296 36.1752 93.3578C34.1308 93.9067 32.6776 94.3996 31 95.139C33.346 96.5669 35.2549 97.6698 37.9084 98.8643C39.3097 101.836 40.7747 103.865 43.1437 106.139C42.5798 104.198 42.4501 102.632 42.6517 100.599C45.6164 101.447 48.1277 101.868 51.4853 101.976L51.4838 101.977ZM59.7705 57.8334C58.762 59.0977 57.6223 61.4511 57.3163 62.5482C65.5067 63.6569 72.1113 67.7776 72.1113 67.7776C64.9035 66.5322 61.1414 66.6849 58.4678 66.9161C55.7987 67.1742 55.2577 67.4897 55.2577 67.4897C53.3252 71.609 52.1744 78.7745 52.1744 78.7781C50.8643 75.6963 48.971 69.5137 48.971 69.5094C45.3534 71.4185 37.0385 79.0951 37.0318 79.0988C41.6068 70.1012 46.2396 65.9819 46.2448 65.9819C44.6472 64.4159 40.4642 63.63 37.4068 63.4947C39 62.8528 43.0807 62.1003 46.2137 61.9709C49.3408 61.8735 51.2333 62.0625 51.2385 62.0625C54.0484 59.8887 58.2863 58.0595 59.7712 57.8342L59.7705 57.8334ZM68.4618 96.4084C67.0035 98.3219 65.7734 99.8479 64.1603 101.613C61.397 102.346 59.1999 102.624 56.5152 102.639C58.1625 103.477 59.7646 103.993 61.4763 104.324C59.7646 105.864 58.2981 106.963 56.6294 108C59.4311 107.337 63.1377 106.164 65.8772 104.593C67.2947 104.632 68.6419 104.543 69.6245 104.373C69.3874 103.535 69.2095 102.935 69.002 101.861C71.5941 99.8923 73.4807 98.1205 75.6081 95.9933C73.3273 97.5564 71.3451 98.7392 68.7249 99.9599C68.6011 98.7792 68.5137 97.5949 68.4626 96.4091L68.4618 96.4084Z" fill="#37A094"/>
<path fill-rule="evenodd" clip-rule="evenodd" d="M65.0397 78.5186C65.1494 79.7228 65.2252 82.7265 65.2252 83.8286C65.2252 84.8383 65.2112 88.2273 65.0228 89.6893L65 89.8085L71.5414 89.8107C74.7381 89.8107 78.1468 88.9873 78.1468 86.6833C78.1468 85.2377 76.8575 84.1669 74.435 83.5782C76.2122 83.1967 77.4234 82.1982 77.4234 81.0469C77.4234 79.1714 74.7462 78.4508 72.2464 78.4083L65.0309 78.4009L65.0397 78.5201V78.5186ZM70.0924 79.6773C72.8233 79.687 73.8367 80.1431 73.8367 81.348C73.8367 81.6729 73.7167 81.956 73.4739 82.1937C72.9499 82.6975 71.9079 82.956 70.6164 82.9069H70.5524L69.7981 84.5112H70.5619C72.0668 84.468 73.3731 84.8562 74.0427 85.5194C74.354 85.8264 74.5085 86.1729 74.5085 86.5499C74.5085 87.8219 73.1383 88.4695 70.4493 88.4695C69.9953 88.4695 69.266 88.4672 68.7972 88.4434C68.7001 86.7765 68.6935 84.5022 68.6935 83.8286C68.6935 83.0358 68.7376 81.2653 68.8017 79.7511C69.2299 79.6975 69.6612 79.6729 70.0932 79.6773H70.0924ZM93.2254 78.3994H90.0566L90.1913 81.2727C90.2465 82.7034 90.3046 84.1602 90.4231 85.5745C90.2075 85.1423 90.0257 84.9031 89.0793 83.7705C89.0484 83.7288 85.7531 79.6028 84.6058 78.4359L84.5727 78.4001H80.8733L80.8792 78.5134C80.9889 79.7153 81.0654 82.7213 81.0654 83.8286C81.0654 84.8346 81.0514 88.2273 80.8594 89.687L80.8454 89.8018H84.129L84.1223 89.6945C83.9295 86.8964 83.9295 84.0916 83.9295 81.383V81.3756C84.0421 81.6982 84.1967 81.9993 84.7133 82.6192C84.7707 82.687 90.4121 89.3644 90.7013 89.7623L90.7292 89.8018H93.3711L93.3579 89.687C93.1592 88.2221 93.1467 84.8346 93.1467 83.8286C93.1467 82.7213 93.2261 79.7079 93.3321 78.5134L93.3476 78.4001H93.2276L93.2254 78.3994ZM97.0491 78.5104C97.1544 79.7206 97.2346 82.7213 97.2346 83.8279C97.2346 84.8338 97.2206 88.2221 97.0234 89.6833L97.0116 89.8003H100.927L100.915 89.6833C100.774 88.6393 100.728 86.6371 100.712 85.0924C100.872 85.0998 101.432 85.1222 101.432 85.1222L101.979 85.1423C107.143 85.1423 109.65 84.0194 109.65 81.7049C109.65 79.0663 106.135 78.4545 103.188 78.3979H97.0388L97.0484 78.5097L97.0491 78.5104ZM101.845 79.7742C103.678 79.7459 104.971 80.0514 105.591 80.6729C105.867 80.9501 106.009 81.2973 106.009 81.7049C106.009 83.3607 103.729 83.7019 101.817 83.7019L101.044 83.6848C101.044 83.6848 100.85 83.6654 100.732 83.649C100.718 83.2712 100.712 82.7757 100.712 82.2072C100.712 81.4784 100.722 80.646 100.76 79.8457C101.121 79.8063 101.483 79.7824 101.846 79.7742H101.845ZM117.13 78.5104C117.243 79.7206 117.319 82.7213 117.319 83.8279C117.319 84.8338 117.305 88.2221 117.114 89.6833L117.098 89.8003H121.014L120.995 89.6833C120.863 88.6393 120.812 86.6371 120.796 85.0924L121.509 85.1222L122.062 85.1423C127.224 85.1423 129.733 84.0194 129.733 81.7049C129.733 79.0663 126.219 78.4545 123.269 78.3979H117.122L117.129 78.5097L117.13 78.5104ZM121.929 79.7742C123.762 79.7459 125.053 80.0514 125.67 80.6729C125.95 80.9501 126.095 81.2973 126.095 81.7049C126.095 83.3607 123.811 83.7019 121.895 83.7019L121.124 83.6848C121.124 83.6848 120.932 83.6654 120.814 83.649C120.801 83.2712 120.794 82.7675 120.794 82.2049C120.794 81.4739 120.807 80.646 120.842 79.8457C121.08 79.8159 121.507 79.7861 121.928 79.7742H121.929ZM134.982 78.4054H134.918L134.889 78.4694C134.16 80.0872 129.474 88.3815 128.744 89.6475L128.654 89.8078H132.013L132.035 89.7384C132.33 88.9642 132.704 88.079 133.146 87.1282L135.926 87.0946L138.212 87.117C138.212 87.117 138.614 87.1267 138.711 87.1267C139.318 88.3547 139.764 89.2839 139.962 89.7429L139.985 89.8085H143.875L137.608 78.4054H134.98V78.4061L134.982 78.4054ZM135.934 81.7638C136.245 82.3018 137.049 83.8271 137.956 85.6259L137.657 85.6356L135.934 85.655C135.934 85.655 134.152 85.6311 133.874 85.6229C134.531 84.3212 135.218 83.0343 135.934 81.7638ZM145.427 78.5119C145.531 79.7139 145.617 82.7206 145.617 83.8271C145.617 84.8331 145.595 88.2213 145.402 89.6826L145.389 89.8018H149.304L149.292 89.687C149.093 88.2168 149.081 84.8346 149.081 83.8286C149.081 83.0358 149.126 81.2653 149.189 79.8457C149.543 79.8137 149.898 79.7928 150.253 79.7817C152.082 79.7496 153.375 80.0589 153.989 80.6788C154.274 80.9523 154.419 81.307 154.419 81.7072C154.419 83.0246 152.887 83.6893 151.47 83.7511C151.191 83.763 150.912 83.7511 150.634 83.7176L150.366 83.6796L150.542 83.8875C151.911 85.5313 154 88.3972 154.875 89.7638L154.91 89.8115H159.105L158.979 89.6379C158.836 89.4553 156.084 86.1915 154.919 84.7958C154.919 84.7958 154.875 84.7444 154.849 84.7086C156.977 84.184 158.027 83.2057 158.027 81.7079C158.027 79.0723 154.507 78.4575 151.561 78.4083L145.415 78.4009L145.427 78.5127V78.5119ZM164.675 78.3949H160.918L160.931 78.5082C161.039 79.7146 161.114 82.7213 161.114 83.8256C161.114 84.8256 161.102 88.2161 160.908 89.6796L160.895 89.8003H164.812L164.792 89.6796C164.602 88.2161 164.587 84.8271 164.587 83.8256C164.587 82.7191 164.667 79.7064 164.773 78.5082L164.783 78.3949H164.675ZM168.336 78.5179C168.444 79.7198 168.524 82.7235 168.524 83.8279C168.524 84.8376 168.511 88.2265 168.319 89.6885L168.302 89.8078L174.84 89.81C178.033 89.81 181.452 88.9866 181.452 86.6826C181.452 85.237 180.154 84.1662 177.731 83.5775C179.507 83.196 180.719 82.1975 180.719 81.0462C180.719 79.1706 178.046 78.4501 175.542 78.4076L168.328 78.4001L168.335 78.5194L168.336 78.5179ZM173.388 79.6766C176.123 79.6863 177.139 80.1423 177.139 81.3472C177.139 81.6721 177.016 81.9553 176.768 82.193C176.253 82.6967 175.209 82.9553 173.916 82.9061H173.849L173.098 84.5104H173.862C175.369 84.4672 176.669 84.8554 177.341 85.5186C177.65 85.8256 177.804 86.1721 177.804 86.5492C177.804 87.8212 176.444 88.4687 173.75 88.4687C173.293 88.4687 172.56 88.4665 172.097 88.4426C172 86.7757 171.997 84.5015 171.997 83.8279C171.997 83.0261 172.035 81.2645 172.109 79.7504C172.533 79.696 172.96 79.6714 173.388 79.6766H173.388ZM191.196 78.3949H188.56L188.534 78.4545C187.759 80.1759 182.8 88.9195 182.388 89.6401L182.299 89.7988H185.659L185.683 89.7273C186.021 88.8435 186.39 87.9724 186.792 87.117C186.911 87.117 189.563 87.0812 189.563 87.0812L191.852 87.1095C191.852 87.1095 192.253 87.117 192.355 87.117C192.962 88.3405 193.408 89.2712 193.602 89.731L193.631 89.7988H197.518L191.253 78.3934H191.195V78.3942L191.196 78.3949ZM189.579 81.7541C189.892 82.2921 190.69 83.8174 191.601 85.6125L191.306 85.6222L189.574 85.6461L187.518 85.6125C188.175 84.31 188.861 83.0238 189.578 81.7541H189.579ZM198.497 81.3539C198.497 83.3562 200.987 84.1699 203.187 84.889C204.894 85.4456 206.652 86.0291 206.652 86.9806C206.652 87.2735 206.566 87.5052 206.375 87.6848C205.976 88.0775 205.134 88.2437 203.811 88.1922C202.52 88.1371 201.037 87.8018 199.405 87.1841L198.714 86.9247L198.716 87.3666V89.4165L199.164 89.4955L199.44 89.541C200.262 89.7049 201.826 90 203.403 90C207.533 90 210 88.6766 210 86.465C210 84.4113 207.454 83.5857 205.208 82.8629C203.551 82.3249 201.836 81.7757 201.836 80.8964C201.836 80.6453 201.836 79.8808 203.958 79.8808C205.548 79.8808 207.103 80.4039 207.939 80.6848L208.753 80.9463L208.741 80.5201V78.4471L207.941 78.3323C207.145 78.2079 205.816 78 204.434 78C200.883 78.0007 198.497 79.3495 198.497 81.3539Z" fill="black"/>
</svg>
