<svg width="150" height="150" viewBox="0 0 150 150" fill="none" xmlns="http://www.w3.org/2000/svg">
<g clip-path="url(#clip0_119_995)">
<path d="M52.6485 99.8452C50.9238 99.8452 49.8878 98.8328 49.8878 97.1316C49.8878 95.6953 50.8002 92.9758 54.2555 92.9758C55.1561 92.9758 55.9861 93.1112 56.8632 93.3937L56.9927 93.4349L57.4165 93.5762L58.0051 90.3269L57.5519 90.1974C56.3452 89.8796 55.3504 89.7383 54.3261 89.7383C49.6405 89.7383 46.3618 92.758 46.3618 97.0727C46.3618 100.658 48.7988 103.071 52.4307 103.071C53.867 103.071 55.1738 102.765 56.663 102.07L56.9162 101.953L57.44 97.9498L56.5335 98.5031C54.9501 99.4509 53.8258 99.8394 52.6426 99.8394L52.6485 99.8452Z" fill="#7C7C7B"/>
<path d="M72.1208 89.8975L70.3784 102.918H73.8337L75.5761 89.8975H72.1208Z" fill="#7C7C7B"/>
<path d="M81.5624 92.7639C82.2805 92.7639 83.3872 93.1818 84.0877 93.7175L84.7646 94.2355L85.2885 90.9509L85.0059 90.7684C83.9405 90.1091 82.6867 89.7383 81.4682 89.7383C78.8841 89.7383 76.9416 91.516 76.9416 93.8705C76.9416 95.9014 78.4308 96.8726 79.6316 97.6496C80.5735 98.2618 81.1445 98.6621 81.1445 99.2389C81.1445 99.9924 80.2791 100.051 80.0084 100.051C79.1843 100.051 77.9246 99.5686 77.0828 98.9211L76.4177 98.4149L75.8467 101.652L76.1233 101.835C77.3418 102.677 78.6663 103.065 80.2909 103.065C83.3165 103.065 84.6704 100.964 84.6704 98.8799C84.6704 96.643 83.0222 95.607 81.8155 94.8536C81.0915 94.3944 80.4675 94.0059 80.4675 93.5644C80.4675 93.0935 80.9325 92.7521 81.5683 92.7521L81.5624 92.7639Z" fill="#7C7C7B"/>
<path d="M98.9272 97.7617H103.065L103.466 94.7361H99.3334C99.404 94.2063 99.5394 93.2115 99.5806 92.9231H104.29L104.696 89.8975H96.5314L94.7891 102.918H104.172L104.578 99.8926H98.6447C98.6918 99.5453 98.8742 98.1973 98.9272 97.7617Z" fill="#7C7C7B"/>
<path d="M30.5568 121.631H28.8556C28.9498 120.919 29.7032 115.203 29.7798 114.661H30.5038C32.5699 114.661 33.8473 115.921 33.8473 117.958C33.8473 118.57 33.6883 121.637 30.5509 121.637L30.5568 121.631ZM30.9747 111.636H26.7247L25 124.656H31.4751C34.8362 124.656 37.3732 121.79 37.3732 117.987C37.3732 114.914 35.6897 111.636 30.9688 111.636H30.9747Z" fill="#7C7C7B"/>
<path d="M48.3574 119.494H52.4956L52.9017 116.474H48.7636C48.8342 115.962 48.9519 115.068 49.0108 114.655H53.7199L54.1202 111.636H45.9558L44.2134 124.656H53.5963L54.0025 121.631H48.069C48.1043 121.39 48.2868 119.971 48.3515 119.5L48.3574 119.494Z" fill="#7C7C7B"/>
<path d="M59.9887 117.228H59.5472C59.6238 116.633 59.8416 115.02 59.9004 114.55H60.0417C60.8246 114.55 61.7605 114.767 61.7605 115.815C61.7605 116.981 60.7952 117.228 59.9887 117.228ZM61.013 111.63H56.8336L55.1089 124.651H58.5642C58.5642 124.651 59.094 120.701 59.1705 120.13H60.6539C62.9025 120.13 65.2983 118.97 65.2983 115.715C65.2983 113.272 63.5794 111.636 61.0247 111.636L61.013 111.63Z" fill="#7C7C7B"/>
<mask id="mask0_119_995" style="mask-type:luminance" maskUnits="userSpaceOnUse" x="25" y="25" width="100" height="100">
<path d="M124.987 25H25V124.81H124.987V25Z" fill="white"/>
</mask>
<g mask="url(#mask0_119_995)">
<path d="M81.2739 116.911H80.6499C80.7265 116.316 80.9207 114.868 80.9502 114.656H81.6918C82.3335 114.656 83.0928 114.833 83.0928 115.681C83.0928 116.275 82.616 116.911 81.2739 116.911ZM85.2355 120.107C85.053 119.731 84.8411 119.354 84.535 119.024C85.8182 118.441 86.6247 117.264 86.6247 115.751C86.6247 113.768 85.259 111.637 82.2628 111.637H77.901L76.1763 124.657H79.6316C79.6316 124.657 80.1908 120.39 80.2673 119.801H80.338C81.1915 119.801 81.3504 119.801 82.304 121.932L83.5284 124.657H87.331L85.2355 120.113V120.107Z" fill="#7C7C7B"/>
<path d="M96.2252 114.709C97.2259 114.709 98.0617 114.833 99.1213 115.133L99.6864 115.292L100.098 112.072L99.6923 111.948C98.721 111.642 97.5202 111.483 96.2252 111.483C90.2269 111.483 87.4897 115.321 87.4897 118.889C87.4897 121.755 89.3145 124.816 94.4475 124.816C95.766 124.816 97.4554 124.645 98.1442 124.445L98.4561 124.351L99.398 117.329H93.8471L93.4586 120.242H95.5541C95.5129 120.531 95.4246 121.178 95.3893 121.437C94.9478 121.537 94.5888 121.584 94.1355 121.584C92.1459 121.584 91.0098 120.572 91.0098 118.8C91.0098 116.399 93.1525 114.715 96.2134 114.715L96.2252 114.709Z" fill="#7C7C7B"/>
</g>
<path d="M110 111.636C110 111.636 109.317 116.851 109.105 118.488C108.234 117.004 105.073 111.636 105.073 111.636H101.912L100.164 124.656H103.619C103.619 124.656 104.343 119.188 104.561 117.522C105.438 119.041 108.675 124.656 108.675 124.656H111.724L113.449 111.636H110Z" fill="#7C7C7B"/>
<path d="M117.64 119.494H121.778L122.179 116.474H118.04C118.082 116.18 118.229 115.103 118.288 114.655H122.997L123.397 111.636H115.233L113.49 124.656H122.873L123.279 121.631H117.352C117.428 121.083 117.575 119.936 117.634 119.5L117.64 119.494Z" fill="#7C7C7B"/>
<path d="M91.0516 92.7648C91.7698 92.7648 92.8764 93.1828 93.5769 93.7184L94.2538 94.2365L94.7777 90.9518L94.4893 90.7752C93.4238 90.116 92.17 89.7451 90.9515 89.7451C88.3733 89.7451 86.4249 91.5228 86.4249 93.8774C86.4249 95.9141 87.92 96.8795 89.1209 97.6623C90.0568 98.2745 90.6337 98.6748 90.6337 99.2458C90.6337 99.9992 89.7684 100.058 89.4976 100.058C88.6735 100.058 87.4138 99.5754 86.5721 98.9279L86.419 98.8102L85.9128 98.4217L85.3418 101.659L85.6067 101.842C86.8311 102.683 88.1555 103.078 89.786 103.078C92.8117 103.078 94.1655 100.976 94.1655 98.8926C94.1655 96.6558 92.5173 95.6198 91.3106 94.8663C90.5866 94.413 89.9567 94.0187 89.9567 93.5831C89.9567 93.1063 90.41 92.7707 91.0575 92.7707L91.0516 92.7648Z" fill="#7C7C7B"/>
<path d="M40.2045 111.83L38.103 115.627H40.6165L44.8547 111.83H40.2045Z" fill="#7C7C7B"/>
<path d="M68.8713 119.66L70.4135 115.575L70.8785 119.66H68.8713ZM72.7033 111.472H69.3657L63.3027 124.645H67.1112C67.1112 124.645 68.0531 122.415 68.2179 122.026H70.9845C71.0551 122.538 71.3377 124.645 71.3377 124.645H74.8754L72.6974 111.472H72.7033Z" fill="#7C7C7B"/>
<path d="M62.9438 97.8851L64.486 93.7999L64.951 97.8851H62.9438ZM66.7287 89.7383H63.3911L57.3281 102.912H61.1366C61.1366 102.912 62.0785 100.681 62.2433 100.287H65.0099C65.0805 100.799 65.3631 102.912 65.3631 102.912H68.9008L66.7228 89.7383H66.7287Z" fill="#7C7C7B"/>
<path d="M124.986 106.145L123.532 108.47H27.1602L28.7436 106.145H124.986Z" fill="#E40520"/>
<path d="M104.678 82.6456H46.8384V25H104.678V82.6456Z" fill="#E40520"/>
<path d="M79.9614 69.5068H94.3537L96.514 65.9043H96.255H82.3807L79.9614 69.5068Z" fill="white"/>
<path d="M91.3811 56.4391C91.1574 56.5863 87.814 58.8114 87.814 58.8114L89.7035 61.7605L96.2198 57.4516L91.3164 49.917L91.1928 49.9935L90.9279 50.1642L88.3673 51.8065C88.3673 51.8065 91.234 56.2096 91.3811 56.4391Z" fill="white"/>
<path d="M86.5956 41.1228C86.5956 41.1228 66.1992 73.4156 66.0108 73.7099C65.1867 72.9565 62.997 70.6255 62.2847 66.6933C62.2258 66.0399 62.1964 65.3748 62.1964 64.7155C62.1964 64.0562 62.2317 63.4028 62.2906 62.773H68.5184L70.8023 59.1528H62.997C63.3266 58.0639 63.7563 57.022 64.2802 56.0213H72.7213L75.0111 52.4011H66.6583C67.5001 51.3533 68.4478 50.3468 69.4897 49.3579H76.9772L79.2847 45.7436H73.8221C74.7345 45.0549 75.6881 44.3721 76.6829 43.6834C82.7694 39.2509 95.2486 33.753 95.7784 33.5175C95.7843 33.5175 95.9138 33.4587 95.9138 33.4587L99.481 27.79L99.0336 27.9961L98.0506 28.4552C97.5443 28.6907 85.6185 34.271 74.9287 40.4811C72.1209 42.1117 69.7251 43.8894 67.7002 45.7377H59.9831L57.6639 49.352H64.2449C63.4149 50.3644 62.685 51.3828 62.0434 52.3952H55.6978L53.4139 56.0154H60.1126C59.6417 57.0808 59.2709 58.1286 58.9824 59.147H51.5067L49.1992 62.7671H58.2996C58.2466 63.3204 58.2172 63.862 58.2172 64.3741C58.2172 65.4925 58.3349 66.5933 58.5704 67.6469C60.6247 76.8238 66.5759 78.9724 66.829 79.0548L67.1763 79.1725L88.8678 44.7076L86.6015 41.1051L86.5956 41.1228Z" fill="white"/>
<path d="M73.1805 76.1172L70.7671 79.7197H96.0728L98.2331 76.1172H97.9741H73.1805Z" fill="white"/>
<path d="M86.2361 52.5127C85.0294 52.5127 84.0522 53.4898 84.0522 54.6966C84.0522 55.9033 85.0294 56.8745 86.2361 56.8745C87.4428 56.8745 88.42 55.8974 88.42 54.6966C88.42 53.4957 87.4428 52.5127 86.2361 52.5127Z" fill="white"/>
</g>
<defs>
<clipPath id="clip0_119_995">
<rect width="99.9866" height="99.81" fill="white" transform="translate(25 25)"/>
</clipPath>
</defs>
</svg>
