<?xml version="1.0" encoding="utf-8"?>
<!-- Generator: Adobe Illustrator 24.3.0, SVG Export Plug-In . SVG Version: 6.00 Build 0)  -->
<svg version="1.1" id="Calque_1" xmlns="http://www.w3.org/2000/svg" xmlns:xlink="http://www.w3.org/1999/xlink" x="0px" y="0px"
	 viewBox="0 0 256 256" style="enable-background:new 0 0 256 256;" xml:space="preserve">
<style type="text/css">
	.st0{fill:#FFFFFF;}
	.st1{fill:#4F808D;}
	.st2{fill:#1C3050;}
</style>
<path class="st0" d="M180.9,256H75.1C33.6,256,0,222.4,0,180.9V75.1C0,33.6,33.6,0,75.1,0h105.8C222.4,0,256,33.6,256,75.1v105.8
	C256,222.4,222.4,256,180.9,256z"/>
<g>
	<path class="st1" d="M44.2,157.7c1.5-1.4,3-2.8,4.6-4.1c3.4-3.1,6.9-6.2,10.4-9.2c7.8-6.7,15.7-13.2,23.5-19.9
		c14.4-12.2,28.7-24.4,43-36.7c1.7-1.5,2.7-1.6,4.5-0.1c8.9,7.8,17.9,15.5,26.9,23.2c6.8,5.9,13.8,11.6,20.6,17.5
		c10.6,9.1,21.1,18.2,31.7,27.2c0.5,0.5,1.2,0.8,2.3,1.6c-2.5,0.2-4.5,0.5-6.5,0.6c-1.9,0-2.6,1-2.7,2.7c-0.1,2.1-0.2,4.2-0.2,6.3
		c-0.2,10.2-0.4,20.3-0.5,30.5c-0.1,4.9,0,9.8,0,14.7c0,4-0.8,4.8-4.8,4.8c-9.3,0.1-18.6,0.1-28,0c-7.9-0.1-15.7-0.5-23.6-0.5
		c-11.6,0-23.3,0.4-34.9,0.4c-16.9,0.1-33.8,0.1-50.6,0.1c-1.5,0-3-0.4-4.4,0c-3.1,1-3-0.7-3-2.9c0-17.2,0-34.4,0-51.7
		c0-4.6,0-4.6-4.8-4.6C46.4,157.7,45.1,157.7,44.2,157.7z M146.5,151.5c0-6.5-2.3-11.8-7.7-15.4c-2.7-1.8-6-3.3-9.2-3.9
		c-2.3-0.5-4.9,0.6-7.4,1.2c-5.4,1.3-12.2,8.4-13,12.9c-1.2,7.1,0.6,13,5.7,18c0.8,0.8,1.6,2.1,1.6,3.2c0.1,5.8-0.2,11.5-0.1,17.3
		c0.1,3.1,0.4,6.2,1.3,9.1c1.2,4.4,6.3,7.4,10.8,7.1c5-0.4,9.3-3.8,9.7-8.7c0.5-6.6,0.3-13.2,0.6-19.7c0.2-3.8,0.6-7.6,3.9-10.5
		C145.8,159.4,146.5,155.5,146.5,151.5z"/>
	<path class="st2" d="M132.8,20.9c6.1,5.1,11.8,9.9,17.4,14.7C173,55,195.8,74.4,218.6,93.7c2.2,1.9,3.3,3.8,3.2,6.9
		c-0.2,16.9-0.1,33.8-0.1,51.4c-1.4-1-2.6-1.7-3.7-2.5c-17.7-15-35.3-30.1-53-45.1c-9.8-8.4-19.6-16.8-29.5-25.1
		c-1.9-1.6-2.8-3.1-2.8-5.8C132.9,56.2,132.8,38.9,132.8,20.9z"/>
	<path class="st2" d="M122.8,21.2c0,2.9,0,4.9,0,6.8c0,15.2,0.1,30.4,0,45.6c0,1.6-0.9,3.7-2.1,4.8c-18.5,15.9-37.2,31.7-55.8,47.6
		c-8.5,7.2-16.9,14.5-25.3,21.8c-0.6,0.5-1.3,1.1-2,1.5c-0.8,0.4-1.9,1-2.4,0.8c-0.6-0.4-0.9-1.6-0.9-2.4c-0.1-4.3,0-8.6,0-12.9
		c0-11.8-0.1-23.5,0.1-35.3c0-1.6,0.9-3.8,2.1-4.8c17.9-15.4,35.9-30.6,53.9-45.9c9.9-8.4,19.8-16.9,29.6-25.4
		C120.6,22.9,121.2,22.4,122.8,21.2z"/>
</g>
</svg>
