<svg width="150" height="150" viewBox="0 0 150 150" fill="none" xmlns="http://www.w3.org/2000/svg">
<g clip-path="url(#clip0_119_987)">
<path fill-rule="evenodd" clip-rule="evenodd" d="M120.588 110.115V39.8857H29.4116V110.115H120.588H120.588Z" fill="#33348E"/>
<path fill-rule="evenodd" clip-rule="evenodd" d="M64.2396 52.7934C64.2396 53.1562 64.1316 53.519 63.836 53.519C62.9212 53.519 62.6336 48.837 57.872 48.837C55.7464 48.837 53.8368 49.7442 52.4652 52.0306C51.2008 54.0994 50.5284 57.1842 50.5284 59.7978C50.5284 62.5558 51.0928 65.0962 52.4652 67.2014C53.9984 69.597 55.9624 70.4318 58.2752 70.4318C59.1904 70.4318 60.5892 70.2502 61.3424 69.4154C61.9072 68.799 61.8536 67.2382 61.8536 66.367V63.3538C61.8536 61.3218 61.5848 60.995 60.0244 60.995C59.7556 60.995 59.3784 61.0314 59.3784 60.5594C59.3784 60.0874 59.7556 60.0878 59.998 60.0878C60.966 60.0878 62.7336 60.233 63.702 60.233C64.6168 60.233 65.5312 60.0878 66.4728 60.0878C66.688 60.0878 66.93 60.161 66.93 60.5234C66.93 60.9586 66.6612 60.995 66.4188 60.995L65.9076 61.0678C65.666 61.1042 65.2624 61.1042 65.0744 61.3582C64.7248 61.757 64.778 62.8098 64.778 63.3546V67.5282C64.778 68.4718 64.9128 68.871 64.294 69.415C62.6268 70.8666 59.7292 71.4114 57.7652 71.4114C55.344 71.4114 52.2856 70.6494 50.4024 68.5802C48.412 66.3662 47.2812 63.5354 47.2812 60.0514C47.2812 52.793 53.138 47.7842 58.3028 47.7842C59.6748 47.7842 62.1412 48.1106 63.4332 48.7998C64.348 49.2718 64.1056 50.0702 64.186 51.2678L64.2396 52.793V52.7934ZM81.2128 65.9674L86.7544 48.837C86.9164 48.3654 87.1848 48.3654 87.4808 48.3654H91.2664C91.5612 48.3654 92.0456 48.1838 92.0456 48.7642C92.0456 49.2722 91.6696 49.3454 91.4004 49.3454C91.0508 49.3454 90.4593 49.2366 90.2173 49.6358C89.8953 50.1438 90.0025 51.5594 90.0025 52.2126V67.2022C90.0025 67.7834 89.9748 69.2342 90.298 69.7426C90.5668 70.1778 90.97 70.2142 91.3464 70.2142C91.616 70.2142 92.18 70.1414 92.18 70.6862C92.18 71.0858 91.8844 71.1218 91.6696 71.1218C90.8084 71.1218 89.9484 70.9762 89.0864 70.9762C88.0104 70.9762 86.1356 71.1218 85.086 71.1218C84.8712 71.1218 84.5756 71.0854 84.5756 70.6862C84.5756 70.1414 85.14 70.2142 85.4092 70.2142C85.8124 70.2142 86.3768 70.0326 86.6728 69.7058C87.1308 69.1978 87.0768 67.8554 87.0768 67.2014V50.7606H86.8884C86.8884 50.7606 82.0165 66.1514 80.7173 69.8474C80.5397 70.3526 79.7424 70.2862 79.7128 70.2862C79.444 70.2862 79.3632 69.851 79.3096 69.5966L74.0108 51.1958H73.8225L73.0421 66.149C72.9341 68.3626 72.9077 70.2138 74.8173 70.2138C75.0865 70.2138 75.6521 70.1774 75.6521 70.6858C75.6521 71.1214 75.302 71.1214 75.0596 71.1214C74.2524 71.1214 73.4456 70.9758 72.6384 70.9758C71.8312 70.9758 71.0244 71.1214 70.244 71.1214C70.0016 71.1214 69.8136 71.0482 69.8136 70.6858C69.8136 70.2502 70.2708 70.2138 70.5128 70.2138C72.0192 70.2138 72.1004 69.2702 72.1808 67.4918L73.0144 51.4134C73.1224 49.5622 73.0144 49.3446 71.5616 49.3446C71.2924 49.3446 70.9156 49.2718 70.9156 48.7634C70.9156 48.183 71.3996 48.3646 71.6952 48.3646H75.6148C76.1252 48.3646 76.1528 48.8362 76.314 49.4174L81.2112 65.9678L81.2128 65.9674ZM97.7508 52.2486C97.7508 49.9986 97.858 49.345 96.002 49.345C95.7332 49.345 95.3028 49.3086 95.3028 48.837C95.3028 48.4742 95.5176 48.3654 95.76 48.3654C96.6212 48.3654 97.428 48.5106 98.2892 48.5106C101.355 48.5106 105.221 48.3654 108.314 48.3654C108.854 48.3654 108.745 49.091 108.745 49.6354V52.1758C108.745 52.4662 108.88 53.591 108.476 53.591C108.206 53.591 108.099 53.083 108.046 52.829C107.319 49.381 105.705 49.345 103.31 49.345C102.853 49.345 101.455 49.345 101.025 49.5994C100.622 49.853 100.675 50.8694 100.675 51.3414V56.495C100.675 58.2006 100.918 58.2006 102.02 58.2006C102.827 58.2006 104.226 58.237 105.274 58.0554C105.947 57.9466 106.082 56.6034 106.216 55.551C106.243 55.333 106.324 54.9342 106.566 54.9342C106.701 54.9342 106.862 55.007 106.862 55.2974C106.83 56.3386 106.785 57.379 106.727 58.419C106.781 59.5806 106.834 60.669 106.862 61.8306C106.862 62.4118 106.7 62.4838 106.566 62.4838C106.324 62.4838 106.243 62.085 106.216 61.8674C106.082 60.8146 105.866 59.7258 105.274 59.5442C104.226 59.2178 102.826 59.2178 102.02 59.2178C100.944 59.2178 100.675 59.2178 100.675 60.4514V67.2018C100.675 69.525 100.567 70.1774 102.423 70.2146C102.666 70.2146 103.124 70.1782 103.124 70.6502C103.124 71.049 102.908 71.1222 102.666 71.1222C101.644 71.1222 100.676 70.9766 99.6528 70.9766C98.63 70.9766 96.8088 71.1222 95.7872 71.1222C95.5448 71.1222 95.3292 71.049 95.3292 70.6502C95.3292 70.1782 95.7596 70.2146 96.002 70.2146C97.8848 70.2146 97.7508 69.489 97.7508 67.2018V52.2482H97.7512L97.7508 52.2486Z" fill="white"/>
<path fill-rule="evenodd" clip-rule="evenodd" d="M48.6942 101.88L60.7726 101.887V101.88C60.7722 99.9426 62.7279 99.9534 61.1355 98.005C60.6323 97.3898 60.7943 97.8622 60.2635 97.7294C59.7327 97.5966 58.601 96.8002 59.5302 95.7394C60.061 95.7394 61.7858 94.6774 62.1838 94.2806C62.1838 94.2806 62.1839 93.8822 61.3879 91.8914C61.3879 91.8914 66.2774 90.993 66.4294 89.3706C66.5818 87.7482 60.8687 82.9718 61.6383 78.5762C61.8223 77.5246 63.6938 76.5222 63.5122 74.0078L48.6938 74.001V101.88H48.6942Z" fill="#D76F2C"/>
<path fill-rule="evenodd" clip-rule="evenodd" d="M56.1754 82.4957C55.2598 81.3233 54.1974 80.7377 56.8346 79.8581L58.7758 79.2725C58.1918 79.3893 55.6494 79.3969 53.5986 81.4477C52.615 82.4309 56.175 82.4957 56.175 82.4957H56.1754Z" fill="#33348E"/>
<path fill-rule="evenodd" clip-rule="evenodd" d="M57.7134 82.4954C57.7134 82.4954 59.1422 81.8362 59.1422 80.6266C59.1422 79.417 57.8234 80.0774 57.8234 80.6266C57.8234 80.627 58.7754 80.7378 57.7134 82.4954ZM59.9478 77.2214C61.2666 76.7814 61.7058 76.3422 61.7058 75.6094L59.9478 77.2214Z" fill="#33348E"/>
<path fill-rule="evenodd" clip-rule="evenodd" d="M74.1094 101.893C74.1718 101.019 74.083 100.003 73.5474 98.7029C72.699 96.6437 70.641 92.7081 71.1858 89.0757C71.769 85.1877 73.4866 85.4433 73.3654 82.6589C73.3654 82.6589 72.2754 82.0541 71.307 79.6313C71.1042 78.6161 71.3302 75.6605 71.8362 74.0129L69.7334 74.0117V101.892L74.1094 101.894V101.893Z" fill="#D76F2C"/>
<path fill-rule="evenodd" clip-rule="evenodd" d="M71.0567 99.9426L71.8075 98.9414C70.8395 99.3042 70.4015 99.6678 70.8863 100.031L70.9439 100.064C71.4283 100.427 71.3071 99.7006 71.3071 99.7006L71.0571 99.943L71.0567 99.9426Z" fill="#33348E"/>
<path fill-rule="evenodd" clip-rule="evenodd" d="M101.617 101.908V101.76L102.304 101.88L101.617 99.5797V74.0277L85.8058 74.0205C85.6326 76.5253 87.4962 77.5261 87.6802 78.5761C88.449 82.9717 82.0098 87.7485 82.1618 89.3705C82.3138 90.9925 87.929 91.8913 87.929 91.8913C87.1338 93.8825 87.1338 94.2805 87.1338 94.2805C87.5322 94.6777 89.2566 95.7393 89.7874 95.7393C90.7154 96.8001 89.5846 97.5965 89.0538 97.7293C88.5242 97.8621 88.097 97.3797 87.595 97.9949C86.0034 99.9425 88.6262 99.8521 88.8918 100.516C89.0322 100.867 89.0938 101.3 88.9862 101.9L101.617 101.907L101.617 101.908Z" fill="#D76F2C"/>
<path fill-rule="evenodd" clip-rule="evenodd" d="M87.6123 75.6094C87.6123 76.3418 88.0523 76.7818 89.3703 77.2214L87.6123 75.6094ZM90.1771 80.627C90.1771 81.8358 91.6059 82.4958 91.6059 82.4958C90.5427 80.7378 91.4955 80.627 91.4955 80.627C91.4955 80.0778 90.1771 79.4182 90.1771 80.627Z" fill="#33348E"/>
<path fill-rule="evenodd" clip-rule="evenodd" d="M92.4846 79.8581C95.1222 80.7373 94.0602 81.3233 93.1438 82.4957C93.1438 82.4957 96.7034 82.4309 95.7206 81.4477C93.6686 79.3969 91.1274 79.3885 90.543 79.2725L92.4842 79.8581H92.4846Z" fill="#33348E"/>
<path fill-rule="evenodd" clip-rule="evenodd" d="M104.121 74.0287V76.0899L104.363 77.1799L104.121 78.9955V83.5967L104.484 84.5651L104.121 86.7451V91.3463L104.484 92.6775L104.121 95.5847L104.484 97.2787L104.121 98.8531V101.908L108.238 101.91V74.0303L104.121 74.0283V74.0287ZM73.2819 80.9643C74.3419 80.0023 78.5767 80.6827 79.5879 80.8619C79.2435 81.2735 78.5259 81.6391 77.4519 81.8559C77.9515 80.4027 76.2271 80.2219 75.9083 80.9479C75.4991 81.4931 76.1443 82.1223 76.4535 82.1739C77.1799 82.2943 75.5447 82.0219 74.0919 82.2643C74.8183 82.6279 80.5087 82.6279 81.4783 80.6907C81.4783 80.6907 81.1467 79.4779 79.7819 78.7535C75.1871 76.3107 70.5671 78.7939 72.1391 78.6323C78.2967 77.9999 80.5955 79.6275 79.5935 80.8511C78.6083 80.4635 75.4863 77.8855 73.2815 80.9643H73.2819ZM73.9891 97.4571C74.2551 97.5039 74.7859 97.6211 75.1819 97.8847C75.7271 98.2475 74.6371 99.5187 76.2715 100.7C81.2671 101.608 82.2651 100.972 83.9907 99.7003C83.2643 99.5187 83.1743 99.8831 81.5395 98.8839C79.6227 97.7123 78.8559 98.2527 73.9895 97.4571H73.9891Z" fill="#D76F2C"/>
<path fill-rule="evenodd" clip-rule="evenodd" d="M39.1733 97.2967C39.3013 97.2967 39.4289 97.3363 39.4289 97.4435C39.4289 97.7771 37.7785 97.5903 37.7785 99.3211C37.7785 100.094 38.0981 100.788 38.9041 101.287C39.6329 101.747 40.7205 101.991 41.6413 101.991C42.6137 101.991 43.5093 101.786 44.2513 101.287C45.0953 100.73 45.3897 100.016 45.3897 99.1751C45.3897 98.8415 45.3253 98.3331 45.0313 98.0599C44.8141 97.8551 44.2641 97.8747 43.9569 97.8747H42.8953C42.1793 97.8747 42.0641 97.9723 42.0641 98.5391C42.0641 98.6371 42.0769 98.7743 41.9105 98.7743C41.7441 98.7743 41.7441 98.6375 41.7441 98.5491C41.7441 98.1963 41.7953 97.8451 41.7953 97.4923C41.7953 97.1599 41.7441 96.8279 41.7441 96.4863C41.7441 96.4075 41.7701 96.3191 41.8977 96.3191C42.0513 96.3191 42.0641 96.4171 42.0641 96.5055L42.0897 96.6907C42.1025 96.7787 42.1025 96.9247 42.1921 96.9935C42.3325 97.1211 42.7037 97.1019 42.8957 97.1019H44.3669C44.6993 97.1019 44.8401 97.0519 45.0321 97.2771C45.5441 97.8839 45.7357 98.6463 45.7357 99.3607C45.7357 100.241 45.4669 101.062 44.7381 101.747C43.9573 102.471 42.9601 102.882 41.7321 102.882C39.1733 102.882 37.4085 101.043 37.4085 99.1655C37.4085 98.6671 37.5237 98.0599 37.7665 97.5911C37.9325 97.2587 38.2141 97.3467 38.6361 97.3179L39.1737 97.2967H39.1733ZM39.0197 93.9127C38.2017 93.9127 37.9581 93.8627 37.9581 94.5483C37.9581 94.6363 37.9581 94.7927 37.8049 94.7927C37.6645 94.7927 37.6129 94.7247 37.6129 94.6163C37.6129 94.3039 37.6641 93.9711 37.6641 93.6575C37.6641 93.0911 37.6129 92.5431 37.6129 91.9855C37.6129 91.0563 38.2141 90.1375 39.5573 90.1375C40.7213 90.1375 41.3989 90.8711 41.5397 91.6831C41.6041 91.3699 42.0517 91.2231 42.3841 91.0863L44.3793 90.2951C44.8269 90.1187 45.3133 89.9719 45.3133 89.5411C45.3133 89.4631 45.3133 89.2867 45.4921 89.2867C45.6201 89.2867 45.6325 89.3847 45.6325 89.4631V90.4995C45.6325 90.6951 45.3897 90.7539 45.1977 90.8319L42.7033 91.7907C41.8077 92.1435 41.7057 92.1331 41.7057 92.8771C41.7057 92.9551 41.6929 93.0419 41.7697 93.0919C41.8593 93.1507 42.1665 93.1407 42.2813 93.1407H44.2513C45.0701 93.1407 45.3001 93.1791 45.3129 92.5051C45.3129 92.4171 45.3005 92.2507 45.4661 92.2507C45.6065 92.2507 45.6325 92.3287 45.6325 92.4167C45.6325 92.7887 45.5813 93.1403 45.5813 93.5119C45.5813 93.8835 45.6325 94.2547 45.6325 94.6263C45.6325 94.7143 45.6069 94.7923 45.4661 94.7923C45.3001 94.7923 45.3129 94.6363 45.3129 94.5479C45.3129 93.8631 45.0573 93.9123 44.2513 93.9123H39.0193V93.9119L39.0197 93.9127ZM41.1945 93.1395C41.5145 93.1395 41.4249 92.8071 41.4249 92.6411C41.4249 92.1915 41.3737 91.7899 41.0033 91.4183C40.6833 91.0963 40.2101 90.9687 39.6981 90.9687C38.5213 90.9687 37.8817 91.5067 37.8817 92.3771C37.8817 93.1211 38.0097 93.1403 38.9053 93.1403H41.1949L41.1945 93.1395ZM37.4077 84.6111C37.4077 82.7527 39.0965 81.2075 41.5653 81.2075C44.0341 81.2075 45.7353 82.7531 45.7353 84.6111C45.7353 86.3723 43.8929 88.0247 41.5653 88.0247C39.2377 88.0247 37.4077 86.3723 37.4077 84.6111ZM38.9173 82.7439C38.1877 83.2127 37.7533 83.8583 37.7533 84.5919C37.7533 85.3255 38.1757 86.0579 38.9557 86.5279C39.6845 86.9775 40.6445 87.1443 41.5653 87.1443C42.4861 87.1443 43.4969 86.9679 44.2385 86.4887C44.9805 86.0199 45.3769 85.3343 45.3769 84.5919C45.3769 83.8495 44.9037 83.1735 44.1489 82.7039C43.3817 82.2439 42.5245 82.0979 41.5653 82.0979C40.6061 82.0979 39.6977 82.2539 38.9173 82.7439ZM39.5185 74.1475C39.2113 74.1475 38.5085 74.1371 38.2521 74.2547C37.9709 74.3723 37.9581 74.6167 37.9581 74.8415C37.9581 74.9291 37.9709 75.1055 37.7921 75.1055C37.6517 75.1055 37.6125 74.9983 37.6125 74.8999C37.6125 74.6075 37.6637 74.3135 37.6637 74.0199C37.6637 73.7663 37.6125 73.5119 37.6125 73.2571C37.6125 73.1787 37.6253 73.0515 37.7789 73.0515C37.9577 73.0515 37.9577 73.2763 37.9577 73.3643C37.9577 73.9219 38.4445 73.8535 39.0321 73.8727H43.0233C43.8421 73.8727 44.4557 73.8827 45.0569 74.4107C45.6069 74.8987 45.7349 75.6035 45.7349 76.2487C45.7349 76.8263 45.6069 77.5891 45.1465 78.0687C44.6089 78.6643 43.8677 78.6451 43.0229 78.6451H39.0065C38.2009 78.6451 37.9577 78.5963 37.9577 79.2807C37.9577 79.3687 37.9577 79.5259 37.7917 79.5259C37.6513 79.5259 37.6121 79.4567 37.6121 79.3599C37.6121 78.9879 37.6633 78.6363 37.6633 78.2647C37.6633 77.8931 37.6121 77.5207 37.6121 77.1491C37.6121 77.0611 37.6505 76.9831 37.7917 76.9831C37.9577 76.9831 37.9577 77.1491 37.9577 77.2375C37.9577 77.9223 38.2009 77.8739 39.0065 77.8739H42.6137C43.1765 77.8739 44.1105 77.8931 44.5837 77.6683C45.2365 77.3655 45.4157 76.6215 45.4157 76.0835C45.4157 75.5455 45.2493 74.9003 44.7245 74.4991C44.2385 74.1371 43.6629 74.1475 43.0233 74.1475H39.5177V74.1463L39.5185 74.1475ZM39.0069 70.8507C38.2013 70.8507 37.9581 70.7919 37.9581 71.4767C37.9581 71.5647 37.9581 71.7215 37.7921 71.7215C37.6517 71.7215 37.6125 71.6531 37.6125 71.5551C37.6125 71.2035 37.6637 70.8707 37.6637 70.5187C37.6637 69.9907 37.6125 69.4823 37.6125 68.9635C37.6125 68.4939 37.6893 68.0447 38.0477 67.6535C38.4317 67.2231 39.1221 66.9395 39.8001 66.9395C41.1685 66.9395 42.1409 67.8291 42.1409 68.8367C42.1409 69.0127 42.1153 69.0811 42.0517 69.2379L41.8469 69.7075C41.8209 69.7759 41.7825 69.8443 41.7825 69.9223C41.7825 70.0983 41.9745 70.0791 42.1405 70.0791H44.2513C45.0701 70.0791 45.3001 70.1179 45.3129 69.4431C45.3129 69.3555 45.3005 69.1887 45.4661 69.1887C45.6065 69.1887 45.6325 69.2671 45.6325 69.3547C45.6325 69.7267 45.5813 70.0783 45.5813 70.4499C45.5813 70.8215 45.6325 71.1935 45.6325 71.5647C45.6325 71.6527 45.6069 71.7311 45.4661 71.7311C45.3001 71.7311 45.3129 71.5743 45.3129 71.4863C45.3129 70.8019 45.0573 70.8507 44.2513 70.8507H39.0069ZM40.8361 70.0783C41.1173 70.0783 41.3605 70.1271 41.5141 69.9215C41.6677 69.7263 41.7697 69.3643 41.7697 69.1395C41.7697 68.3275 40.8741 67.7507 39.8505 67.7507C39.2753 67.7507 38.6737 67.9171 38.2901 68.2591C37.9321 68.5619 37.8425 68.9731 37.8425 69.3739C37.8425 70.0487 38.1493 70.0779 38.9429 70.0779H40.8361V70.0783ZM40.4777 63.6047C41.0789 63.6047 41.0789 63.5167 41.0789 63.1159C41.0789 62.8227 41.0917 62.3139 41.0281 61.9327C40.9897 61.6883 40.5161 61.6395 40.1453 61.5903C40.0685 61.5803 39.9281 61.5507 39.9281 61.4631C39.9281 61.4143 39.9537 61.3551 40.0561 61.3551C40.4141 61.3651 40.7981 61.3847 41.1561 61.4039C41.5661 61.3847 41.9493 61.3651 42.3585 61.3551C42.5633 61.3551 42.5889 61.4139 42.5889 61.4631C42.5889 61.5507 42.4485 61.5803 42.3717 61.5903C42.0009 61.6391 41.6169 61.7179 41.5529 61.9327C41.4381 62.3139 41.4381 62.8231 41.4381 63.1159C41.4381 63.5071 41.4381 63.6047 41.8729 63.6047H44.0989C45.2761 63.6047 45.2881 63.1743 45.2881 62.4015C45.2881 61.5611 45.2625 61.0231 44.1369 60.6907C44.0477 60.6611 43.7017 60.5931 43.7017 60.4755C43.7017 60.4071 43.7529 60.3779 43.8421 60.3779C43.9445 60.3779 44.0469 60.3975 44.1493 60.4167L45.5049 60.5631C45.5945 60.5735 45.5817 60.5927 45.5817 60.6711V64.4951C45.5817 64.6907 45.6329 64.9059 45.6329 65.1015C45.6329 65.1895 45.5817 65.2675 45.4409 65.2675C45.3001 65.2675 45.2873 65.1115 45.2873 65.0131C45.2873 64.3387 45.0317 64.3771 44.2133 64.3771H39.0069C38.2141 64.3771 37.9581 64.3383 37.9581 65.0131C37.9581 65.1111 37.9581 65.2675 37.8049 65.2675C37.6769 65.2675 37.6129 65.1895 37.6129 65.1015C37.6129 64.4951 37.6641 63.8695 37.6641 63.2635C37.6641 62.4219 37.6129 61.6007 37.6129 60.7691C37.6129 60.5839 37.9201 60.6327 38.0865 60.6327H39.1869C39.2633 60.6327 39.4553 60.6227 39.4553 60.7207C39.4553 60.8083 39.2893 60.8471 39.1997 60.8767L38.8417 61.0235C38.4453 61.1703 38.2149 61.3071 38.0869 61.6295C37.9589 61.9527 37.9589 62.3735 37.9589 62.7055C37.9589 62.8623 37.9589 63.2923 38.0357 63.4491C38.1249 63.6347 38.4065 63.6059 38.6241 63.6059H40.4781V63.6047H40.4777Z" fill="white"/>
<path fill-rule="evenodd" clip-rule="evenodd" d="M69.4904 63.8596V57.9268H68.522V63.8596H69.4904ZM94.434 63.8596V57.9268H93.4656V63.8596H94.434Z" fill="#D76F2C"/>
</g>
<defs>
<clipPath id="clip0_119_987">
<rect width="100" height="100" fill="white" transform="translate(25 25)"/>
</clipPath>
</defs>
</svg>
