<svg width="196" height="150" viewBox="0 0 196 150" fill="none" xmlns="http://www.w3.org/2000/svg">
<g clip-path="url(#clip0_119_979)">
<path d="M23 57H65.4055V99H23V57Z" fill="#00654F"/>
<path d="M57.5361 63.8164C55.5609 63.6616 53.9485 63.6146 51.6403 63.7117C46.295 63.9788 41.3811 65.8358 37.2943 69.0258C33.4835 72.0743 30.7985 75.8314 29.7925 80.124H29.998C31.7975 74.3779 37.0121 69.8391 44.5355 68.6451C46.9078 68.3076 50.0552 68.4116 52.2854 68.812L57.5355 63.8164H57.5361Z" fill="#F04A23"/>
<path d="M42.4025 78.5388L43.907 74.0508L45.3647 78.5388H42.4025ZM45.0405 79.2043L46.4106 77.624H49.4045L50.6871 79.2043H45.0405ZM38.5479 80.142L39.3712 78.5617H42.3048L43.2182 80.142H38.5485H38.5479Z" fill="white"/>
<path d="M44.3374 81.775L46.1008 92.0409C47.3129 91.7529 48.4933 91.3443 49.6243 90.8222L44.3374 81.7757V81.775ZM55.3901 86.5372L45.7595 81.775L52.4361 89.2075C53.5525 88.4227 54.549 87.5244 55.3901 86.5378V86.5372ZM48.4965 81.775L56.764 84.6091C57.2892 83.7076 57.6907 82.7591 57.9469 81.775H48.4965ZM42.7301 92.5225L43.4088 81.775L38.5964 92.2319C39.6658 92.4432 40.753 92.5479 41.8427 92.5453C42.1396 92.5453 42.4351 92.5371 42.7301 92.5225ZM35.1673 91.0823L42.0628 81.7744L31.5062 88.2229C32.4481 89.3801 33.6901 90.3533 35.1673 91.0823ZM29.5354 81.7744C29.4161 83.0636 29.5677 84.2944 29.9528 85.4339L40.066 81.7744H29.5354Z" fill="#CADB2B"/>
<path d="M77.2227 82.4564H77.85V89.6681H77.2227V82.4564ZM83.3773 87.6404C83.3773 87.8771 83.3792 88.0896 83.3823 88.278C83.3855 88.4665 83.3912 88.6409 83.3982 88.8008C83.4045 88.9607 83.414 89.1111 83.4242 89.25C83.4343 89.389 83.4502 89.5285 83.4711 89.6681H82.8857C82.8419 89.4093 82.821 89.1466 82.8229 88.8846H82.802C82.6205 89.198 82.396 89.4283 82.1283 89.5742C81.86 89.7208 81.52 89.7937 81.1096 89.7937C80.901 89.7937 80.6948 89.7677 80.4931 89.7151C80.2914 89.6624 80.11 89.5793 79.9501 89.4645C79.7878 89.3477 79.6539 89.1954 79.5581 89.0203C79.4573 88.8395 79.4065 88.62 79.4065 88.3618C79.4065 87.9925 79.5004 87.7001 79.6888 87.4837C79.8772 87.2674 80.1163 87.1005 80.384 86.9977C80.6593 86.8899 80.9517 86.8201 81.2619 86.7884C81.5346 86.7592 81.808 86.744 82.082 86.7414H82.8134V86.4483C82.8134 86.0302 82.684 85.7308 82.4264 85.5493C82.1683 85.3679 81.8448 85.2778 81.4547 85.2778C80.8972 85.2778 80.4062 85.4592 79.9812 85.8215L79.6159 85.3926C79.8455 85.1693 80.1316 85.0012 80.4728 84.8857C80.8141 84.7709 81.142 84.7131 81.4553 84.7131C82.0408 84.7131 82.507 84.8508 82.8552 85.1261C83.2035 85.4015 83.3779 85.8462 83.3779 86.4591V87.6398L83.3773 87.6404ZM82.1232 87.2433C81.8587 87.2433 81.6025 87.261 81.3551 87.2953C81.1077 87.3302 80.8851 87.3892 80.6866 87.4729C80.488 87.5567 80.3295 87.6677 80.2108 87.8073C80.0922 87.9469 80.0332 88.1207 80.0332 88.3301C80.0332 88.4766 80.0662 88.6073 80.1322 88.7222C80.1982 88.837 80.2838 88.9315 80.3884 89.0045C80.495 89.0787 80.6136 89.1352 80.7386 89.172C80.8673 89.2107 80.998 89.2297 81.1306 89.2297C81.4655 89.2297 81.7401 89.1809 81.9558 89.0832C82.1715 88.9854 82.344 88.8579 82.4727 88.7019C82.6009 88.5464 82.6922 88.3643 82.7392 88.1689C82.788 87.9722 82.8121 87.7705 82.8121 87.5675V87.2439H82.1226L82.1232 87.2433ZM87.3638 84.8387H88.0749L89.6841 88.988L91.2515 84.8387H91.8889L89.9867 89.6675H89.339L87.3638 84.8387ZM92.881 86.1977C92.881 86.107 92.8772 85.9972 92.8702 85.8684C92.8632 85.7377 92.8581 85.607 92.8543 85.4764C92.8505 85.3438 92.8454 85.22 92.8385 85.1052C92.8315 84.9904 92.8283 84.9016 92.8283 84.8387H93.4556C93.462 85.0202 93.4677 85.194 93.4715 85.3615C93.4747 85.529 93.4836 85.6369 93.4975 85.6857C93.6491 85.4097 93.8597 85.1706 94.1147 84.9853C94.3652 84.8038 94.6722 84.7138 95.0338 84.7138C95.0966 84.7138 95.1575 84.7195 95.2165 84.7296C95.2755 84.7404 95.337 84.7525 95.3998 84.7664L95.3262 85.3837C95.2488 85.3571 95.1676 85.3425 95.0858 85.3419C94.8143 85.3419 94.579 85.3856 94.3805 85.4725C94.1819 85.5595 94.0183 85.68 93.8895 85.8335C93.7582 85.9915 93.6605 86.1749 93.6022 86.3716C93.5381 86.5866 93.5064 86.8106 93.5083 87.0352V89.6694H92.8816V86.1983L92.881 86.1977ZM100.111 87.6404C100.111 87.8771 100.113 88.0896 100.117 88.278C100.12 88.4665 100.126 88.6409 100.133 88.8008C100.139 88.9607 100.149 89.1111 100.159 89.25C100.17 89.3896 100.185 89.5285 100.206 89.6681H99.621C99.5773 89.4093 99.5563 89.1466 99.5582 88.8846H99.5373C99.3559 89.198 99.1314 89.4283 98.863 89.5742C98.5947 89.7208 98.2554 89.7937 97.8444 89.7937C97.6363 89.7937 97.4289 89.7671 97.2272 89.7151C97.0318 89.6662 96.8479 89.5812 96.6842 89.4645C96.5218 89.3477 96.388 89.1954 96.2929 89.0203C96.192 88.8395 96.1413 88.62 96.1413 88.3618C96.1413 87.9925 96.2351 87.7001 96.4235 87.4837C96.6126 87.2674 96.851 87.1012 97.1187 86.9977C97.394 86.8899 97.6864 86.8201 97.9966 86.7884C98.2693 86.7592 98.5427 86.744 98.8167 86.7414H99.5481V86.4483C99.5481 86.0302 99.4193 85.7308 99.1618 85.5493C98.9036 85.3679 98.5795 85.2778 98.1894 85.2778C97.6319 85.2778 97.1409 85.4592 96.7166 85.8215L96.3512 85.3926C96.5808 85.1693 96.8669 85.0012 97.2082 84.8857C97.5494 84.7709 97.8767 84.7131 98.1901 84.7131C98.7755 84.7131 99.2424 84.8508 99.5906 85.1261C99.9388 85.4015 100.113 85.8462 100.113 86.4591V87.6398L100.111 87.6404ZM98.858 87.2433C98.5935 87.2433 98.3372 87.261 98.0898 87.2953C97.8425 87.3302 97.6198 87.3892 97.4213 87.4729C97.2227 87.5567 97.0642 87.6677 96.9456 87.8073C96.8269 87.9469 96.768 88.1207 96.768 88.3301C96.768 88.4766 96.8009 88.6073 96.8669 88.7222C96.9329 88.837 97.0185 88.9315 97.1232 89.0045C97.2278 89.0774 97.3445 89.1339 97.4733 89.172C97.6021 89.2107 97.7334 89.2297 97.8653 89.2297C98.2002 89.2297 98.4749 89.1809 98.6905 89.0832C98.9062 88.9854 99.0787 88.8579 99.2075 88.7019C99.3369 88.5451 99.425 88.3675 99.4739 88.1689C99.5227 87.9703 99.5468 87.7705 99.5468 87.5675V87.2439H98.8573L98.858 87.2433ZM101.888 84.8387H102.515V89.6675H101.888V84.8387ZM108.555 88.7583C108.311 89.1282 108.01 89.3928 107.651 89.5526C107.292 89.7125 106.897 89.7931 106.465 89.7931C106.096 89.7931 105.762 89.7303 105.462 89.6047C105.171 89.4848 104.907 89.3052 104.689 89.0768C104.473 88.8509 104.308 88.5826 104.192 88.2723C104.077 87.9621 104.02 87.6195 104.02 87.2426C104.02 86.8658 104.079 86.546 104.198 86.239C104.31 85.942 104.48 85.6699 104.699 85.4396C104.916 85.2131 105.175 85.0316 105.462 84.9066C105.755 84.7778 106.079 84.7131 106.435 84.7131C106.79 84.7131 107.129 84.7778 107.411 84.9066C107.693 85.0361 107.93 85.2067 108.122 85.4186C108.313 85.6299 108.46 85.8767 108.555 86.1451C108.653 86.4166 108.702 86.6919 108.702 86.9705V87.4095H104.647C104.647 87.5421 104.673 87.7109 104.725 87.9164C104.777 88.122 104.873 88.3225 105.013 88.5179C105.151 88.7126 105.338 88.8801 105.571 89.0197C105.805 89.1593 106.106 89.2291 106.475 89.2291C106.796 89.2291 107.105 89.1523 107.405 88.9994C107.705 88.8465 107.934 88.6371 108.095 88.3719L108.554 88.759L108.555 88.7583ZM108.074 86.8455C108.074 86.6298 108.03 86.4274 107.943 86.2396C107.857 86.0531 107.736 85.8849 107.588 85.7428C107.433 85.5969 107.252 85.4821 107.055 85.4034C106.848 85.3196 106.626 85.2765 106.402 85.2778C106.061 85.2778 105.777 85.3476 105.55 85.4871C105.324 85.6267 105.145 85.7872 105.013 85.968C104.88 86.1495 104.786 86.3252 104.73 86.4959C104.674 86.6666 104.647 86.7833 104.647 86.8461H108.074L108.074 86.8455ZM112.415 84.8387H113.126L114.735 88.988L116.302 84.8387H116.94L115.038 89.6675H114.391L112.415 84.8387ZM118.037 84.8387H118.665V89.6675H118.037V84.8387ZM124.704 88.7583C124.46 89.1282 124.159 89.3928 123.8 89.5526C123.441 89.7125 123.046 89.7931 122.614 89.7931C122.245 89.7931 121.91 89.7303 121.611 89.6047C121.319 89.4848 121.055 89.3052 120.838 89.0768C120.622 88.8509 120.456 88.5826 120.341 88.2723C120.226 87.9621 120.169 87.6195 120.169 87.2426C120.169 86.8658 120.228 86.546 120.346 86.239C120.458 85.942 120.629 85.6699 120.848 85.4396C121.064 85.2131 121.324 85.0316 121.611 84.9066C121.904 84.7778 122.227 84.7131 122.583 84.7131C122.938 84.7131 123.277 84.7778 123.559 84.9066C123.842 85.0361 124.078 85.2067 124.27 85.4186C124.461 85.6299 124.608 85.8767 124.703 86.1451C124.801 86.4166 124.85 86.6919 124.85 86.9705V87.4095H120.795C120.795 87.5421 120.821 87.7109 120.874 87.9164C120.926 88.122 121.022 88.3225 121.161 88.5179C121.301 88.7126 121.487 88.8801 121.721 89.0197C121.954 89.1593 122.255 89.2291 122.625 89.2291C122.945 89.2291 123.255 89.1523 123.554 88.9994C123.854 88.8465 124.084 88.6371 124.244 88.3719L124.704 88.759V88.7583ZM124.223 86.8455C124.223 86.6298 124.179 86.4274 124.092 86.2396C124.006 86.0531 123.886 85.8849 123.737 85.7428C123.582 85.5969 123.402 85.4821 123.204 85.4034C122.997 85.3196 122.775 85.2765 122.552 85.2778C122.21 85.2778 121.926 85.3476 121.7 85.4871C121.473 85.6267 121.294 85.7872 121.162 85.968C121.029 86.1495 120.935 86.3252 120.88 86.4959C120.824 86.6666 120.796 86.7833 120.796 86.8461H124.223V86.8455ZM128.7 88.4341C128.833 88.6923 129.028 88.889 129.285 89.0248C129.543 89.1606 129.815 89.2284 130.1 89.2284C130.233 89.2284 130.365 89.2075 130.497 89.1656C130.625 89.1263 130.745 89.066 130.853 88.988C130.957 88.9112 131.042 88.8192 131.109 88.7107C131.176 88.5991 131.21 88.4703 131.208 88.3396C131.208 88.1163 131.136 87.9494 130.993 87.8377C130.851 87.7261 130.675 87.6392 130.466 87.5764C130.24 87.5097 130.01 87.4552 129.777 87.4146C129.539 87.3733 129.308 87.3029 129.087 87.2058C128.884 87.1164 128.704 86.9825 128.56 86.8138C128.417 86.6463 128.346 86.4096 128.346 86.1032C128.346 85.8665 128.394 85.661 128.492 85.4865C128.586 85.3165 128.716 85.168 128.873 85.0532C129.032 84.9371 129.211 84.8502 129.401 84.7969C129.594 84.7417 129.795 84.7131 129.996 84.7131C130.393 84.7131 130.737 84.7867 131.026 84.9326C131.315 85.0786 131.54 85.3089 131.7 85.6223L131.136 85.9566C131.017 85.7333 130.869 85.5652 130.692 85.4497C130.514 85.3342 130.282 85.2771 129.996 85.2771C129.885 85.2771 129.768 85.2949 129.646 85.3298C129.524 85.3647 129.415 85.4135 129.317 85.4757C129.219 85.5385 129.138 85.6185 129.072 85.7162C129.006 85.8139 128.973 85.9249 128.973 86.0505C128.973 86.2669 129.044 86.4267 129.187 86.5314C129.33 86.6361 129.506 86.718 129.715 86.777C129.924 86.836 130.154 86.8867 130.404 86.9286C130.655 86.9705 130.885 87.0383 131.094 87.1322C131.303 87.2261 131.479 87.3619 131.621 87.5402C131.764 87.7178 131.836 87.9703 131.836 88.2977C131.836 88.549 131.789 88.7666 131.695 88.9512C131.603 89.1333 131.47 89.2925 131.308 89.4162C131.141 89.5438 130.951 89.6389 130.749 89.6986C130.536 89.762 130.314 89.7937 130.091 89.7925C129.673 89.7925 129.292 89.7119 128.947 89.552C128.602 89.3921 128.335 89.1441 128.147 88.8097L128.702 88.4341H128.7ZM132.938 83.1759V82.1094H133.923V82.9513C133.923 83.4074 133.87 83.7354 133.765 83.9366C133.618 84.2119 133.39 84.4194 133.081 84.559L132.856 84.1967C133.04 84.1218 133.177 84.0038 133.267 83.842C133.358 83.6803 133.408 83.4582 133.418 83.1759H132.938ZM139.215 87.6398C139.215 87.8764 139.217 88.089 139.22 88.2774C139.224 88.4658 139.229 88.6403 139.236 88.8002C139.242 88.9601 139.251 89.1104 139.262 89.2494C139.272 89.389 139.288 89.5279 139.309 89.6675H138.724C138.68 89.4086 138.659 89.146 138.661 88.8839H138.64C138.459 89.1974 138.234 89.4277 137.966 89.5736C137.697 89.7201 137.358 89.7931 136.947 89.7931C136.739 89.7931 136.532 89.7671 136.33 89.7144C136.135 89.6656 135.951 89.5806 135.787 89.4638C135.625 89.3471 135.491 89.1948 135.395 89.0197C135.294 88.8389 135.243 88.6194 135.243 88.3612C135.243 87.9919 135.337 87.6994 135.526 87.4831C135.714 87.2667 135.953 87.0999 136.221 86.9971C136.496 86.8893 136.788 86.8195 137.099 86.7877C137.371 86.7586 137.645 86.7433 137.919 86.7408H138.651V86.4477C138.651 86.0296 138.521 85.7301 138.264 85.5487C138.006 85.3672 137.682 85.2771 137.292 85.2771C136.735 85.2771 136.244 85.4586 135.819 85.8209L135.453 85.392C135.683 85.1687 135.968 85.0005 136.31 84.8851C136.652 84.7696 136.979 84.7125 137.293 84.7125C137.878 84.7125 138.344 84.8502 138.693 85.1255C139.041 85.4009 139.215 85.8456 139.215 86.4585V87.6392H139.215V87.6398ZM137.961 87.2426C137.696 87.2426 137.44 87.2604 137.192 87.2947C136.945 87.3296 136.722 87.3886 136.523 87.4723C136.325 87.5561 136.166 87.6671 136.048 87.8067C135.93 87.9462 135.871 88.1201 135.871 88.3294C135.871 88.476 135.904 88.6067 135.97 88.7215C136.036 88.8364 136.121 88.9309 136.226 89.0038C136.33 89.0768 136.447 89.1333 136.576 89.1713C136.705 89.21 136.835 89.2291 136.967 89.2291C137.302 89.2291 137.577 89.1802 137.793 89.0825C138.008 88.9848 138.181 88.8573 138.309 88.7012C138.438 88.5445 138.527 88.3669 138.576 88.1683C138.625 87.9697 138.649 87.7699 138.649 87.5668V87.2433H137.96L137.961 87.2426ZM140.897 88.4341C141.029 88.6923 141.224 88.889 141.482 89.0248C141.739 89.1606 142.011 89.2284 142.297 89.2284C142.429 89.2284 142.561 89.2075 142.694 89.1656C142.821 89.1263 142.941 89.066 143.049 88.988C143.154 88.9112 143.239 88.8192 143.305 88.7107C143.372 88.5991 143.407 88.4703 143.404 88.3396C143.404 88.1163 143.333 87.9494 143.19 87.8377C143.047 87.7261 142.871 87.6392 142.663 87.5764C142.436 87.5097 142.206 87.4552 141.973 87.4146C141.735 87.3733 141.504 87.3029 141.284 87.2058C141.081 87.1164 140.901 86.9825 140.757 86.8138C140.613 86.6463 140.542 86.4096 140.542 86.1032C140.542 85.8665 140.59 85.661 140.688 85.4865C140.783 85.3165 140.913 85.168 141.069 85.0532C141.229 84.9371 141.407 84.8502 141.597 84.7969C141.791 84.7417 141.991 84.7131 142.193 84.7131C142.59 84.7131 142.933 84.7867 143.222 84.9326C143.511 85.0786 143.736 85.3089 143.896 85.6223L143.332 85.9566C143.213 85.7333 143.065 85.5652 142.888 85.4497C142.71 85.3342 142.479 85.2771 142.193 85.2771C142.081 85.2771 141.964 85.2949 141.843 85.3298C141.721 85.3647 141.611 85.4135 141.513 85.4757C141.416 85.5385 141.334 85.6185 141.268 85.7162C141.202 85.8139 141.169 85.9249 141.169 86.0505C141.169 86.2669 141.241 86.4267 141.383 86.5314C141.526 86.6361 141.702 86.718 141.911 86.777C142.12 86.836 142.35 86.8867 142.601 86.9286C142.851 86.9705 143.081 87.0383 143.29 87.1322C143.499 87.2261 143.675 87.3619 143.818 87.5402C143.96 87.7178 144.032 87.9703 144.032 88.2977C144.032 88.549 143.985 88.7666 143.891 88.9512C143.799 89.1333 143.667 89.2925 143.504 89.4162C143.337 89.5438 143.147 89.6389 142.946 89.6986C142.732 89.762 142.51 89.7937 142.287 89.7925C141.869 89.7925 141.488 89.7119 141.143 89.552C140.798 89.3921 140.531 89.1441 140.344 88.8097L140.898 88.4341H140.897ZM145.348 88.4341C145.481 88.6923 145.676 88.889 145.933 89.0248C146.191 89.1606 146.463 89.2284 146.748 89.2284C146.881 89.2284 147.013 89.2075 147.145 89.1656C147.273 89.1263 147.393 89.066 147.5 88.988C147.605 88.9112 147.69 88.8192 147.757 88.7107C147.824 88.5991 147.858 88.4703 147.856 88.3396C147.856 88.1163 147.784 87.9494 147.641 87.8377C147.499 87.7261 147.323 87.6392 147.114 87.5764C146.888 87.5097 146.658 87.4552 146.425 87.4146C146.187 87.3733 145.955 87.3029 145.735 87.2058C145.532 87.1164 145.352 86.9825 145.208 86.8138C145.065 86.6463 144.994 86.4096 144.994 86.1032C144.994 85.8665 145.042 85.661 145.14 85.4865C145.234 85.3165 145.364 85.168 145.521 85.0532C145.68 84.9371 145.859 84.8502 146.049 84.7969C146.242 84.7417 146.442 84.7131 146.644 84.7131C147.041 84.7131 147.384 84.7867 147.674 84.9326C147.963 85.0786 148.187 85.3089 148.348 85.6223L147.783 85.9566C147.665 85.7333 147.517 85.5652 147.339 85.4497C147.162 85.3342 146.93 85.2771 146.644 85.2771C146.533 85.2771 146.416 85.2949 146.294 85.3298C146.172 85.3647 146.063 85.4135 145.965 85.4757C145.867 85.5385 145.785 85.6185 145.719 85.7162C145.653 85.8139 145.62 85.9249 145.62 86.0505C145.62 86.2669 145.692 86.4267 145.835 86.5314C145.978 86.6361 146.154 86.718 146.363 86.777C146.572 86.836 146.801 86.8867 147.052 86.9286C147.303 86.9705 147.533 87.0383 147.742 87.1322C147.951 87.2261 148.127 87.3619 148.269 87.5402C148.412 87.7178 148.484 87.9703 148.484 88.2977C148.484 88.549 148.437 88.7666 148.343 88.9512C148.251 89.1333 148.118 89.2925 147.956 89.4162C147.788 89.5438 147.599 89.6389 147.397 89.6986C147.183 89.762 146.961 89.7937 146.739 89.7925C146.321 89.7925 145.939 89.7119 145.594 89.552C145.249 89.3921 144.983 89.1441 144.795 88.8097L145.35 88.4341H145.348ZM153.875 88.3085C153.875 88.3992 153.878 88.509 153.885 88.6378C153.892 88.7672 153.897 88.8979 153.901 89.0299C153.905 89.1618 153.91 89.2862 153.917 89.401C153.924 89.5158 153.928 89.6047 153.928 89.6675H153.301C153.294 89.4867 153.288 89.3122 153.285 89.1447C153.281 88.9772 153.273 88.8693 153.259 88.8211H153.228C153.102 89.0857 152.893 89.3141 152.6 89.5057C152.307 89.6973 151.966 89.7931 151.576 89.7931C151.187 89.7931 150.892 89.7335 150.652 89.6154C150.411 89.4968 150.224 89.342 150.087 89.1504C149.951 88.9588 149.859 88.7374 149.811 88.4868C149.761 88.2317 149.736 87.9729 149.737 87.7134V84.8394H150.364V87.6823C150.364 87.8777 150.382 88.0674 150.416 88.252C150.451 88.4367 150.512 88.6022 150.599 88.7488C150.686 88.8947 150.808 89.0115 150.964 89.099C151.121 89.1859 151.325 89.2297 151.576 89.2297C151.799 89.231 152.021 89.1897 152.229 89.1092C152.433 89.0305 152.615 88.9049 152.762 88.7437C152.912 88.58 153.03 88.3745 153.117 88.127C153.204 87.8796 153.248 87.589 153.248 87.2541V84.84H153.875V88.3098V88.3085ZM155.599 86.1971C155.599 86.1064 155.595 85.9966 155.589 85.8678C155.582 85.7371 155.577 85.6064 155.573 85.4757C155.57 85.352 155.565 85.2283 155.557 85.1046C155.552 85.0158 155.548 84.9269 155.547 84.8381H156.174C156.18 85.0196 156.186 85.1934 156.19 85.3609C156.194 85.5284 156.202 85.6362 156.216 85.6851C156.376 85.3996 156.581 85.1661 156.832 84.9847C157.083 84.8032 157.39 84.7131 157.751 84.7131C157.814 84.7131 157.875 84.7188 157.934 84.729C157.993 84.7398 158.055 84.7518 158.117 84.7658L158.044 85.3831C157.966 85.3564 157.885 85.3419 157.803 85.3412C157.532 85.3412 157.297 85.385 157.098 85.4719C156.9 85.5588 156.735 85.6794 156.607 85.8329C156.476 85.9909 156.378 86.1736 156.32 86.3709C156.256 86.586 156.224 86.8099 156.226 87.0345V89.6687H155.599V86.1977L155.599 86.1971ZM163.154 88.7577C162.911 89.1276 162.609 89.3921 162.25 89.552C161.891 89.7119 161.496 89.7925 161.064 89.7925C160.695 89.7925 160.361 89.7296 160.062 89.604C159.77 89.4841 159.506 89.3046 159.288 89.0762C159.073 88.8503 158.907 88.5819 158.792 88.2717C158.676 87.9615 158.619 87.6189 158.619 87.242C158.619 86.8651 158.678 86.5454 158.797 86.2383C158.909 85.9414 159.08 85.6692 159.298 85.4389C159.515 85.2124 159.774 85.031 160.062 84.906C160.355 84.7772 160.678 84.7125 161.033 84.7125C161.388 84.7125 161.728 84.7772 162.01 84.906C162.292 85.0354 162.529 85.2061 162.72 85.418C162.911 85.6293 163.059 85.8761 163.154 86.1444C163.251 86.416 163.3 86.6913 163.3 86.9698V87.4089H159.246C159.246 87.5415 159.272 87.7102 159.324 87.9158C159.376 88.1213 159.472 88.3218 159.612 88.5172C159.751 88.712 159.937 88.8795 160.171 89.0191C160.405 89.1587 160.706 89.2284 161.075 89.2284C161.395 89.2284 161.706 89.1517 162.005 88.9988C162.304 88.8459 162.535 88.6365 162.694 88.3713L163.154 88.7583V88.7577ZM162.674 86.8448C162.674 86.6291 162.63 86.4267 162.543 86.239C162.457 86.0524 162.336 85.8843 162.188 85.7422C162.033 85.5963 161.852 85.4814 161.655 85.4028C161.447 85.319 161.225 85.2759 161.002 85.2771C160.661 85.2771 160.377 85.3469 160.15 85.4865C159.924 85.6261 159.744 85.7866 159.612 85.9674C159.48 86.1489 159.386 86.3246 159.33 86.4953C159.274 86.6659 159.246 86.7827 159.246 86.8455H162.674V86.8448ZM167.799 84.8381H168.427V89.6668H167.799V84.8381ZM167.799 82.7603H168.427V83.54H167.799V82.7603ZM118.037 82.7603H118.665V83.54H118.037V82.7603ZM101.888 82.7603H102.515V83.54H101.888V82.7603ZM175.334 82.7603H175.961V83.54H175.334V82.7603ZM174.246 88.9563C174.01 89.2418 173.741 89.453 173.442 89.5888C173.136 89.7258 172.805 89.7956 172.47 89.7925C172.101 89.7925 171.76 89.7296 171.447 89.604C171.133 89.479 170.865 89.3027 170.642 89.0762C170.416 88.8452 170.238 88.5718 170.12 88.2717C169.995 87.9615 169.931 87.622 169.931 87.2522C169.931 86.8823 169.994 86.5435 170.12 86.2332C170.239 85.9332 170.416 85.6597 170.642 85.4288C170.871 85.1985 171.145 85.0189 171.447 84.9009C171.76 84.7753 172.101 84.7125 172.47 84.7125C172.839 84.7125 173.155 84.7861 173.458 84.932C173.766 85.0817 174.041 85.2917 174.268 85.5487L173.766 85.9249C173.585 85.7232 173.386 85.5645 173.171 85.4497C172.955 85.3349 172.721 85.2771 172.47 85.2771C172.177 85.2771 171.913 85.3298 171.676 85.4338C171.448 85.5328 171.242 85.6762 171.07 85.857C170.902 86.0378 170.772 86.251 170.689 86.4845C170.601 86.7306 170.557 86.9908 170.559 87.2528C170.559 87.5243 170.602 87.7806 170.689 88.0211C170.772 88.2546 170.902 88.4677 171.07 88.6486C171.242 88.8294 171.448 88.9728 171.676 89.0717C171.913 89.1764 172.178 89.2284 172.47 89.2284C172.735 89.2284 172.977 89.1669 173.197 89.0457C173.417 88.9233 173.611 88.7577 173.766 88.5597L174.247 88.9575L174.246 88.9563ZM175.334 84.8381H175.961V89.6668H175.334V84.8381Z" fill="#00654F"/>
<path d="M170.731 75.8506C169.306 75.8506 168.542 75.3627 168.542 74.4916C168.542 73.6205 169.221 73.1739 170.603 73.0888L173.727 72.9182V75.6177C172.344 75.8081 171.346 75.8512 170.731 75.8512M171.622 67.0566C170.092 67.0566 168.923 67.2234 167.244 67.5242L167.5 69.5842C168.733 69.3901 170.092 69.1946 171.431 69.1946C172.919 69.1946 173.727 69.7542 173.727 70.9603V71.0929L170.773 71.2623C167.691 71.3885 166.224 72.4297 166.224 74.4288C166.224 76.6176 167.607 77.8294 170.134 77.8294C171.431 77.8294 172.43 77.8294 176 77.2977V70.8988C176 68.2696 174.597 67.0566 171.622 67.0566ZM160.365 67.1365C158.9 67.1365 157.136 67.4119 156.094 67.7995C155.373 67.3319 154.415 67.1365 153.289 67.1365C151.334 67.1365 148.826 67.4778 148.042 67.6663V77.5103H150.484V69.5239C151.271 69.4091 152.014 69.3691 152.757 69.3691C154.331 69.3691 155.095 70.074 155.095 71.7064V77.5103H157.559V71.0295C157.559 70.52 157.496 70.074 157.391 69.6844C158.197 69.4503 159.026 69.3691 159.834 69.3691C161.407 69.3691 162.172 70.1539 162.172 71.7502V77.5103H164.615V71.0517C164.615 68.2443 162.915 67.1365 160.365 67.1365ZM140.567 75.8512C139.143 75.8512 138.379 75.3633 138.379 74.4922C138.379 73.6211 139.059 73.1745 140.441 73.0895L143.564 72.9188V75.6184C142.182 75.8087 141.184 75.8518 140.567 75.8518M141.461 67.0572C139.93 67.0572 138.76 67.2241 137.082 67.5248L137.338 69.5848C138.57 69.3907 139.93 69.1953 141.27 69.1953C142.757 69.1953 143.565 69.7549 143.565 70.9609V71.0935L140.61 71.2629C137.529 71.3892 136.063 72.4303 136.063 74.4294C136.063 76.6182 137.444 77.83 139.973 77.83C141.27 77.83 142.268 77.83 145.838 77.2984V70.8994C145.838 68.2703 144.435 67.0572 141.461 67.0572M129.657 75.5549C128.85 75.5549 128.126 75.5746 126.748 75.3411V69.3698C127.575 69.2695 128.425 69.1946 129.467 69.1946C131.635 69.1946 132.463 70.6037 132.463 72.4944C132.463 74.2162 131.358 75.5549 129.657 75.5549ZM129.807 67.1372C127.682 67.1372 125.556 67.4125 124.304 67.6276V81.5091H126.748V77.4481C128.108 77.6181 128.935 77.6181 129.998 77.6181C132.909 77.6181 134.864 75.4718 134.864 72.4303C134.8 69.2365 133.038 67.1372 129.807 67.1372ZM121.878 67.455H119.413V75.5321C118.49 75.6571 117.56 75.7218 116.629 75.725C115.1 75.725 114.334 74.9395 114.334 73.3452V67.455H111.869V73.9187C111.869 76.7242 113.59 77.8294 116.098 77.8294C118.053 77.8294 120.773 77.5306 121.878 77.2977V67.455ZM104.64 75.6609C102.748 75.6609 101.473 74.3634 101.473 72.4068C101.473 70.4502 102.748 69.2359 104.64 69.2359C106.531 69.2359 107.764 70.4953 107.764 72.4068C107.764 74.3184 106.509 75.6609 104.64 75.6609ZM104.64 67.0122C101.282 67.0122 99.0077 69.1756 99.0077 72.4068C99.0077 75.638 101.282 77.8928 104.64 77.8928C107.998 77.8928 110.25 75.7053 110.25 72.4068C110.25 69.1084 107.975 67.0122 104.64 67.0122ZM98.5161 67.1365C96.6037 67.1365 94.0735 67.4315 92.3317 67.7576V77.5103H94.7763V69.6844C96.01 69.5836 97.2203 69.543 98.5161 69.543V67.1359V67.1365ZM90.2055 69.1946H82.5755V71.5611H87.7819V74.7048C86.4435 75.0861 84.8077 75.3405 83.5327 75.3405C80.5141 75.3405 78.4957 73.302 78.4957 70.2142C78.4957 67.1264 80.7272 65.204 84.0846 65.204C84.9351 65.204 86.3801 65.3924 88.3559 65.756L88.864 63.3762C87.1032 62.9295 85.2961 62.7373 83.8943 62.7373C79.0476 62.7373 75.8184 65.7344 75.8184 70.2136C75.8184 74.6927 78.9004 77.8288 83.5327 77.8288C85.6373 77.8288 87.8897 77.2552 90.2055 76.2553V69.1946Z" fill="#00654F"/>
</g>
<defs>
<clipPath id="clip0_119_979">
<rect width="153" height="42" fill="white" transform="translate(23 57)"/>
</clipPath>
</defs>
</svg>
