<?xml version="1.0" encoding="utf-8"?>
<!-- Generator: Adobe Illustrator 24.3.0, SVG Export Plug-In . SVG Version: 6.00 Build 0)  -->
<svg version="1.1" id="logo_x5F_securiclefs" xmlns="http://www.w3.org/2000/svg" xmlns:xlink="http://www.w3.org/1999/xlink"
	 x="0px" y="0px" viewBox="0 0 841.9 595.3" style="enable-background:new 0 0 841.9 595.3;" xml:space="preserve">
<style type="text/css">
	.st0{fill:#1D3050;}
	.st1{fill:#1C3050;}
	.st2{fill:#264D70;}
	.st3{fill:#4F808D;}
</style>
<g>
	<path class="st0" d="M434.8,89.7c-1.9,0.1-3.8,0.3-5.8,0.4c58.7,1.2,106.9,25.2,145,68.8c38.5,44,54.4,96.2,48.1,153.8
		c-12.1,109.9-109.1,190-221,179c-112.3-11.1-193.8-111.4-181-223.7c6.5-57.4,33.8-103.7,79.7-138.7
		C344.2,95.4,393.8,86.6,434.8,89.7z M619.8,273.2c-2.3-20-6.9-39.5-14.5-58.1c-10.7-25.9-26.2-48.7-46.6-68.1
		c-32.1-30.5-70.2-48.3-113.9-53.7c-25.9-3.2-51.7-1.3-77.1,6c-21.6,6.2-41.8,15.2-60.2,28.2c-33.1,23.3-57.3,53.6-71.9,91.4
		c-7.3,18.8-11.8,38.1-13.3,58.1c-1.6,21.6,0.4,42.8,6.1,63.8c6.1,22.4,15.3,43.2,28.4,62.3c15.9,23.2,35.8,42.3,59.8,57
		c25.7,15.8,53.5,25.5,83.6,28.6c28.5,2.9,56.4-0.1,83.8-9.1c31.4-10.3,58.5-27.4,81.3-51.3c24.2-25.3,40.6-54.9,49-89
		c4-16,6.4-32.1,6.5-48.6c0-7.1-0.4-8-0.4-14.4c0-0.6-0.1-1.1-0.2-1.7C620,274.4,620,273.9,619.8,273.2z"/>
	<g>
		<path class="st1" d="M175.8,244.6c-8.2,0-14.8-6.8-14.7-15.1c0.1-8.1,7.1-15,15.1-15c7.9,0,14.7,7.1,14.7,15.4
			C190.9,238.3,184.4,244.6,175.8,244.6z M187.4,233.7c2.3-7.4-1-13.4-8.2-15.4c-6.5-1.9-12.5,1.2-14.1,7.8
			C172.5,228.6,179.9,231.1,187.4,233.7z"/>
		<path class="st1" d="M666.5,244.6c-8.9,0-15.3-6.3-15.2-14.8c0.1-8,7.1-15.1,14.9-15.2c8-0.1,15.2,7.3,15.1,15.4
			C681.1,238,674.5,244.6,666.5,244.6z M653.7,229.4c-0.1,3.7,0.7,4.4,4.2,3.3c5.8-1.9,11.6-4,17.4-6c2.1-0.7,2.4-2,1.1-3.8
			c-2.6-3.8-8.8-6.3-12.9-5.1C658,219.3,653.8,224.3,653.7,229.4z"/>
	</g>
	<g>
		<path class="st2" d="M185.4,361.1c-9.7,3.6-19.4,7.1-29.1,10.7c-0.8,0.3-1.6,0.8-2.4,0.8c-1.1,0-2.1-0.4-3.2-0.6
			c0.6-1,1-2.4,1.8-3c1.4-0.9,3-1.4,4.6-2c11.7-4.2,23.4-8.4,35.1-12.7c0.4,0.2,0.9,0.4,1.3,0.6c-0.6,1.9-0.7,4-1.7,5.6
			c-7.5,12.3-15.2,24.5-22.8,36.7c-0.2,0.3-0.2,0.8-0.6,2.1c5-1.6,9.4-3,13.8-4.5c6.5-2.3,12.9-4.7,19.4-6.9
			c1.1-0.4,2.6,0.5,3.8,0.8c-0.9,0.9-1.6,2.1-2.7,2.6c-12.3,4.7-24.6,9.3-37,13.8c-1,0.4-2.4-0.1-3.6-0.2c0.1-1.3-0.2-2.8,0.4-3.8
			c6.7-11.3,13.6-22.5,20.3-33.8c1.1-1.9,2.1-3.8,3.2-5.8C186,361.5,185.7,361.3,185.4,361.1z"/>
		<path class="st2" d="M643.7,434c6.9,0.4,13.3,0.8,19.7,1.1c0.2,0.4,0.4,0.7,0.5,1.1c-1.2,0.7-2.5,1.9-3.8,1.9
			c-4.5,0.2-9,0.2-13.4-0.1c-3.6-0.3-6,0.9-8,4c-5.1,7.9-5.2,7.8,2.5,13.2c2.1,1.5,4.2,3.2,6.3,4.7c0,0.4-0.1,0.8-0.1,1.2
			c-1.2,0.2-2.9,0.9-3.7,0.4c-12.1-8.1-24-16.3-36.6-24.9c4.2-5.9,7.9-11.8,12.3-17.2c4-4.9,10.2-5.8,16.1-3.1
			c5.9,2.7,9.2,8.2,8.5,14.5C643.9,431.7,643.8,432.5,643.7,434z M640.9,430.6c-0.1-5.2-3.9-9.6-9.1-11.4c-4.3-1.5-7.9,0-10.5,3.3
			c-2.8,3.5-5.3,7.3-7.6,11.1c-0.4,0.7,0.2,2.9,1,3.5c3.1,2.4,6.4,4.5,9.6,6.7c6,4.3,6,4.3,10.3-1.9c1.6-2.3,3.2-4.6,4.6-7
			C640.1,433.2,640.6,431.5,640.9,430.6z"/>
		<path class="st2" d="M269.4,481.1c0,13.2-10.7,24.3-23.4,24.3c-11.9,0-21-8.6-21.1-19.8c-0.1-13.5,10.8-25.4,23.1-25.2
			C261,460.6,269.4,468.7,269.4,481.1z M266,481c-0.1-9.5-7.6-17.4-16.4-17.2c-11.2,0.2-21.4,10.5-21.2,21.4
			c0.2,9.5,7.6,17.1,16.7,17C256.1,501.9,266.1,491.8,266,481z"/>
		<path class="st2" d="M516.8,509.5c-1.1,0.8-2.2,1.9-3.5,2.4c-6,2.3-12.1,4.5-18.1,6.6c-2.4,0.8-2.9,1.9-1.8,4.4
			c1.8,4.1,3.1,8.3,4.7,12.9c6.3-2.1,12.3-4.2,18.4-6.1c1.2-0.4,2.6,0.1,3.9,0.1c0,0.5,0.1,1.1,0.1,1.6c-6.8,2.5-13.6,4.9-21.1,7.6
			c1.8,5.6,3.7,11.2,5.7,17.4c8.6-2.9,17.1-5.8,25.6-8.7c0.4,0.5,0.7,1.1,1.1,1.6c-0.9,0.8-1.7,2-2.8,2.4
			c-8.5,3.2-17.1,6.2-26.3,9.5c-5.2-14.5-10.3-28.9-15.7-43.8c9.8-3.4,19.2-6.6,28.6-9.8C516,508.2,516.4,508.9,516.8,509.5z"/>
		<path class="st2" d="M188.2,340.7c-0.8-0.9-2.1-1.8-2.2-2.8c-1-6.4-1.8-12.8-2.5-19.2c-0.3-2.8-1.5-4-4.3-3.5
			c-3.7,0.6-7.5,1.2-11.2,1.7c-2.6,0.4-2.5,2.2-2.3,4.1c0.7,5.3,1.5,10.5,2.2,15.8c0.1,1,0,2.1,0,3.2c-0.3,0.2-0.7,0.3-1,0.5
			c-0.6-0.9-1.6-1.8-1.8-2.8c-1-5.4-1.9-10.8-2.5-16.2c-0.3-2.8-1.4-3.6-4-3.2c-4.8,0.8-9.6,1.4-14.7,2.1c1,8.2,2,16,2.8,23.7
			c0.1,0.9-0.7,2-1,3c-0.7-0.8-1.9-1.6-2.1-2.5c-1.2-7.7-2.2-15.5-3.2-23.3c-0.4-3.1,0.9-4.8,4-5.2c11.4-1.6,22.8-3.2,34.1-4.8
			c2.1-0.3,4.1-0.6,6.8-1c1.4,9.9,2.7,19.6,4,29.4C189,340.1,188.6,340.4,188.2,340.7z"/>
		<path class="st2" d="M448.1,564c4.2,0.8,8.4,2.1,12.7,2.4c3.3,0.2,6.7-0.5,9.8-1.5c4.3-1.5,6.2-4.9,5.6-8.8
			c-0.7-4.3-3.8-6.1-7.6-6.6c-4.7-0.7-9.5-1.2-14.2-1.8c-4.7-0.5-8.6-2.3-9.8-7.1c-1.3-5.1-0.1-9.7,4.1-13.3
			c5.5-4.6,16.7-5.6,23.1-1.9c0.7,0.4,0.8,1.7,1.2,2.5c-1,0.1-2,0.6-2.8,0.3c-6.3-2.3-12.4-2.5-18.1,1.3c-1.5,1-2.9,2.7-3.5,4.4
			c-1.7,4.5,0.7,8.6,5.4,9.4c4.8,0.9,9.7,1.4,14.6,2c9,1.2,13.3,6.5,11.7,14.4c-0.9,4.4-4,6.7-7.7,8.2c-7.6,3-15.4,3-23-0.3
			c-1.1-0.5-1.7-2.1-2.5-3.1C447.4,564.3,447.8,564.1,448.1,564z"/>
		<path class="st2" d="M381.2,523.7c10.3,1.1,19.8,2.2,29.5,3.2c0,1.1,0,2,0,2.9c-0.4,0.1-0.7,0.3-1,0.3c-7.2-0.8-14.5-1.6-21.7-2.3
			c-1-0.1-2.9,0.9-3,1.6c-0.9,5-1.5,10.2-2.2,15.6c6.8,0.7,13.2,1.4,19.5,2.2c1.1,0.2,2.1,1.3,3.2,2c-0.3,0.4-0.5,0.8-0.8,1.2
			c-6.2-0.6-12.5-1.1-18.7-2c-2.6-0.4-3.6,0.4-3.8,2.9c-0.4,3.6-0.8,7.2-1.5,10.8c-0.6,3.3,0.3,4.8,4,5c6.4,0.4,12.8,1.3,19.2,2.2
			c1.2,0.2,2.2,1.4,3.3,2.2c-1.2,0.3-2.5,1-3.7,0.9c-9-0.8-18.1-1.8-27.4-2.7C377.8,554.2,379.5,538.9,381.2,523.7z"/>
		<path class="st2" d="M674,336.9c1.3-7.6,2.5-14.7,3.6-21.9c0.4-0.1,0.9-0.2,1.3-0.3c0.4,1.3,1.2,2.6,1.1,3.9
			c-0.5,5.3-1.2,10.6-2,15.8c-0.4,2.7,0.7,3.5,3.1,3.7c3.6,0.4,7.2,0.8,10.8,1.5c3.1,0.6,4.4-0.4,4.8-3.4c0.8-6.5,1.8-13,2.8-19.5
			c0.2-1.2,0.8-2.4,2-3.4c0.8,10.4-1.5,20.5-2.8,31c-8.6-1.2-16.9-2.3-25.1-3.4c-5.7-0.8-11.4-1.6-17.1-2.3
			c-2.5-0.3-3.6-1.2-3.1-4.1c1.3-7.7,2.2-15.5,3.4-23.3c0.2-1.1,1.2-2.1,1.9-3.2c0.4,1.2,1.3,2.5,1.2,3.6c-0.8,6.7-1.9,13.3-2.6,20
			c-0.1,1,0.9,2.9,1.6,3C663.7,335.6,668.6,336.2,674,336.9z"/>
		<path class="st2" d="M568.4,476.7c2.2-3.4,3.6-3.4,5.5-1.3c4.3,4.8,8.7,9.5,13.3,14c2.3,2.3,4.8,4.3,7.5,6
			c6.7,4.2,12.9,3.4,18.3-2c5.2-5.2,6.2-12.7,1.5-18.7c-5.4-7.1-11.7-13.5-17.5-20.3c-1-1.2-1.2-2.9-1.8-4.4c0.7-0.4,1.3-0.9,2-1.3
			c3.1,3.5,6.4,6.9,9.4,10.4c4,4.7,8.5,9.1,11.7,14.2c5.1,8.3,3.1,17.6-4.2,23.8c-7.2,6.1-16.5,6.3-24.2-0.2
			C582.4,490.5,575.4,483.3,568.4,476.7z"/>
		<path class="st2" d="M291.9,488.2c-0.1,1.5,0.1,3.3-0.5,4.5c-3.6,7.1-7.8,13.9-11.2,21.1c-5.5,12,0.7,22.6,13.2,23
			c6.2,0.2,10.3-3.5,13.3-8.3c4-6.3,7.4-12.8,11.2-19.2c0.7-1.2,1.4-2.5,2.3-3.5c0.4-0.5,1.6-0.8,2-0.6c0.5,0.3,0.6,1.3,0.8,2
			c0,0.1-0.1,0.3-0.1,0.4c-5.1,9.8-9.1,20.3-17.4,28c-6.5,6.1-14.5,6.3-22.5,1.4c-6.9-4.3-10.6-12.5-7.5-20.4
			c3.9-9.9,9.1-19.4,13.7-29C290.1,487.9,291,488,291.9,488.2z"/>
		<path class="st2" d="M562.3,495.1c-5.8-2.8-11.1-3.1-16.3-0.3c-10.8,5.7-12.2,21.1-2.6,30.6c9.2,9.2,21.3,8.5,28.1-1.6
			c1.2-1.8,1.5-4.1,2.4-6.2c0.5-1.1,1.3-2,2-2.9c0.5,1.2,1.5,2.5,1.3,3.7c-1,7.7-7.5,14.6-15.1,16.3c-8.8,2-18.8-1.9-24.1-9.3
			c-5.8-8.3-6.8-17-1.7-26c4.1-7.2,13.9-11.5,21.7-9.5C560.1,490.3,562.8,490.8,562.3,495.1z"/>
		<path class="st2" d="M368.9,524.9c-4.1-1.2-8.3-2.4-12.4-3.8c-2.7-0.9-3.9-0.5-4.7,2.5c-3.4,11.5-7.1,23-10.6,34.5
			c-0.9,2.8-2.1,2.9-4.5,1.2c3.6-11.8,7.1-23.6,10.7-35.4c1.4-4.4,1-5.2-3.5-6.6c-3.7-1.1-7.3-2.4-11-3.6c0-0.5,0-1,0-1.5
			c1.4-0.2,3-0.8,4.2-0.5c10.1,2.9,20.1,5.9,30.1,9.1c1.1,0.3,1.8,1.7,2.7,2.5C369.7,524,369.3,524.4,368.9,524.9z"/>
		<path class="st2" d="M653.5,350.2c-1.3,4.2-2.3,8.4-4,12.5c-1.1,2.7-0.7,3.5,2,4.4c11.3,3.7,22.5,7.8,33.8,11.6
			c2.2,0.8,4,1.5,2.4,4.8c-6.6-2.1-13.2-4.2-19.8-6.5c-5.6-1.9-11.1-3.8-16.6-5.8c-2.9-1.1-4.7-0.8-5.5,2.7c-0.7,3-1.8,5.9-3,8.7
			c-0.5,1.1-1.8,1.9-3.4,2.4c3.3-12.3,6.6-24.3,11.9-35.6C652,349.6,652.8,349.9,653.5,350.2z"/>
		<path class="st2" d="M226.8,431.1c-3.1-4.6-6.1-9.1-9.5-14.3c4,0.5,19.9,19.8,23.8,27.6c0.4,0.7,0,1.8-0.1,2.7
			c-0.4,0.1-0.8,0.3-1.2,0.4c-2.5-3.1-5.2-6.1-7.4-9.4c-2.1-3.3-4-3-6.8-0.9c-9.1,6.8-18.3,13.4-27.6,19.9c-1.1,0.8-2.8,0.8-4.2,1.2
			c0.7-1.4,1.1-3.3,2.2-4.2c9.6-7.3,19.3-14.4,29-21.6C225.6,432.2,226.1,431.7,226.8,431.1z"/>
		<path class="st2" d="M674.8,414.5c-0.8,1.4-1.3,2.4-1.9,3.5c-13.8-6.9-27.4-13.6-41.2-20.4c0.9-2.2,1.6-3.8,4.3-2.4
			C648.7,401.6,661.5,407.9,674.8,414.5z"/>
		<path class="st2" d="M646.9,321.3c-1.8-1.8-3.5-3.5-5.3-5.3c0.4-0.4,0.8-0.9,1.3-1.3c1.8,1.7,3.6,3.5,5.3,5.2
			C647.8,320.4,647.3,320.9,646.9,321.3z"/>
	</g>
	<path class="st3" d="M309.4,342.3c2-1.8,4.1-3.7,6.1-5.5c4.6-4.1,9.2-8.2,13.8-12.2c10.4-8.9,21-17.7,31.4-26.6
		c19.2-16.3,38.4-32.6,57.4-49c2.3-2,3.7-2.1,6-0.1c11.9,10.4,23.9,20.7,35.9,31c9.1,7.8,18.4,15.5,27.6,23.4
		c14.1,12.1,28.2,24.3,42.3,36.4c0.7,0.6,1.6,1.1,3.1,2.2c-3.3,0.3-6,0.7-8.7,0.8c-2.5,0.1-3.5,1.3-3.6,3.6
		c-0.1,2.8-0.2,5.6-0.3,8.4c-0.2,13.6-0.5,27.1-0.7,40.7c-0.1,6.6,0,13.1-0.1,19.7c-0.1,5.4-1,6.4-6.4,6.4
		c-12.5,0.1-24.9,0.1-37.4,0c-10.5-0.1-21-0.7-31.5-0.7c-15.5,0-31.1,0.5-46.6,0.6c-22.5,0.1-45.1,0.1-67.6,0.1c-2,0-4.1-0.5-5.9,0
		c-4.1,1.3-4.1-1-4-3.9c0-23,0-46,0-69c0-6.2-0.1-6.2-6.4-6.2C312.3,342.3,310.6,342.3,309.4,342.3z M446.1,334.1
		c0-8.7-3.1-15.7-10.3-20.5c-3.6-2.5-8-4.3-12.3-5.2c-3.1-0.6-6.6,0.8-9.9,1.6c-7.2,1.7-16.3,11.2-17.3,17.2
		c-1.7,9.4,0.8,17.4,7.6,24.1c1.1,1.1,2.1,2.8,2.1,4.3c0.1,7.7-0.3,15.4-0.1,23.1c0.1,4.1,0.6,8.3,1.7,12.2c1.7,5.8,8.4,10,14.4,9.5
		c6.7-0.5,12.4-5.1,12.9-11.7c0.7-8.8,0.4-17.6,0.8-26.4c0.2-5.1,0.8-10.2,5.2-14C445.1,344.6,446.1,339.4,446.1,334.1z"/>
	<g>
		<path class="st1" d="M390,71c-4.4,0.5-8.2,1-12.6,1.6c-1.8-15.7-3.5-30.9-5.3-46.5c8.2-0.9,15.8-2.2,23.5-2.4
			c6.2-0.1,10.9,3.5,13.5,9.2c2.7,5.9,2,11.7-1.6,17.1c-0.4,0.6-0.9,1.1-1.7,2c3.6,4.9,7.2,9.9,11.3,15.6c-4.4,0.7-8.2,1.6-12,1.8
			c-1.1,0.1-2.6-1.5-3.5-2.6c-2-2.5-3.5-5.5-5.8-7.7c-1.5-1.4-4-1.5-6.1-2.2c-0.3,1.6-0.9,3.3-0.8,4.9C389.1,64.6,389.6,67.5,390,71
			z M391.3,34.9c-1.8,0.7-6.1-1.3-5,3.5c0.6,2.6-2.1,7.5,4.1,7.1c5.5-0.4,7.7-1.7,7.7-5.1C398.1,36.3,396.2,34.7,391.3,34.9z"/>
		<path class="st1" d="M312.8,44c4.1-1.5,7.8-2.7,12-4.2c2.6,7.4,5,14.6,7.7,21.8c0.9,2.5,2.1,4.9,3.7,7c2.3,3,5.5,3.6,9.1,2.1
			c3.3-1.3,5.1-4.1,4.4-7.3c-1.5-6.6-3.6-13.1-5.6-19.7c-0.9-2.9-1.9-5.8-3-9.2c3.7-1.5,7.2-2.9,11.2-4.5c4.1,10.1,8.7,20.1,9.8,31
			c1.1,10.8-4.8,18.2-15.7,21.1c-9.9,2.7-19.3-1.3-23.4-10.7C319.2,62.6,316.3,53.4,312.8,44z"/>
		<path class="st1" d="M258.2,139.2c-11-11.6-21.4-22.7-32.1-34.1c8.3-7.6,16-14.8,24.1-22.2c2.5,2.7,4.7,5.1,6.5,7.2
			c-4.5,5-8.7,9.7-13,14.5c3,5.3,3.6,5.4,8,1.3c2.9-2.6,5.7-5.3,8.6-7.9c2.3,2.5,4.3,4.6,6.4,6.9c-4,4-7.9,7.9-12,12
			c0.6,0.8,1.3,1.5,1.8,2.3c2.2,3.3,4.2,3,6.9,0.2c3.6-3.7,7.6-7,11.7-10.7c2.5,2.8,4.7,5.3,7.2,8
			C274.3,124.2,266.4,131.5,258.2,139.2z"/>
		<path class="st1" d="M546.1,94.1c5,3.3,9,6.3,13.4,8.7c3.4,1.9,3.5,3.7,1.1,6.5c-1.3,1.4-2.3,3.1-3.6,5
			c-9.2-5.9-18.1-11.7-27.5-17.8c2.7-4.3,5.3-8.5,8.1-12.7c5.1-7.9,10.3-15.7,15.4-23.5c1.4-2.2,2.4-2.8,4.9-1.1
			c6.8,4.8,13.6,9.3,20.8,13.5c3.1,1.8,3.2,3.4,1.4,5.9c-1.1,1.6-2.3,3.2-3.8,5.4c-3.9-2.4-7.9-4.9-11.9-7.4
			c-5.2-3.3-5.2-3.3-8.2,2.5c4.5,3.1,9,6.3,13.9,9.7c-2.1,2.8-4,5.3-6,8c-4.6-3-8.9-5.8-13.6-8.9C549,90,547.6,91.9,546.1,94.1z"/>
		<path class="st1" d="M644.3,148.9c-3.4,0.7-6.7,1.4-10.2,2.2c-1-3-1.9-5.7-2.8-8.4c-0.1-0.4-0.1-0.9-0.3-1.2
			c-1.5-1.9-2.1-5.9-5.4-4.6c-3.1,1.2-0.9,4-0.3,6.2c0.9,3.2,1.8,6.4,2.4,9.7c1.3,7.2-0.7,11.4-6.9,15.1c-4.7,2.8-11.4,2-16-2.2
			c-7-6.4-10.5-14.6-11.9-24.2c4-0.7,7.6-1.3,11.6-2c2.1,5.7,1.5,12.7,7.4,16.6c0.6,0.4,2.2-0.5,3.5-0.9c-1.2-4-2.3-7.4-3.4-10.9
			c-2.8-8.7-1.2-14.3,5.1-17.9c6.6-3.7,14.1-2.3,19.8,3.8C641.6,135.4,643.6,141.6,644.3,148.9z"/>
		<path class="st1" d="M217.9,121c0.6,1.1,0.9,1.8,1.3,2.5c3.7,7.1,3.7,7.1-2.8,11.9c-1.6,1.2-3,2.6-4.1,4.1
			c-0.6,0.9-0.5,2.3-0.7,3.4c1.3,0.2,2.8,0.8,3.9,0.4c2-0.9,3.7-2.5,5.6-3.7c2-1.3,3.9-2.7,6-3.8c6.7-3.4,10.5-2.8,15.7,2
			c4.3,4,5.6,10,3.2,15.7c-3.3,7.8-9.3,13.2-16.4,17.5c-1.8,1.1-3.4,1-4.5-1.2c-1.2-2.5-2.6-4.9-4.2-7.6c1.8-1.1,3.6-2.1,5.2-3.3
			c2.1-1.6,4.5-3,6.1-5c1.1-1.3,1.3-3.5,1.9-5.3c-1.8,0.4-3.9,0.4-5.5,1.3c-2.7,1.5-5,3.6-7.6,5.2c-5.9,3.6-10.2,3.6-14.8,0.1
			c-5.5-4.2-7.5-9.5-6-15.8c1.7-7.3,6.7-11.8,12.5-15.7C214.4,122.8,216,122,217.9,121z"/>
		<path class="st1" d="M306.2,82.4c3.4-0.2,6.8-0.3,10.6-0.5c1.6,4.6-0.4,8.5-2.8,12c-5.7,8.4-15.6,12.6-24.3,10.5
			c-10.6-2.6-18.7-10.6-19.6-21c-1.5-17,14.2-28.6,29.6-25.4c2.7,0.6,3.2,2.4,2.2,4.8c-0.9,2.2-1.9,4.3-3,6.9
			c-4.5-1.4-9.3-1.6-13,2.1c-1.7,1.7-3,4.2-3.4,6.5c-1.1,5.9,4.5,13.6,10.1,14.8C298.9,94.4,303.1,91.1,306.2,82.4z"/>
		<path class="st1" d="M492.6,41.5c-3.3,1.5-6.3,2.9-9.4,4.3c-4.7-7.2-11.1-9.3-16.8-5.7c-5.3,3.4-7.4,12.4-4.2,18.1
			c3,5.3,9.3,6.5,15.9,3.2c1-0.5,2.8,0.3,4.1,0.6c0.6,0.2,1,0.9,1.6,1.4c5.1,4.6,4.9,6.3-1.5,9.1c-8.8,3.8-17.4,3.2-25-2.8
			c-7.8-6.2-10.6-14.8-8.5-24.4c2-9.2,8.1-15.1,17.1-17.2C479.2,24.9,491.2,32.9,492.6,41.5z"/>
		<path class="st1" d="M611.3,115.7c-4.9-4.4-9.4-8.5-13.9-12.6c-5.9,3.7-6.1,4.9-1.4,9.5c2.3,2.2,4.7,4.4,7.2,6.7
			c-2.6,2.4-4.8,4.5-7.3,6.9c-3.9-3.5-7.7-6.8-11.6-10.2c-3.3,3.5-6.5,6.8-9.7,10.1c-1.5,1.6-2.8,2-4.5,0.1
			c-2.1-2.3-4.4-4.2-6.8-6.5c10.2-10.7,20.2-21.3,30.4-31.7c0.7-0.7,3-0.8,3.7-0.2c6.7,6,13.2,12.1,19.7,18.4
			c0.6,0.5,0.3,2.6-0.3,3.4C615.4,111.6,613.5,113.3,611.3,115.7z"/>
		<path class="st1" d="M510.3,37.3c3.5,1.2,6.8,2.2,9.9,3.6c0.7,0.3,1.2,2.6,0.8,3.5c-3.5,8.5-7,17-10.8,25.4
			c-1.5,3.4-1.6,5.5,2.5,6.9c4.2,1.4,8.3,3.4,12.4,5.1c2.3,0.9,3,2.2,1.6,4.5c-1.1,2-1.9,4.3-3,6.8c-10.5-4.4-21-8.8-31.3-13.1
			C498.5,65.6,504.3,51.6,510.3,37.3z"/>
		<path class="st1" d="M425.4,22.8c4.5,0,8.3,0,12.8,0c-0.7,15.7-1.4,31-2,46.2c-4.2,0-8,0-12.3,0C424.3,53.3,424.8,38.1,425.4,22.8
			z"/>
		<path class="st1" d="M427.8,159.6c8.1,6.9,15.7,13.3,23.3,19.7c30.4,25.9,60.8,51.8,91.3,77.6c3,2.5,4.4,5.1,4.3,9.2
			c-0.3,22.6-0.1,45.1-0.1,68.6c-1.9-1.3-3.5-2.2-4.9-3.4c-23.6-20.1-47.2-40.1-70.8-60.2c-13.1-11.2-26.2-22.4-39.4-33.5
			c-2.6-2.1-3.8-4.2-3.8-7.7C427.9,206.7,427.8,183.6,427.8,159.6z"/>
		<path class="st1" d="M414.3,160c0,3.9,0,6.5,0,9.1c0,20.3,0.1,40.6,0,61c0,2.2-1.2,5-2.8,6.4c-24.8,21.3-49.7,42.4-74.5,63.6
			c-11.3,9.6-22.5,19.4-33.8,29.1c-0.8,0.7-1.7,1.5-2.7,2.1c-1,0.5-2.6,1.4-3.2,1c-0.8-0.5-1.2-2.1-1.2-3.2c-0.1-5.7,0-11.5,0-17.2
			c0-15.7-0.1-31.4,0.1-47.1c0-2.2,1.2-5,2.9-6.4c23.9-20.6,48-40.9,72-61.4c13.2-11.3,26.4-22.6,39.6-33.9
			C411.4,162.3,412.3,161.6,414.3,160z"/>
	</g>
</g>
</svg>
