<svg width="150" height="150" viewBox="0 0 150 150" fill="none" xmlns="http://www.w3.org/2000/svg">
<g clip-path="url(#clip0_119_973)">
<path d="M26.9067 37.9072H123.102V106.963H26.9067V37.9072Z" fill="#0090A7"/>
<path d="M26.9067 106.963H123.102V111.893H26.9067V106.963Z" fill="#EC001A"/>
<path d="M108.858 84.8361H114.532L115.567 82.2549H106.602C104.486 82.2549 103.556 82.7896 102.777 85.0107L98.0446 98.0568H97.94L96.2891 82.3016H92.801C92.2976 82.2553 91.796 82.4099 91.4056 82.7317C89.0102 84.7431 83.8128 92.185 80.8127 98.0568H80.6964L79.0684 82.3016H75.5803C75.0769 82.2553 74.5753 82.4099 74.1849 82.7317C71.7779 84.7431 66.5921 92.185 63.5803 98.0568H63.4874L63.883 82.3016H59.5808C58.9994 82.2068 58.4152 82.4557 58.0808 82.9409C55.636 86.1134 53.5129 89.5216 51.7439 93.1148L52.0231 82.3011H48.8372C48.2884 82.374 47.7696 82.5953 47.3371 82.9405C43.849 85.4521 39.5235 91.9749 35.9536 99.5681H39.6743C41.5078 95.5013 43.8144 91.6648 46.5464 88.1383H46.6511L46.4418 97.4403C46.4418 99.3355 47.4072 99.5914 48.0927 99.5914H51.6738C53.5283 95.676 55.6822 91.909 58.1153 88.3242H58.1849L58.0453 97.7542C58.0822 98.7872 58.9494 99.5951 59.9829 99.5582C60.039 99.5564 60.0945 99.5517 60.1501 99.5447H66.1036C66.8476 98.1726 67.6037 96.7426 68.4294 95.3822H74.7663L74.9059 97.2078C74.8933 98.4921 75.924 99.5433 77.2083 99.5559C77.3251 99.5569 77.4413 99.5494 77.5567 99.533H83.3706C84.1262 98.1609 84.8823 96.7309 85.6963 95.3705H92.0332L92.1845 97.1961C92.1729 98.4804 93.2045 99.5312 94.4888 99.5428C94.6009 99.5438 94.713 99.5368 94.8241 99.5218H103.394L106.208 91.8128H110.301C111.134 91.9366 111.936 91.4471 112.207 90.6499L112.626 89.4871H107.103L108.859 84.8361H108.858ZM73.9401 87.1618H74.0447L74.5561 93.2082H69.7193C70.9624 91.0833 72.3738 89.0612 73.9401 87.1618ZM91.172 87.1618H91.2767L91.7768 93.2082H86.94C88.1864 91.0824 89.6015 89.0607 91.1725 87.1618H91.172Z" fill="white"/>
<path d="M107.998 63.6389C108.198 63.0289 108.855 62.6969 109.465 62.8972C109.816 63.0126 110.092 63.2877 110.207 63.6389C110.207 64.2488 109.712 64.7433 109.103 64.7433C108.493 64.7433 107.998 64.2488 107.998 63.6389H107.998Z" fill="#EC001A"/>
<path d="M112.939 60.4178C107.614 51.0462 92.8931 51.6272 92.7539 51.6272H91.5911C83.919 51.6211 76.3211 53.1263 69.2313 56.0573C68.7718 56.2913 68.2422 56.3492 67.743 56.2203C67.4707 56.1194 67.2096 55.991 66.964 55.8364C63.1097 53.4682 58.6964 52.1638 54.1739 52.0573C53.1044 52.0676 52.0368 52.1414 50.9762 52.2782C50.2551 52.4524 50.2322 52.6621 50.9762 52.6271C52.3133 52.6271 54.4643 52.6271 59.325 54.4059L61.4411 55.3712C62.3289 55.8481 63.1569 56.43 63.906 57.1039C64.0568 57.2458 64.1792 57.4158 64.2665 57.604C64.2665 57.7554 64.4295 58.2667 63.6967 58.6623C58.547 61.4373 53.7526 64.8264 49.4182 68.755C43.9537 73.4569 39.2163 78.9424 35.3606 85.0337C34.5233 86.3245 34.0931 87.0918 34.0931 87.0918C34.0931 87.0918 32.0934 90.452 32.9303 90.2428C33.7672 90.0336 35.1976 87.5686 35.1976 87.5686C40.6416 79.8881 47.3349 73.1752 54.9995 67.7088C60.6495 63.8331 66.7776 60.7064 73.2313 58.4068C79.4945 56.1474 86.0957 54.9677 92.7539 54.9187C92.8936 54.9187 105.137 54.4652 111.614 60.5696C111.614 60.5696 113.381 62.3368 113.707 62.8136C113.707 62.8136 113.847 63.0228 113.986 62.9416C114.126 62.8603 113.01 60.5112 112.94 60.4183L112.939 60.4178Z" fill="white"/>
</g>
<defs>
<clipPath id="clip0_119_973">
<rect width="99.9972" height="77.8" fill="white" transform="translate(25 36)"/>
</clipPath>
</defs>
</svg>
