<svg width="150" height="150" viewBox="0 0 150 150" fill="none" xmlns="http://www.w3.org/2000/svg">
<g clip-path="url(#clip0_119_969)">
<path fill-rule="evenodd" clip-rule="evenodd" d="M25 25H125V125H25V25Z" fill="#0D5933"/>
<path fill-rule="evenodd" clip-rule="evenodd" d="M113.241 105.113H36.7588L75 35.3516L113.241 105.113Z" fill="#CC2229"/>
<path fill-rule="evenodd" clip-rule="evenodd" d="M72.5368 87.0101V83.1041H75.194L72.5368 76.7105V71.6025H77.2812L85.8828 90.4685H77.9968L76.5044 87.0101H72.5372H72.5368ZM87.242 90.4685V71.6025H92.2648V90.4685H87.242ZM98.4272 90.4685V71.6025H117.075V75.5097H104.627V79.4281H115.595V83.3341H104.627V90.4685H98.4272ZM32.9252 90.4685V71.6025H41.4908L44.7056 80.7865C44.9828 81.5689 45.242 82.3581 45.4824 83.1529C45.7024 83.8921 45.9048 84.6365 46.0888 85.3853C46.2952 84.6213 46.538 83.8077 46.8048 82.9709C47.0828 82.0569 47.386 81.1505 47.7148 80.2533L50.7356 71.6029H59.3008V90.4689H52.4216V82.0973C52.4216 81.5145 52.446 80.6897 52.4824 79.6221C52.5188 78.5549 52.5796 77.3301 52.652 75.9349L47.9688 90.4693H41.7936L37.22 75.9345C37.2928 77.6085 37.3532 79.1249 37.402 80.4601C37.4384 81.7945 37.462 82.8373 37.462 83.5901V90.4693H32.9248V90.4689L32.9252 90.4685ZM72.5368 71.6025V76.7105L72.4884 76.5893L69.88 83.1041H72.5368V87.0101H68.3876L67.0044 90.4685H61.7272L70.4864 71.6025H72.5368Z" fill="white"/>
</g>
<defs>
<clipPath id="clip0_119_969">
<rect width="100" height="100" fill="white" transform="translate(25 25)"/>
</clipPath>
</defs>
</svg>
