<svg width="150" height="150" viewBox="0 0 150 150" fill="none" xmlns="http://www.w3.org/2000/svg">
<g clip-path="url(#clip0_119_1073)">
<path d="M35.805 76.14H32.635L34.32 70.57L35.805 76.14ZM30.995 82.38L32.075 78.68H36.345L37.355 82.38H41.31L37.375 68.34C37.15 67.515 36.655 67.125 35.8 67.125H30.2V68.43H30.675C31.255 68.43 31.575 68.655 31.575 69.115C31.575 69.41 31.505 69.665 31.28 70.355L27.345 82.385H30.99L30.995 82.38Z" fill="#173156"/>
<path d="M46.1749 82.38V68.29C46.1749 67.555 45.7549 67.125 45.0649 67.125H41.6499V68.43H41.8749C42.4599 68.43 42.7049 68.685 42.7049 69.28V82.38H46.1699H46.1749Z" fill="#173156"/>
<path d="M52.2999 82.38V68.29C52.2999 67.555 51.8749 67.125 51.1899 67.125H47.7749V68.43H48.0049C48.5899 68.43 48.8349 68.685 48.8349 69.28V82.38H52.2999Z" fill="#173156"/>
<path d="M58.425 68.5145C58.425 67.5045 57.705 66.8945 56.455 66.8945C55.205 66.8945 54.4851 67.4995 54.4851 68.5145C54.4851 69.5295 55.23 70.1345 56.455 70.1345C57.68 70.1345 58.425 69.5295 58.425 68.5145ZM58.425 82.3795V71.9995C58.425 71.2645 58.0001 70.8195 57.3101 70.8195H53.925V72.2045H54.125C54.71 72.2045 54.955 72.4795 54.955 73.0795V82.3745H58.42L58.425 82.3795Z" fill="#173156"/>
<path d="M66.2451 76.9152V79.1202C65.6501 79.7352 64.9251 80.1002 64.3101 80.1002C63.6951 80.1002 63.4451 79.7852 63.4451 78.9402C63.4451 78.0952 63.6251 77.7102 64.2651 77.4652C64.7451 77.2602 65.3601 77.0752 66.2451 76.9202V76.9152ZM61.5301 74.2552C62.6951 73.6852 63.9651 73.3652 64.9651 73.3652C65.9051 73.3652 66.2401 73.7102 66.2401 74.7102V74.9602C64.8201 75.1852 64.3751 75.2802 63.5751 75.4602C63.1101 75.5702 62.6851 75.7102 62.2701 75.8952C60.8701 76.4602 60.2051 77.5802 60.2051 79.2852C60.2051 81.4502 61.1151 82.4952 63.0051 82.4952C63.6901 82.4952 64.3151 82.3602 64.8701 82.1302C65.3551 81.9002 65.6451 81.7152 66.3601 81.1452V81.3052C66.3601 82.0152 66.7251 82.3802 67.4301 82.3802H70.6751V81.0752H70.5151C69.9101 81.0752 69.6851 80.8252 69.6851 80.1452V74.7302C69.6851 71.8252 68.6951 70.8252 65.8451 70.8252C64.9251 70.8252 64.0251 70.9402 63.1501 71.1452C62.2751 71.3502 61.8251 71.5302 60.7701 72.0602L61.5301 74.2552Z" fill="#173156"/>
<path d="M76.0199 82.3796V74.6196C76.6449 73.9546 77.2949 73.6546 78.0399 73.6546C78.8349 73.6546 79.0249 73.9546 79.0249 75.1046V82.3796H82.4949V74.5196C82.4949 72.6946 82.3549 72.1196 81.7799 71.4946C81.2999 70.9646 80.5649 70.6846 79.6149 70.6846C78.2149 70.6846 77.2249 71.1396 75.8899 72.4396V71.9646C75.8899 71.2096 75.5349 70.8196 74.8199 70.8196H71.5249V72.2046H71.7249C72.3099 72.2046 72.5549 72.4796 72.5549 73.0796V82.3746H76.0199V82.3796Z" fill="#173156"/>
<path d="M93.1749 80.0447H88.2749L92.9499 73.3897V71.0547H85.5449C84.7049 71.0547 84.3199 71.4397 84.3199 72.2847V74.3497H85.7049V74.1447C85.7049 73.6197 85.9749 73.3697 86.5349 73.3697H89.0549L84.3149 80.0947V82.3847H93.1649V80.0497L93.1749 80.0447Z" fill="#173156"/>
<path d="M111.95 81.6648V68.9398C111.95 67.9248 111.62 67.5848 110.64 67.5848H107.775V68.9698H108.245C108.35 68.9698 108.455 69.0398 108.545 69.1298C108.67 69.2898 108.715 69.4498 108.715 69.7898V81.6648H111.95ZM113.57 81.6648H116.805V72.0348C116.805 71.0648 116.45 70.6798 115.475 70.6798H113.57V81.6698V81.6648ZM107.33 81.6648V70.6748H105.415C104.47 70.6748 104.095 71.0598 104.095 72.0298V81.6598H107.33V81.6648ZM120.04 75.2048C120.04 80.9648 115.93 85.1548 110.335 85.1548C104.74 85.1548 100.63 80.9648 100.63 75.2048C100.63 69.4448 104.715 65.2798 110.335 65.2798C115.955 65.2798 120.04 69.4698 120.04 75.2048ZM122.35 75.2048C122.35 68.1948 117.22 62.9648 110.345 62.9648C103.47 62.9648 98.3149 68.1948 98.3149 75.2048C98.3149 82.2148 103.47 87.4648 110.345 87.4648C117.22 87.4648 122.35 82.2348 122.35 75.2048Z" fill="#173156"/>
</g>
<defs>
<clipPath id="clip0_119_1073">
<rect width="100" height="100" fill="white" transform="translate(25 25)"/>
</clipPath>
</defs>
</svg>
