<svg width="19" height="19" viewBox="0 0 19 19" fill="none" xmlns="http://www.w3.org/2000/svg">
<g clip-path="url(#clip0_161_754)">
<path d="M0.72998 18.77V16.77H2.72998V2.77002C2.72998 2.22002 2.92598 1.74902 3.31798 1.35702C3.70931 0.965687 4.17998 0.77002 4.72998 0.77002H14.73C15.28 0.77002 15.751 0.965687 16.143 1.35702C16.5343 1.74902 16.73 2.22002 16.73 2.77002V16.77H18.73V18.77H0.72998ZM4.72998 16.77H14.73V2.77002H4.72998V16.77ZM7.72998 10.77C8.01331 10.77 8.25098 10.674 8.44298 10.482C8.63431 10.2907 8.72998 10.0533 8.72998 9.77002C8.72998 9.48669 8.63431 9.24902 8.44298 9.05702C8.25098 8.86569 8.01331 8.77002 7.72998 8.77002C7.44665 8.77002 7.20931 8.86569 7.01798 9.05702C6.82598 9.24902 6.72998 9.48669 6.72998 9.77002C6.72998 10.0533 6.82598 10.2907 7.01798 10.482C7.20931 10.674 7.44665 10.77 7.72998 10.77Z" fill="#3C8490"/>
</g>
<defs>
<clipPath id="clip0_161_754">
<rect width="18" height="18" fill="white" transform="translate(0.72998 0.77002)"/>
</clipPath>
</defs>
</svg>
