<svg width="18" height="12" viewBox="0 0 18 12" fill="none" xmlns="http://www.w3.org/2000/svg">
<g clip-path="url(#clip0_161_760)">
<path d="M4.69565 7.56519C4.26522 7.56519 3.89687 7.4118 3.59061 7.10502C3.28383 6.79876 3.13043 6.43041 3.13043 5.99997C3.13043 5.56954 3.28383 5.20093 3.59061 4.89415C3.89687 4.58789 4.26522 4.43476 4.69565 4.43476C5.12609 4.43476 5.49444 4.58789 5.8007 4.89415C6.10748 5.20093 6.26087 5.56954 6.26087 5.99997C6.26087 6.43041 6.10748 6.79876 5.8007 7.10502C5.49444 7.4118 5.12609 7.56519 4.69565 7.56519ZM4.69565 10.6956C3.3913 10.6956 2.28261 10.2391 1.36957 9.32606C0.456521 8.41301 0 7.30432 0 5.99997C0 4.69562 0.456521 3.58693 1.36957 2.67389C2.28261 1.76084 3.3913 1.30432 4.69565 1.30432C5.56957 1.30432 6.36208 1.51954 7.07322 1.94997C7.78383 2.38041 8.34785 2.9478 8.76522 3.65215H15.6522L18 5.99997L14.4783 9.52171L12.913 8.3478L11.3478 9.52171L9.68478 8.3478H8.76522C8.34785 9.05215 7.78383 9.61954 7.07322 10.05C6.36208 10.4804 5.56957 10.6956 4.69565 10.6956ZM4.69565 9.13041C5.42608 9.13041 6.06861 8.90867 6.62322 8.46519C7.1773 8.02171 7.54565 7.46085 7.72826 6.78258H10.1739L11.3087 7.58476L12.913 6.39128L14.3022 7.46736L15.7696 5.99997L14.987 5.21736H7.72826C7.54565 4.5391 7.1773 3.97824 6.62322 3.53476C6.06861 3.09128 5.42608 2.86954 4.69565 2.86954C3.83478 2.86954 3.09782 3.17606 2.48478 3.7891C1.87174 4.40214 1.56522 5.1391 1.56522 5.99997C1.56522 6.86084 1.87174 7.5978 2.48478 8.21084C3.09782 8.82388 3.83478 9.13041 4.69565 9.13041Z" fill="#3C8490"/>
</g>
<defs>
<clipPath id="clip0_161_760">
<rect width="18" height="12" fill="white"/>
</clipPath>
</defs>
</svg>
