<svg width="18" height="18" viewBox="0 0 18 18" fill="none" xmlns="http://www.w3.org/2000/svg">
<mask id="mask0_161_849" style="mask-type:luminance" maskUnits="userSpaceOnUse" x="1" y="1" width="16" height="14">
<path d="M1.875 12.625C1.875 12.5587 1.95402 12.4951 2.09467 12.4482C2.23532 12.4013 2.42609 12.375 2.625 12.375H15.375C15.5739 12.375 15.7647 12.4013 15.9053 12.4482C16.046 12.4951 16.125 12.5587 16.125 12.625V13.5H1.875V12.625Z" fill="white" stroke="white" stroke-width="1.5" stroke-linecap="round" stroke-linejoin="round"/>
<path d="M15.75 4.875H12.75L10.5 4.5L12.75 4.125H15.75" stroke="white" stroke-width="1.5" stroke-linecap="round" stroke-linejoin="round"/>
<path d="M16.125 1.875L16.125 4.875L15.9375 7.125L15.75 4.875L15.75 1.875" stroke="white" stroke-width="1.5" stroke-linecap="round" stroke-linejoin="round"/>
<path d="M3.375 6C3.99632 6 4.5 5.49632 4.5 4.875C4.5 4.25368 3.99632 3.75 3.375 3.75C2.75368 3.75 2.25 4.25368 2.25 4.875C2.25 5.49632 2.75368 6 3.375 6Z" fill="white" stroke="white" stroke-width="1.5"/>
<path d="M4.5 4.5H10.5M3.75 6L6.75 12.375" stroke="white" stroke-width="1.5" stroke-linecap="round" stroke-linejoin="round"/>
</mask>
<g mask="url(#mask0_161_849)">
<path d="M0 0H18V18H0V0Z" fill="#3C8490"/>
</g>
</svg>
