<svg width="18" height="19" viewBox="0 0 18 19" fill="none" xmlns="http://www.w3.org/2000/svg">
<path d="M0.99997 13.6782L7.66664 2.13118C8.03701 1.48968 8.57915 1.07565 9.29308 0.889103C10.007 0.702551 10.6887 0.796779 11.3382 1.17178L14.4559 2.97178C15.1054 3.34678 15.5279 3.89005 15.7233 4.6016C15.9187 5.31315 15.8312 5.98968 15.4609 6.63118L8.7942 18.1782L0.99997 13.6782ZM11.0856 8.80938L11.865 9.25938L14.0872 5.41038L13.3078 4.96038L11.0856 8.80938ZM3.4477 13.0386L8.12424 15.7386L10.9761 10.799L10.1967 10.349C9.76801 10.1015 9.48814 9.73903 9.35704 9.26171C9.22573 8.78355 9.2823 8.33277 9.52674 7.90938L11.749 4.06038C11.9934 3.63699 12.3555 3.36261 12.8353 3.23725C13.3142 3.11211 13.768 3.17328 14.1967 3.42078L14.9761 3.87078L13.902 5.73118C14.0279 5.51307 14.059 5.28706 13.9952 5.05316C13.9306 4.81947 13.7879 4.63888 13.567 4.51138L10.4493 2.71138C10.2285 2.58388 10.0007 2.55057 9.76607 2.61146C9.5316 2.67316 9.35141 2.81307 9.22548 3.03118L3.4477 13.0386Z" fill="#3C8490"/>
</svg>
