<svg width="19" height="20" viewBox="0 0 19 20" fill="none" xmlns="http://www.w3.org/2000/svg">
<g clip-path="url(#clip0_161_772)">
<path d="M1.5 9.10002V4.37502C1.5 3.95836 1.621 3.58336 1.863 3.25002C2.10433 2.91669 2.41667 2.67502 2.8 2.52502L8.8 0.275024C9.03333 0.191691 9.26667 0.150024 9.5 0.150024C9.73333 0.150024 9.96667 0.191691 10.2 0.275024L16.2 2.52502C16.5833 2.67502 16.896 2.91669 17.138 3.25002C17.3793 3.58336 17.5 3.95836 17.5 4.37502V9.10002C17.5 11.4667 16.8417 13.6333 15.525 15.6C14.2083 17.5667 12.5167 18.9333 10.45 19.7C10.3167 19.75 10.1707 19.7873 10.012 19.812C9.854 19.8373 9.68333 19.85 9.5 19.85C9.31667 19.85 9.146 19.8373 8.988 19.812C8.82933 19.7873 8.68333 19.75 8.55 19.7C6.48333 18.9333 4.79167 17.5667 3.475 15.6C2.15833 13.6333 1.5 11.4667 1.5 9.10002ZM3.9 11.875C4.21667 12.925 4.68333 13.879 5.3 14.737C5.91667 15.5957 6.65 16.3167 7.5 16.9V14C7.5 13.7167 7.596 13.479 7.788 13.287C7.97933 13.0957 8.21667 13 8.5 13H10.5C10.7833 13 11.021 13.0957 11.213 13.287C11.4043 13.479 11.5 13.7167 11.5 14V16.9C12.35 16.3167 13.0833 15.5957 13.7 14.737C14.3167 13.879 14.7833 12.925 15.1 11.875L9.5 7.52502L3.9 11.875ZM3.5 9.10002C3.5 9.18336 3.50433 9.27502 3.513 9.37502C3.521 9.47502 3.525 9.56669 3.525 9.65002L8.275 5.95002C8.64167 5.66669 9.05 5.52502 9.5 5.52502C9.95 5.52502 10.3583 5.66669 10.725 5.95002L15.475 9.65002C15.475 9.56669 15.4793 9.47502 15.488 9.37502C15.496 9.27502 15.5 9.18336 15.5 9.10002V4.37502L9.5 2.12502L3.5 4.37502V9.10002Z" fill="#3C8490"/>
</g>
<defs>
<clipPath id="clip0_161_772">
<rect width="18" height="20" fill="white" transform="translate(0.5)"/>
</clipPath>
</defs>
</svg>
