<svg width="18" height="18" viewBox="0 0 18 18" fill="none" xmlns="http://www.w3.org/2000/svg">
<g clip-path="url(#clip0_161_769)">
<path d="M0 16.7143V3.8572C0 3.14291 0.25 2.53576 0.75 2.03577C1.25 1.53577 1.85715 1.28577 2.57143 1.28577H6C6.71428 1.28577 7.32143 1.53577 7.82143 2.03577C8.32143 2.53576 8.57143 3.14291 8.57143 3.8572V16.7143H0ZM6 11.5715H6.85714V7.28577H6V11.5715ZM1.71429 15.0001H6.85714V13.2858H6C5.52857 13.2858 5.12514 13.118 4.78971 12.7826C4.45371 12.4466 4.28571 12.0429 4.28571 11.5715V7.28577C4.28571 6.81434 4.45371 6.41062 4.78971 6.07462C5.12514 5.7392 5.52857 5.57148 6 5.57148H6.85714V3.8572C6.85714 3.61434 6.77514 3.41062 6.61114 3.24605C6.44657 3.08206 6.24285 3.00005 6 3.00005H2.57143C2.32857 3.00005 2.12486 3.08206 1.96029 3.24605C1.79629 3.41062 1.71429 3.61434 1.71429 3.8572V15.0001ZM12.1714 10.3501C11.8 10.3501 11.4357 10.3001 11.0786 10.2001C10.7214 10.1 10.3714 9.97145 10.0286 9.81434L10.5643 8.18577C10.85 8.31434 11.132 8.42148 11.4103 8.5072C11.6891 8.59291 11.95 8.63577 12.1929 8.63577C12.3643 8.63577 12.5357 8.6072 12.7071 8.55005C12.8786 8.49291 13.0571 8.40719 13.2429 8.29291C13.5857 8.05006 13.9286 7.88577 14.2714 7.80005C14.6143 7.71434 14.9428 7.67148 15.2571 7.67148C15.6143 7.67148 15.982 7.71777 16.3603 7.81034C16.7391 7.90348 17.0929 8.02863 17.4214 8.18577L16.8857 9.81434C16.5572 9.70006 16.2537 9.60005 15.9754 9.51434C15.6966 9.42862 15.4571 9.38577 15.2571 9.38577C15.0857 9.38577 14.8965 9.41776 14.6897 9.48177C14.4823 9.54634 14.2643 9.6572 14.0357 9.81434C13.7357 10.0143 13.432 10.1538 13.1246 10.2326C12.8177 10.3109 12.5 10.3501 12.1714 10.3501ZM12.1929 7.0072C11.8215 7.0072 11.45 6.9572 11.0786 6.8572C10.7072 6.75719 10.3571 6.62862 10.0286 6.47148L10.5643 4.84291C10.9357 5.00005 11.25 5.11434 11.5071 5.18577C11.7643 5.25719 11.9929 5.29291 12.1929 5.29291C12.3643 5.29291 12.5357 5.26805 12.7071 5.21834C12.8786 5.16805 13.0571 5.07862 13.2429 4.95005C13.6 4.7072 13.9466 4.54291 14.2826 4.4572C14.618 4.37148 14.9428 4.32862 15.2571 4.32862C15.6143 4.32862 15.9714 4.37519 16.3286 4.46834C16.6857 4.56091 17.05 4.68577 17.4214 4.84291L16.8857 6.47148C16.5143 6.34291 16.2 6.23948 15.9429 6.1612C15.6857 6.08234 15.4571 6.04291 15.2571 6.04291C15.0714 6.04291 14.8823 6.07148 14.6897 6.12862C14.4966 6.18577 14.2785 6.30005 14.0357 6.47148C13.7786 6.6572 13.4895 6.79291 13.1683 6.87862C12.8466 6.96434 12.5214 7.0072 12.1929 7.0072ZM12.1929 13.6929C11.8215 13.6929 11.4537 13.6429 11.0897 13.5429C10.7252 13.4429 10.3714 13.3143 10.0286 13.1572L10.5643 11.5286C10.8786 11.6715 11.1714 11.7821 11.4429 11.8603C11.7143 11.9392 11.9643 11.9786 12.1929 11.9786C12.3643 11.9786 12.5357 11.9535 12.7071 11.9032C12.8786 11.8535 13.0571 11.7643 13.2429 11.6358C13.5714 11.4072 13.9215 11.2464 14.2929 11.1532C14.6643 11.0606 14.9929 11.0143 15.2786 11.0143C15.6357 11.0143 16 11.0643 16.3714 11.1643C16.7428 11.2644 17.0929 11.3857 17.4214 11.5286L16.8857 13.1572C16.5143 13.0286 16.1963 12.9252 15.9317 12.8469C15.6677 12.7681 15.4429 12.7286 15.2571 12.7286C15.0572 12.7286 14.8537 12.7606 14.6469 12.8246C14.4394 12.8892 14.2357 13.0001 14.0357 13.1572C13.7929 13.3286 13.5105 13.4606 13.1889 13.5532C12.8677 13.6464 12.5357 13.6929 12.1929 13.6929Z" fill="#3C8490"/>
</g>
<defs>
<clipPath id="clip0_161_769">
<rect width="18" height="18" fill="white"/>
</clipPath>
</defs>
</svg>
