<svg width="18" height="18" viewBox="0 0 18 18" fill="none" xmlns="http://www.w3.org/2000/svg">
<path d="M15.75 3.75C15.75 2.925 15.075 2.25 14.25 2.25H7.5V6H15.75V3.75ZM2.25 14.25C2.25 15.075 2.925 15.75 3.75 15.75H6V7.5H2.25V14.25ZM2.25 3.75V6H6V2.25H3.75C2.925 2.25 2.25 2.925 2.25 3.75ZM13.5 6.7425L10.5 9.75L11.5575 10.8075L12.75 9.6075V11.25C12.75 12.075 12.075 12.75 11.25 12.75H9.6225L10.815 11.5575L9.75 10.5L6.75 13.5L9.75 16.5L10.8075 15.4425L9.6225 14.25H11.25C12.9075 14.25 14.25 12.9075 14.25 11.25V9.615L15.4425 10.815L16.5 9.75L13.5 6.7425Z" fill="#3C8490"/>
</svg>
