<svg width="18" height="18" viewBox="0 0 18 18" fill="none" xmlns="http://www.w3.org/2000/svg">
<path d="M10.005 6.1275C9.3075 6.1275 8.7375 5.55 8.7375 4.8525C8.7375 4.51634 8.87104 4.19394 9.10874 3.95624C9.34644 3.71854 9.66884 3.585 10.005 3.585C10.71 3.585 11.28 4.155 11.28 4.8525C11.28 5.55 10.71 6.1275 10.005 6.1275ZM7.725 14.9475L3.2775 14.0625L3.5325 12.7875L6.645 13.425L7.6575 8.28L6.5175 8.73V10.875H5.25V7.905L8.55 6.5025L9.0525 6.4425C9.5025 6.4425 9.8775 6.6975 10.125 7.08L10.77 8.0925C11.28 9 12.2925 9.615 13.5 9.615V10.875C12.105 10.875 10.83 10.2525 10.005 9.3L9.63 11.205L10.9575 12.4725V17.25H9.69V13.425L8.355 12.1575L7.725 14.9475ZM15.75 17.25H14.25V2.25H4.5V12.0825L3 11.7675V0.75H15.75V17.25ZM4.5 17.25H3V14.835L4.5 15.15V17.25Z" fill="#3C8490"/>
</svg>
