<svg width="18" height="18" viewBox="0 0 18 18" fill="none" xmlns="http://www.w3.org/2000/svg">
<path d="M5.62634 3H8.65273C9.55093 3 10.2791 3.72814 10.2791 4.62634C10.2791 5.44333 9.67666 6.11962 8.8918 6.23524L9.9593 8.23387L11.2386 10.629H12.3145C13.2454 10.629 14 11.3836 14 12.3145C14 13.2454 13.2454 14 12.3145 14H7.60409C6.67322 14 5.9186 13.2454 5.9186 12.3145C5.9186 11.3836 6.67322 10.629 7.60409 10.629H9.25607L6.88134 6.25269H5.62634C4.72814 6.25269 4 5.52455 4 4.62634C4 3.72814 4.72814 3 5.62634 3Z" fill="#3C8490"/>
<circle cx="5.5" cy="4.5" r="0.5" fill="#D9D9D9"/>
<circle cx="7.5" cy="12.5" r="0.5" fill="#D9D9D9"/>
<circle cx="8.5" cy="4.5" r="0.5" fill="#D9D9D9"/>
<circle cx="12.5" cy="12.5" r="0.5" fill="#D9D9D9"/>
</svg>
