<svg width="18" height="18" viewBox="0 0 18 18" fill="none" xmlns="http://www.w3.org/2000/svg">
<path d="M14.0625 1.6875H3.9375C3.63913 1.6875 3.35298 1.80603 3.142 2.017C2.93103 2.22798 2.8125 2.51413 2.8125 2.8125V15.1875C2.8125 15.4859 2.93103 15.772 3.142 15.983C3.35298 16.194 3.63913 16.3125 3.9375 16.3125H14.0625C14.3609 16.3125 14.647 16.194 14.858 15.983C15.069 15.772 15.1875 15.4859 15.1875 15.1875V2.8125C15.1875 2.51413 15.069 2.22798 14.858 2.017C14.647 1.80603 14.3609 1.6875 14.0625 1.6875ZM6.1875 14.0625C6.02062 14.0625 5.85749 14.013 5.71874 13.9203C5.57998 13.8276 5.47184 13.6958 5.40798 13.5416C5.34412 13.3875 5.32741 13.2178 5.35996 13.0541C5.39252 12.8905 5.47288 12.7401 5.59088 12.6221C5.70888 12.5041 5.85922 12.4238 6.02289 12.3912C6.18656 12.3587 6.35621 12.3754 6.51039 12.4392C6.66456 12.5031 6.79634 12.6112 6.88905 12.75C6.98177 12.8887 7.03125 13.0519 7.03125 13.2188C7.03125 13.4425 6.94236 13.6571 6.78412 13.8154C6.62589 13.9736 6.41128 14.0625 6.1875 14.0625ZM6.1875 11.25C6.02062 11.25 5.85749 11.2005 5.71874 11.1078C5.57998 11.0151 5.47184 10.8833 5.40798 10.7291C5.34412 10.575 5.32741 10.4053 5.35996 10.2416C5.39252 10.078 5.47288 9.92763 5.59088 9.80963C5.70888 9.69163 5.85922 9.61127 6.02289 9.57871C6.18656 9.54616 6.35621 9.56287 6.51039 9.62673C6.66456 9.69059 6.79634 9.79873 6.88905 9.93749C6.98177 10.0762 7.03125 10.2394 7.03125 10.4062C7.03125 10.63 6.94236 10.8446 6.78412 11.0029C6.62589 11.1611 6.41128 11.25 6.1875 11.25ZM9 14.0625C8.83312 14.0625 8.66999 14.013 8.53124 13.9203C8.39248 13.8276 8.28434 13.6958 8.22048 13.5416C8.15662 13.3875 8.13991 13.2178 8.17246 13.0541C8.20502 12.8905 8.28538 12.7401 8.40338 12.6221C8.52138 12.5041 8.67172 12.4238 8.83539 12.3912C8.99906 12.3587 9.16871 12.3754 9.32289 12.4392C9.47706 12.5031 9.60884 12.6112 9.70155 12.75C9.79426 12.8887 9.84375 13.0519 9.84375 13.2188C9.84375 13.4425 9.75485 13.6571 9.59662 13.8154C9.43839 13.9736 9.22378 14.0625 9 14.0625ZM9 11.25C8.83312 11.25 8.66999 11.2005 8.53124 11.1078C8.39248 11.0151 8.28434 10.8833 8.22048 10.7291C8.15662 10.575 8.13991 10.4053 8.17246 10.2416C8.20502 10.078 8.28538 9.92763 8.40338 9.80963C8.52138 9.69163 8.67172 9.61127 8.83539 9.57871C8.99906 9.54616 9.16871 9.56287 9.32289 9.62673C9.47706 9.69059 9.60884 9.79873 9.70155 9.93749C9.79426 10.0762 9.84375 10.2394 9.84375 10.4062C9.84375 10.63 9.75485 10.8446 9.59662 11.0029C9.43839 11.1611 9.22378 11.25 9 11.25ZM11.8125 14.0625C11.6456 14.0625 11.4825 14.013 11.3437 13.9203C11.205 13.8276 11.0968 13.6958 11.033 13.5416C10.9691 13.3875 10.9524 13.2178 10.985 13.0541C11.0175 12.8905 11.0979 12.7401 11.2159 12.6221C11.3339 12.5041 11.4842 12.4238 11.6479 12.3912C11.8116 12.3587 11.9812 12.3754 12.1354 12.4392C12.2896 12.5031 12.4213 12.6112 12.5141 12.75C12.6068 12.8887 12.6563 13.0519 12.6562 13.2188C12.6562 13.4425 12.5674 13.6571 12.4091 13.8154C12.2509 13.9736 12.0363 14.0625 11.8125 14.0625ZM11.8125 11.25C11.6456 11.25 11.4825 11.2005 11.3437 11.1078C11.205 11.0151 11.0968 10.8833 11.033 10.7291C10.9691 10.575 10.9524 10.4053 10.985 10.2416C11.0175 10.078 11.0979 9.92763 11.2159 9.80963C11.3339 9.69163 11.4842 9.61127 11.6479 9.57871C11.8116 9.54616 11.9812 9.56287 12.1354 9.62673C12.2896 9.69059 12.4213 9.79873 12.5141 9.93749C12.6068 10.0762 12.6562 10.2394 12.6562 10.4062C12.6562 10.63 12.5674 10.8446 12.4091 11.0029C12.2509 11.1611 12.0363 11.25 11.8125 11.25ZM12.9375 7.3125C12.9375 7.46168 12.8782 7.60476 12.7727 7.71025C12.6673 7.81574 12.5242 7.875 12.375 7.875H5.625C5.47582 7.875 5.33274 7.81574 5.22725 7.71025C5.12176 7.60476 5.0625 7.46168 5.0625 7.3125V4.5C5.0625 4.35082 5.12176 4.20774 5.22725 4.10225C5.33274 3.99676 5.47582 3.9375 5.625 3.9375H12.375C12.5242 3.9375 12.6673 3.99676 12.7727 4.10225C12.8782 4.20774 12.9375 4.35082 12.9375 4.5V7.3125Z" fill="#3C8490"/>
</svg>
