<svg width="19" height="21" viewBox="0 0 19 21" fill="none" xmlns="http://www.w3.org/2000/svg">
<g clip-path="url(#clip0_161_757)">
<path d="M15.1739 18.3848L9.26522 12.4761C8.84785 13.1805 8.28044 13.7447 7.56304 14.1689C6.84565 14.5925 6.05652 14.8044 5.19565 14.8044C3.8913 14.8044 2.78261 14.3479 1.86957 13.4348C0.956521 12.5218 0.5 11.4131 0.5 10.1087C0.5 9.24788 0.711826 8.45874 1.13548 7.74136C1.55965 7.02396 2.12391 6.45657 2.82826 6.03918L0.832609 4.04353L1.94783 2.94788L16.2696 17.2892L15.1739 18.3848ZM16.1522 7.76092L18.5 10.1087L14.9196 13.6892L12.4348 11.224L13.413 10.5L14.8217 11.5566L16.2891 10.1087L15.5065 9.32614H10.537L8.97174 7.76092H16.1522ZM5.19565 13.2392C5.86087 13.2392 6.45096 13.0597 6.96591 12.7007C7.48139 12.3423 7.85652 11.8761 8.0913 11.3022L4.00217 7.2131C3.42826 7.44788 2.96209 7.82301 2.60365 8.33849C2.24469 8.85344 2.06522 9.44353 2.06522 10.1087C2.06522 10.9696 2.37174 11.7066 2.98478 12.3196C3.59782 12.9326 4.33478 13.2392 5.19565 13.2392ZM5.19565 11.674C4.76522 11.674 4.39687 11.5206 4.09061 11.2138C3.78383 10.9075 3.63043 10.5392 3.63043 10.1087C3.63043 9.67831 3.78383 9.30971 4.09061 9.00292C4.39687 8.69666 4.76522 8.54353 5.19565 8.54353C5.62609 8.54353 5.99444 8.69666 6.3007 9.00292C6.60748 9.30971 6.76087 9.67831 6.76087 10.1087C6.76087 10.5392 6.60748 10.9075 6.3007 11.2138C5.99444 11.5206 5.62609 11.674 5.19565 11.674Z" fill="#3C8490"/>
</g>
<defs>
<clipPath id="clip0_161_757">
<rect width="18" height="21" fill="white" transform="translate(0.5)"/>
</clipPath>
</defs>
</svg>
