<svg width="19" height="19" viewBox="0 0 19 19" fill="none" xmlns="http://www.w3.org/2000/svg">
<g clip-path="url(#clip0_285_675)">
<path d="M0.72998 18.77V16.77H2.72998V2.77002C2.72998 2.22002 2.92598 1.74902 3.31798 1.35702C3.70931 0.965687 4.17998 0.77002 4.72998 0.77002H14.73C15.28 0.77002 15.751 0.965687 16.143 1.35702C16.5343 1.74902 16.73 2.22002 16.73 2.77002V16.77H18.73V18.77H0.72998ZM4.72998 16.77H14.73V2.77002H4.72998V16.77Z" fill="#3C8490"/>
<path d="M7.75 13C7.54375 13 7.36725 12.9348 7.2205 12.8043C7.0735 12.6737 7 12.5167 7 12.3333V9C7 8.81667 7.0735 8.65967 7.2205 8.529C7.36725 8.39856 7.54375 8.33333 7.75 8.33333H8.125V7.66667C8.125 7.20556 8.30788 6.81244 8.67362 6.48733C9.03913 6.16244 9.48125 6 10 6C10.5187 6 10.961 6.16244 11.3268 6.48733C11.6923 6.81244 11.875 7.20556 11.875 7.66667V8.33333H12.25C12.4563 8.33333 12.6329 8.39856 12.7799 8.529C12.9266 8.65967 13 8.81667 13 9V12.3333C13 12.5167 12.9266 12.6737 12.7799 12.8043C12.6329 12.9348 12.4563 13 12.25 13H7.75ZM7.75 12.3333H12.25V9H7.75V12.3333ZM10 11.3333C10.2063 11.3333 10.3829 11.2681 10.5299 11.1377C10.6766 11.007 10.75 10.85 10.75 10.6667C10.75 10.4833 10.6766 10.3263 10.5299 10.1957C10.3829 10.0652 10.2063 10 10 10C9.79375 10 9.61725 10.0652 9.4705 10.1957C9.3235 10.3263 9.25 10.4833 9.25 10.6667C9.25 10.85 9.3235 11.007 9.4705 11.1377C9.61725 11.2681 9.79375 11.3333 10 11.3333ZM8.875 8.33333H11.125V7.66667C11.125 7.38889 11.0156 7.15278 10.7969 6.95833C10.5781 6.76389 10.3125 6.66667 10 6.66667C9.6875 6.66667 9.42187 6.76389 9.20312 6.95833C8.98438 7.15278 8.875 7.38889 8.875 7.66667V8.33333Z" fill="#3C8490"/>
</g>
<defs>
<clipPath id="clip0_285_675">
<rect width="18" height="18" fill="white" transform="translate(0.72998 0.77002)"/>
</clipPath>
</defs>
</svg>
