<svg width="18" height="18" viewBox="0 0 18 18" fill="none" xmlns="http://www.w3.org/2000/svg">
<path d="M1.5 15.75V14.25H3V2.25H15V14.25H16.5V15.75H1.5ZM4.5 5.25H10.5V3.75H4.5V5.25ZM4.5 8.25H10.5V6.75H4.5V8.25ZM4.5 14.25H13.5V9.75H12V11.1187C12.175 11.2437 12.3125 11.4 12.4125 11.5875C12.5125 11.775 12.5625 11.975 12.5625 12.1875C12.5625 12.55 12.4342 12.8595 12.1777 13.116C11.9212 13.3725 11.612 13.5005 11.25 13.5C10.8875 13.5 10.578 13.3717 10.3215 13.1152C10.065 12.8587 9.937 12.5495 9.9375 12.1875C9.9375 11.975 9.9875 11.775 10.0875 11.5875C10.1875 11.4 10.325 11.2437 10.5 11.1187V9.75H4.5V14.25ZM12 5.25H13.5V3.75H12V5.25ZM12 8.25H13.5V6.75H12V8.25Z" fill="#3C8490"/>
</svg>
