<svg width="18" height="21" viewBox="0 0 18 21" fill="none" xmlns="http://www.w3.org/2000/svg">
<g clip-path="url(#clip0_161_785)">
<path d="M3 21C2.45 21 1.97933 20.8043 1.588 20.413C1.196 20.021 1 19.55 1 19V9C1 8.45 1.196 7.979 1.588 7.587C1.97933 7.19567 2.45 7 3 7H4V5C4 3.61667 4.48767 2.43733 5.463 1.462C6.43767 0.487333 7.61667 0 9 0C10.3833 0 11.5627 0.487333 12.538 1.462C13.5127 2.43733 14 3.61667 14 5V7H15C15.55 7 16.021 7.19567 16.413 7.587C16.8043 7.979 17 8.45 17 9V19C17 19.55 16.8043 20.021 16.413 20.413C16.021 20.8043 15.55 21 15 21H3ZM3 19H15V9H3V19ZM9 16C9.55 16 10.021 15.8043 10.413 15.413C10.8043 15.021 11 14.55 11 14C11 13.45 10.8043 12.979 10.413 12.587C10.021 12.1957 9.55 12 9 12C8.45 12 7.97933 12.1957 7.588 12.587C7.196 12.979 7 13.45 7 14C7 14.55 7.196 15.021 7.588 15.413C7.97933 15.8043 8.45 16 9 16ZM6 7H12V5C12 4.16667 11.7083 3.45833 11.125 2.875C10.5417 2.29167 9.83333 2 9 2C8.16667 2 7.45833 2.29167 6.875 2.875C6.29167 3.45833 6 4.16667 6 5V7Z" fill="#3C8490"/>
</g>
<defs>
<clipPath id="clip0_161_785">
<rect width="18" height="21" fill="white"/>
</clipPath>
</defs>
</svg>
