<svg width="18" height="18" viewBox="0 0 18 18" fill="none" xmlns="http://www.w3.org/2000/svg">
<path d="M10.5 10.125C10.7984 10.125 11.0845 10.0065 11.2955 9.7955C11.5065 9.58452 11.625 9.29837 11.625 9C11.625 8.70163 11.5065 8.41548 11.2955 8.2045C11.0845 7.99353 10.7984 7.875 10.5 7.875C10.2016 7.875 9.91548 7.99353 9.70451 8.2045C9.49353 8.41548 9.375 8.70163 9.375 9C9.375 9.29837 9.49353 9.58452 9.70451 9.7955C9.91548 10.0065 10.2016 10.125 10.5 10.125ZM1.5 5.8125C1.5 5.06658 1.79632 4.35121 2.32376 3.82376C2.85121 3.29632 3.56658 3 4.3125 3H13.6875C14.4334 3 15.1488 3.29632 15.6762 3.82376C16.2037 4.35121 16.5 5.06658 16.5 5.8125V12.1875C16.5 12.9334 16.2037 13.6488 15.6762 14.1762C15.1488 14.7037 14.4334 15 13.6875 15H4.3125C3.56658 15 2.85121 14.7037 2.32376 14.1762C1.79632 13.6488 1.5 12.9334 1.5 12.1875V5.8125ZM4.3125 5.25C4.16332 5.25 4.02024 5.30926 3.91475 5.41475C3.80926 5.52024 3.75 5.66332 3.75 5.8125V12.1875C3.75 12.3367 3.80926 12.4798 3.91475 12.5852C4.02024 12.6907 4.16332 12.75 4.3125 12.75C4.46168 12.75 4.60476 12.6907 4.71025 12.5852C4.81574 12.4798 4.875 12.3367 4.875 12.1875V5.8125C4.875 5.66332 4.81574 5.52024 4.71025 5.41475C4.60476 5.30926 4.46168 5.25 4.3125 5.25ZM8.46 6.165C8.4085 6.10974 8.3464 6.06541 8.2774 6.03466C8.2084 6.00392 8.13392 5.98739 8.05839 5.98606C7.98286 5.98472 7.90784 5.99862 7.8378 6.02691C7.76776 6.0552 7.70414 6.09731 7.65072 6.15072C7.59731 6.20414 7.5552 6.26776 7.52691 6.3378C7.49862 6.40784 7.48472 6.48286 7.48606 6.55839C7.48739 6.63392 7.50392 6.7084 7.53466 6.7774C7.56541 6.8464 7.60974 6.9085 7.665 6.96L8.56125 7.857C8.35675 8.20314 8.24924 8.59796 8.25 9C8.25 9.417 8.36325 9.80775 8.56125 10.143L7.665 11.04C7.60974 11.0915 7.56541 11.1536 7.53466 11.2226C7.50392 11.2916 7.48739 11.3661 7.48606 11.4416C7.48472 11.5171 7.49862 11.5922 7.52691 11.6622C7.5552 11.7322 7.59731 11.7959 7.65072 11.8493C7.70414 11.9027 7.76776 11.9448 7.8378 11.9731C7.90784 12.0014 7.98286 12.0153 8.05839 12.0139C8.13392 12.0126 8.2084 11.9961 8.2774 11.9653C8.3464 11.9346 8.4085 11.8903 8.46 11.835L9.357 10.9388C9.69225 11.1368 10.083 11.25 10.5 11.25C10.917 11.25 11.3078 11.1368 11.643 10.9388L12.54 11.835C12.5915 11.8903 12.6536 11.9346 12.7226 11.9653C12.7916 11.9961 12.8661 12.0126 12.9416 12.0139C13.0171 12.0153 13.0922 12.0014 13.1622 11.9731C13.2322 11.9448 13.2959 11.9027 13.3493 11.8493C13.4027 11.7959 13.4448 11.7322 13.4731 11.6622C13.5014 11.5922 13.5153 11.5171 13.5139 11.4416C13.5126 11.3661 13.4961 11.2916 13.4653 11.2226C13.4346 11.1536 13.3903 11.0915 13.335 11.04L12.4388 10.143C12.6368 9.80775 12.75 9.417 12.75 9C12.75 8.583 12.6368 8.19225 12.4388 7.857L13.335 6.96C13.4344 6.85337 13.4885 6.71233 13.4859 6.56661C13.4833 6.42088 13.4243 6.28184 13.3212 6.17878C13.2182 6.07572 13.0791 6.01669 12.9334 6.01412C12.7877 6.01155 12.6466 6.06564 12.54 6.165L11.643 7.06125C11.2968 6.85679 10.902 6.74927 10.5 6.75C10.083 6.75 9.69225 6.86325 9.357 7.06125L8.46 6.165Z" fill="#3C8490"/>
</svg>
