<svg width="18" height="19" viewBox="0 0 18 19" fill="none" xmlns="http://www.w3.org/2000/svg">
<g clip-path="url(#clip0_161_829)">
<path fill-rule="evenodd" clip-rule="evenodd" d="M8.73831 0H8.73866C9.25639 0 9.68039 0.423654 9.68039 0.941729V3.35882H7.79623V0.941729C7.79623 0.423654 8.22024 0 8.73831 0ZM0.111395 1.2211H7.37151V3.40055H6.40574C6.3336 3.40055 6.27242 3.46173 6.27242 3.53387V15.0549C6.27242 15.1267 6.33218 15.1883 6.40574 15.1883H7.37151V16.8836H0.111395C0.0516307 16.8836 0 16.8334 0 16.7722V1.3325C0 1.27096 0.0502161 1.2211 0.111395 1.2211ZM3.38817 2.98715C3.88503 2.98715 4.28817 3.38994 4.28817 3.88715C4.28817 4.08695 4.2231 4.2712 4.11312 4.42043L2.85489 3.1622C3.0093 3.0482 3.19625 2.98684 3.38817 2.98715ZM3.92145 4.6121C3.76702 4.72605 3.58009 4.78741 3.38817 4.78715C2.89096 4.78715 2.48817 4.38436 2.48817 3.88715C2.48817 3.6877 2.55324 3.5031 2.66322 3.35387L3.92145 4.6121ZM3.38817 8.15234C3.88503 8.15234 4.28817 8.55513 4.28817 9.05234C4.28817 9.25214 4.2231 9.43639 4.11312 9.58562L2.85489 8.32739C3.0093 8.21339 3.19625 8.15203 3.38817 8.15234ZM3.92145 9.77729C3.76702 9.89123 3.58009 9.95259 3.38817 9.95234C2.89096 9.95234 2.48817 9.54919 2.48817 9.05234C2.48817 8.85289 2.55324 8.66829 2.66322 8.51906L3.92145 9.77729ZM3.38817 13.3175C3.88503 13.3175 4.28817 13.7203 4.28817 14.2175C4.28817 14.4173 4.2231 14.6016 4.11312 14.7508L2.85489 13.4926C3.0093 13.3786 3.19625 13.3172 3.38817 13.3175ZM3.92145 14.9425C3.76702 15.0564 3.58009 15.1178 3.38817 15.1175C2.89096 15.1175 2.48817 14.7147 2.48817 14.2175C2.48817 14.0181 2.55324 13.8335 2.66322 13.6842L3.92145 14.9425ZM17.8886 1.2211H10.9259V3.40055H10.0984V15.1883H10.9259V16.8836H17.8886C17.9491 16.8836 18 16.8334 18 16.7722V1.3325C18 1.27096 17.9477 1.2211 17.8886 1.2211ZM14.0492 2.98715C14.5464 2.98715 14.9492 3.38994 14.9492 3.88715C14.9492 4.08695 14.8841 4.2712 14.7741 4.42043L13.5159 3.1622C13.6703 3.0482 13.8573 2.98684 14.0492 2.98715ZM14.5825 4.6121C14.428 4.72605 14.2411 4.78741 14.0492 4.78715C13.552 4.78715 13.1492 4.38436 13.1492 3.88715C13.1492 3.6877 13.2143 3.5031 13.3242 3.35387L14.5825 4.6121ZM14.0492 8.15234C14.5464 8.15234 14.9492 8.55513 14.9492 9.05234C14.9492 9.25214 14.8841 9.43639 14.7741 9.58562L13.5159 8.32739C13.6703 8.21339 13.8573 8.15203 14.0492 8.15234ZM14.5825 9.77729C14.428 9.89123 14.2411 9.95259 14.0492 9.95234C13.552 9.95234 13.1492 9.54919 13.1492 9.05234C13.1492 8.85289 13.2143 8.66829 13.3242 8.51906L14.5825 9.77729ZM14.0492 13.3175C14.5464 13.3175 14.9492 13.7203 14.9492 14.2175C14.9492 14.4173 14.8841 14.6016 14.7741 14.7508L13.5159 13.4926C13.6703 13.3786 13.8573 13.3172 14.0492 13.3175ZM14.5825 14.9425C14.428 15.0564 14.2411 15.1178 14.0492 15.1175C13.552 15.1175 13.1492 14.7147 13.1492 14.2175C13.1492 14.0181 13.2143 13.8335 13.3242 13.6842L14.5825 14.9425ZM9.68039 3.8822V8.79065H7.79623V3.8822H9.68039ZM9.68039 9.31403V14.481H7.79623V9.31403H9.68039ZM9.68039 15.0044V17.1626C9.68039 17.6807 9.25639 18.1047 8.73866 18.1047H8.73831C8.22024 18.1047 7.79623 17.6807 7.79623 17.1626V15.0044H9.68039Z" fill="#3C8490"/>
</g>
<defs>
<clipPath id="clip0_161_829">
<rect width="18" height="18.1047" fill="white"/>
</clipPath>
</defs>
</svg>
