<svg width="18" height="28" viewBox="0 0 18 28" fill="none" xmlns="http://www.w3.org/2000/svg">
<g clip-path="url(#clip0_80_6955)">
<path d="M6.0002 17.41L14.8502 8.55996C15.1252 8.28496 15.4753 8.14746 15.9002 8.14746C16.3252 8.14746 16.6753 8.28496 16.9502 8.55996C17.2252 8.83496 17.3627 9.18495 17.3627 9.60996C17.3627 10.035 17.2252 10.385 16.9502 10.66L7.0502 20.56C6.7502 20.86 6.40019 21.01 6.0002 21.01C5.60019 21.01 5.2502 20.86 4.9502 20.56L1.05019 16.66C0.775194 16.385 0.637695 16.035 0.637695 15.61C0.637695 15.185 0.775194 14.835 1.05019 14.56C1.32519 14.285 1.67519 14.1475 2.1002 14.1475C2.52519 14.1475 2.87519 14.285 3.1502 14.56L6.0002 17.41Z" fill="#1C1B1F"/>
</g>
<defs>
<clipPath id="clip0_80_6955">
<rect width="18" height="27" fill="white" transform="translate(0 0.759766)"/>
</clipPath>
</defs>
</svg>
