<svg width="45" height="44" viewBox="0 0 45 44" fill="none" xmlns="http://www.w3.org/2000/svg">
<path d="M22.0113 0.333496C12.964 0.333496 10.318 0.342829 9.80364 0.385496C7.94698 0.539829 6.79164 0.832163 5.53298 1.45883C4.56298 1.9405 3.79798 2.49883 3.04298 3.2815C1.66798 4.70883 0.834644 6.46483 0.532978 8.55216C0.386311 9.5655 0.343644 9.77216 0.334978 14.9482C0.331644 16.6735 0.334978 18.9442 0.334978 21.9898C0.334978 31.0298 0.344978 33.6732 0.388311 34.1865C0.538311 35.9932 0.821644 37.1298 1.42164 38.3732C2.56831 40.7532 4.75831 42.5398 7.33831 43.2065C8.23164 43.4365 9.21831 43.5632 10.485 43.6232C11.0216 43.6465 16.4916 43.6632 21.965 43.6632C27.4383 43.6632 32.9116 43.6565 33.435 43.6298C34.9016 43.5608 35.7533 43.4465 36.695 43.2032C39.2916 42.5332 41.4416 40.7732 42.6116 38.3598C43.2 37.1465 43.4983 35.9665 43.6333 34.2542C43.6626 33.8808 43.675 27.9285 43.675 21.9842C43.675 16.0388 43.6616 10.0975 43.6323 9.72416C43.4956 7.98416 43.1973 6.81416 42.59 5.5775C42.0916 4.56516 41.5383 3.80916 40.735 3.03616C39.3013 1.66683 37.548 0.833496 35.4586 0.532163C34.4463 0.385829 34.2446 0.342496 29.0646 0.333496H22.0113Z" fill="url(#paint0_radial_80_6757)"/>
<path d="M22.0113 0.333496C12.964 0.333496 10.318 0.342829 9.80364 0.385496C7.94698 0.539829 6.79164 0.832163 5.53298 1.45883C4.56298 1.9405 3.79798 2.49883 3.04298 3.2815C1.66798 4.70883 0.834644 6.46483 0.532978 8.55216C0.386311 9.5655 0.343644 9.77216 0.334978 14.9482C0.331644 16.6735 0.334978 18.9442 0.334978 21.9898C0.334978 31.0298 0.344978 33.6732 0.388311 34.1865C0.538311 35.9932 0.821644 37.1298 1.42164 38.3732C2.56831 40.7532 4.75831 42.5398 7.33831 43.2065C8.23164 43.4365 9.21831 43.5632 10.485 43.6232C11.0216 43.6465 16.4916 43.6632 21.965 43.6632C27.4383 43.6632 32.9116 43.6565 33.435 43.6298C34.9016 43.5608 35.7533 43.4465 36.695 43.2032C39.2916 42.5332 41.4416 40.7732 42.6116 38.3598C43.2 37.1465 43.4983 35.9665 43.6333 34.2542C43.6626 33.8808 43.675 27.9285 43.675 21.9842C43.675 16.0388 43.6616 10.0975 43.6323 9.72416C43.4956 7.98416 43.1973 6.81416 42.59 5.5775C42.0916 4.56516 41.5383 3.80916 40.735 3.03616C39.3013 1.66683 37.548 0.833496 35.4586 0.532163C34.4463 0.385829 34.2446 0.342496 29.0646 0.333496H22.0113Z" fill="url(#paint1_radial_80_6757)"/>
<path d="M22.0013 6C17.656 6 17.1107 6.019 15.404 6.09667C13.7007 6.17467 12.538 6.44433 11.5207 6.84C10.4683 7.24867 9.57567 7.79533 8.68633 8.685C7.79633 9.57433 7.24967 10.467 6.83967 11.519C6.443 12.5367 6.173 13.6997 6.09633 15.4023C6.02 17.109 6 17.6547 6 22C6 26.3453 6.01933 26.889 6.09667 28.5957C6.175 30.299 6.44467 31.4617 6.84 32.479C7.249 33.5313 7.79567 34.424 8.68533 35.3133C9.57433 36.2033 10.467 36.7513 11.5187 37.16C12.5367 37.5557 13.6997 37.8253 15.4027 37.9033C17.1093 37.981 17.6543 38 21.9993 38C26.345 38 26.8887 37.981 28.5953 37.9033C30.2987 37.8253 31.4627 37.5557 32.4807 37.16C33.5327 36.7513 34.424 36.2033 35.313 35.3133C36.203 34.424 36.7497 33.5313 37.1597 32.4793C37.553 31.4617 37.823 30.2987 37.903 28.596C37.9797 26.8893 37.9997 26.3453 37.9997 22C37.9997 17.6547 37.9797 17.1093 37.903 15.4027C37.823 13.6993 37.553 12.5367 37.1597 11.5193C36.7497 10.467 36.203 9.57433 35.313 8.685C34.423 7.795 33.533 7.24833 32.4797 6.84C31.4597 6.44433 30.2963 6.17467 28.593 6.09667C26.8863 6.019 26.343 6 21.9963 6H22.0013ZM20.566 8.88333C20.992 8.88267 21.4673 8.88333 22.0013 8.88333C26.2733 8.88333 26.7797 8.89867 28.4667 8.97533C30.0267 9.04667 30.8733 9.30733 31.4373 9.52633C32.184 9.81633 32.7163 10.163 33.276 10.723C33.836 11.283 34.1827 11.8163 34.4733 12.563C34.6923 13.1263 34.9533 13.973 35.0243 15.533C35.101 17.2197 35.1177 17.7263 35.1177 21.9963C35.1177 26.2663 35.101 26.773 35.0243 28.4597C34.953 30.0197 34.6923 30.8663 34.4733 31.4297C34.1833 32.1763 33.836 32.708 33.276 33.2677C32.716 33.8277 32.1843 34.1743 31.4373 34.4643C30.874 34.6843 30.0267 34.9443 28.4667 35.0157C26.78 35.0923 26.2733 35.109 22.0013 35.109C17.729 35.109 17.2227 35.0923 15.536 35.0157C13.976 34.9437 13.1293 34.683 12.565 34.464C11.8183 34.174 11.285 33.8273 10.725 33.2673C10.165 32.7073 9.81833 32.1753 9.52767 31.4283C9.30867 30.865 9.04767 30.0183 8.97667 28.4583C8.9 26.7717 8.88467 26.265 8.88467 21.9923C8.88467 17.7197 8.9 17.2157 8.97667 15.529C9.048 13.969 9.30867 13.1223 9.52767 12.5583C9.81767 11.8117 10.165 11.2783 10.725 10.7183C11.285 10.1583 11.8183 9.81167 12.565 9.521C13.129 9.301 13.976 9.041 15.536 8.96933C17.012 8.90267 17.584 8.88267 20.566 8.87933V8.88333ZM30.542 11.54C29.482 11.54 28.622 12.399 28.622 13.4593C28.622 14.5193 29.482 15.3793 30.542 15.3793C31.602 15.3793 32.462 14.5193 32.462 13.4593C32.462 12.3993 31.602 11.5393 30.542 11.5393V11.54ZM22.0013 13.7833C17.4637 13.7833 13.7847 17.4623 13.7847 22C13.7847 26.5377 17.4637 30.215 22.0013 30.215C26.539 30.215 30.2167 26.5377 30.2167 22C30.2167 17.4623 26.539 13.7833 22.0013 13.7833ZM22.0013 16.6667C24.9467 16.6667 27.3347 19.0543 27.3347 22C27.3347 24.9453 24.9467 27.3333 22.0013 27.3333C19.0557 27.3333 16.668 24.9453 16.668 22C16.668 19.0543 19.0557 16.6667 22.0013 16.6667Z" fill="white"/>
<defs>
<radialGradient id="paint0_radial_80_6757" cx="0" cy="0" r="1" gradientUnits="userSpaceOnUse" gradientTransform="translate(11.8461 47.0005) rotate(-90) scale(42.9429 39.9512)">
<stop stop-color="#FFDD55"/>
<stop offset="0.1" stop-color="#FFDD55"/>
<stop offset="0.5" stop-color="#FF543E"/>
<stop offset="1" stop-color="#C837AB"/>
</radialGradient>
<radialGradient id="paint1_radial_80_6757" cx="0" cy="0" r="1" gradientUnits="userSpaceOnUse" gradientTransform="translate(-6.92643 3.45489) rotate(78.6776) scale(19.1959 79.1461)">
<stop stop-color="#3771C8"/>
<stop offset="0.128" stop-color="#3771C8"/>
<stop offset="1" stop-color="#6600FF" stop-opacity="0"/>
</radialGradient>
</defs>
</svg>
