<svg width="19" height="19" viewBox="0 0 19 19" fill="none" xmlns="http://www.w3.org/2000/svg">
<g clip-path="url(#clip0_80_6942)">
<path d="M17.7298 18.1699C15.5798 18.1699 13.4841 17.6906 11.4428 16.7319C9.40079 15.7739 7.59245 14.5072 6.01779 12.9319C4.44246 11.3572 3.17579 9.54892 2.21779 7.50692C1.25912 5.46559 0.779785 3.36992 0.779785 1.21992C0.779785 0.919922 0.879785 0.669922 1.07979 0.469922C1.27979 0.269922 1.52979 0.169922 1.82979 0.169922H5.87979C6.11311 0.169922 6.32146 0.244922 6.50479 0.394922C6.68812 0.544922 6.79646 0.736589 6.82979 0.969922L7.47978 4.46992C7.51311 4.70325 7.50912 4.91559 7.46779 5.10692C7.42579 5.29892 7.32979 5.46992 7.17979 5.61992L4.75479 8.06992C5.45478 9.26992 6.33412 10.3949 7.39279 11.4449C8.45079 12.4949 9.61312 13.4032 10.8798 14.1699L13.2298 11.8199C13.3798 11.6699 13.5758 11.5572 13.8178 11.4819C14.0591 11.4072 14.2965 11.3866 14.5298 11.4199L17.9798 12.1199C18.2131 12.1699 18.4048 12.2822 18.5548 12.4569C18.7048 12.6322 18.7798 12.8366 18.7798 13.0699V17.1199C18.7798 17.4199 18.6798 17.6699 18.4798 17.8699C18.2798 18.0699 18.0298 18.1699 17.7298 18.1699ZM3.80479 6.16992L5.45479 4.51992L5.02979 2.16992H2.80479C2.88812 2.85325 3.00479 3.52825 3.15479 4.19492C3.30479 4.86159 3.52146 5.51992 3.80479 6.16992ZM16.7798 16.1199V13.9199L14.4298 13.4449L12.7548 15.1199C13.4048 15.4032 14.0675 15.6282 14.7428 15.7949C15.4175 15.9616 16.0965 16.0699 16.7798 16.1199Z" fill="white"/>
</g>
<defs>
<clipPath id="clip0_80_6942">
<rect width="18" height="18" fill="white" transform="translate(0.779785 0.169922)"/>
</clipPath>
</defs>
</svg>
