<svg width="44" height="44" viewBox="0 0 44 44" fill="none" xmlns="http://www.w3.org/2000/svg">
<g clip-path="url(#clip0_80_6763)">
<path d="M0.000976562 0H44.001V44H0.000976562V0Z" fill="black"/>
<path d="M10.7808 27.4064L10.8688 27.6594C10.8578 27.6319 10.8248 27.5439 10.7808 27.4064ZM14.3503 21.6369C14.5098 20.2674 15.0488 19.5029 16.0608 18.7164C17.5128 17.6549 19.3223 18.2544 19.3223 18.2544V14.6849C19.7623 14.6739 20.2023 14.7014 20.6368 14.7674V19.3599C20.6368 19.3599 18.8273 18.7604 17.3753 19.8219C16.3633 20.6084 15.8243 21.3729 15.6648 22.7424C15.6593 23.4849 15.7913 24.4584 16.4073 25.2944C16.2533 25.2119 16.0993 25.1184 15.9398 25.0139C14.5923 24.0679 14.3448 22.6434 14.3503 21.6369ZM28.1223 8.08491C27.1268 6.94641 26.7473 5.79141 26.6098 4.98291H27.8638C27.8638 4.98291 27.6163 7.10591 29.4368 9.19041L29.4643 9.21791C28.9693 8.89891 28.5183 8.51391 28.1223 8.08491ZM34.1668 11.3189V15.8179C34.1668 15.8179 32.5663 15.7519 31.3783 15.4384C29.7228 14.9984 28.6613 14.3219 28.6613 14.3219C28.6613 14.3219 27.9243 13.8379 27.8693 13.8049V23.0999C27.8693 23.6169 27.7318 24.9094 27.3193 25.9874C26.7803 27.3954 25.9443 28.3249 25.7903 28.5119C25.7903 28.5119 24.7728 29.7659 22.9853 30.6074C21.3738 31.3664 19.9548 31.3499 19.5313 31.3664C19.5313 31.3664 17.0838 31.4654 14.8783 29.9749C14.3998 29.6449 13.9543 29.2709 13.5473 28.8584L13.5583 28.8694C15.7638 30.3654 18.2113 30.2609 18.2113 30.2609C18.6348 30.2444 20.0538 30.2609 21.6653 29.5019C23.4528 28.6604 24.4703 27.4064 24.4703 27.4064C24.6243 27.2194 25.4603 26.2899 25.9993 24.8819C26.4118 23.8039 26.5493 22.5114 26.5493 21.9944V12.7049C26.6098 12.7379 27.3413 13.2219 27.3413 13.2219C27.3413 13.2219 28.4028 13.8984 30.0583 14.3384C31.2463 14.6519 32.8468 14.7179 32.8468 14.7179V11.1924C33.3968 11.3189 33.8643 11.3519 34.1668 11.3189Z" fill="#EE1D52"/>
<path d="M32.8469 11.1869V14.7124C32.8469 14.7124 31.2464 14.6464 30.0584 14.3329C28.4029 13.8929 27.3414 13.2164 27.3414 13.2164C27.3414 13.2164 26.6044 12.7324 26.5494 12.6994V21.9944C26.5494 22.5114 26.4119 23.8039 25.9994 24.8819C25.4604 26.2899 24.6244 27.2194 24.4704 27.4064C24.4704 27.4064 23.4529 28.6604 21.6654 29.5019C20.0539 30.2609 18.6349 30.2444 18.2114 30.2609C18.2114 30.2609 15.7639 30.3599 13.5584 28.8694L13.5474 28.8584C13.3164 28.6219 13.0964 28.3744 12.8929 28.1159C12.1889 27.2194 11.7599 26.1634 11.6499 25.8609V25.8554C11.4739 25.3329 11.1109 24.0679 11.1604 22.8524C11.2484 20.7019 11.9744 19.3764 12.1669 19.0464C12.6729 18.1444 13.3384 17.3359 14.1194 16.6594C14.8124 16.0764 15.5989 15.6089 16.4404 15.2844C17.3534 14.8994 18.3324 14.6959 19.3224 14.6794V18.2489C19.3224 18.2489 17.5129 17.6494 16.0609 18.7109C15.0489 19.4974 14.5099 20.2619 14.3504 21.6314C14.3449 22.6379 14.5924 24.0624 15.9454 25.0139C16.1049 25.1184 16.2589 25.2119 16.4129 25.2944C16.6494 25.6134 16.9354 25.8939 17.2654 26.1249C18.5909 26.9994 19.6964 27.0599 21.1154 26.4934C22.0614 26.1139 22.7709 25.2614 23.1009 24.3099C23.3099 23.7159 23.3044 23.1219 23.3044 22.5059V4.98291H26.6044C26.7419 5.79141 27.1159 6.94641 28.1169 8.08491C28.5184 8.51391 28.9694 8.89891 29.4589 9.21791C29.6019 9.37741 30.3444 10.1474 31.3014 10.6259C31.7909 10.8734 32.3134 11.0604 32.8469 11.1869Z" fill="white"/>
<path d="M10.3354 24.772L10.4179 25.0085C10.4069 24.981 10.3739 24.8985 10.3354 24.772Z" fill="#69C9D0"/>
<path d="M16.4404 15.2898C15.5934 15.6143 14.8124 16.0818 14.1194 16.6648C13.3329 17.3413 12.6729 18.1553 12.1669 19.0573C11.9744 19.3873 11.2484 20.7073 11.1604 22.8633C11.1109 24.0843 11.4794 25.3438 11.6499 25.8663V25.8718C11.7599 26.1688 12.1889 27.2303 12.8929 28.1268C13.0964 28.3853 13.3164 28.6328 13.5474 28.8693C12.7994 28.3523 12.1394 27.7308 11.5729 27.0213C10.8744 26.1358 10.4454 25.0853 10.3354 24.7773V24.7663C10.1594 24.2438 9.79087 22.9788 9.84587 21.7578C9.93387 19.6073 10.6599 18.2818 10.8524 17.9518C11.3584 17.0498 12.0184 16.2358 12.8049 15.5593C13.4979 14.9763 14.2844 14.5088 15.1259 14.1843C15.6539 13.9643 16.2039 13.8048 16.7649 13.7003C17.6119 13.5518 18.4754 13.5408 19.3279 13.6618V14.6848C18.3324 14.7013 17.3534 14.9048 16.4404 15.2898Z" fill="#69C9D0"/>
<path d="M26.61 4.98294H23.31V22.5059C23.31 23.1219 23.31 23.7159 23.1065 24.3099C22.771 25.2559 22.0615 26.1139 21.121 26.4934C19.702 27.0654 18.591 26.9994 17.271 26.1249C16.941 25.8994 16.655 25.6189 16.4185 25.2999C17.546 25.8994 18.5525 25.8884 19.801 25.3879C20.747 25.0084 21.4565 24.1504 21.7865 23.2044C21.9955 22.6104 21.99 22.0164 21.99 21.4004V3.87744H26.5495C26.544 3.87744 26.4945 4.31194 26.61 4.98294ZM32.847 10.2134V11.1869C32.3135 11.0604 31.791 10.8734 31.3015 10.6259C30.35 10.1529 29.6075 9.37744 29.459 9.21794C29.6295 9.32794 29.8 9.42694 29.9815 9.52044C31.1475 10.0979 32.286 10.2739 32.847 10.2134Z" fill="#69C9D0"/>
<path d="M26.7198 38.2139C26.7198 38.3404 26.7363 38.4615 26.7748 38.5825C26.7748 38.5935 26.7803 38.599 26.7803 38.61C26.9618 39.193 27.5008 39.5889 28.1113 39.5889V40.997C27.4238 40.997 26.9343 41.0189 26.1863 40.5789C25.3393 40.0729 24.8608 39.1545 24.8608 38.1975C24.8608 37.213 25.3943 36.223 26.3073 35.7445C26.9673 35.398 27.4678 35.3979 28.1168 35.3979V36.806C27.3468 36.806 26.7253 37.4275 26.7253 38.1975L26.7198 38.2139Z" fill="#69C9D0"/>
<path d="M29.5142 38.2139C29.5142 38.3404 29.4977 38.4615 29.4592 38.5825C29.4592 38.5935 29.4537 38.599 29.4537 38.61C29.2722 39.193 28.7332 39.5889 28.1227 39.5889V40.997C28.8047 40.997 29.2997 41.0189 30.0422 40.5789C30.8947 40.0729 31.3732 39.1545 31.3732 38.1975C31.3732 37.213 30.8397 36.223 29.9267 35.7445C29.2667 35.398 28.7662 35.3979 28.1172 35.3979V36.806C28.8872 36.806 29.5087 37.4275 29.5087 38.1975V38.2139H29.5142Z" fill="#EE1D52"/>
<path d="M6.57324 34.1221H11.7267L11.2482 35.5411H9.90074V40.9696H8.24524V35.5411H6.57324V34.1221ZM20.2352 34.1221V35.5411H21.9072V40.9696H23.5682V35.5411H24.9157L25.3942 34.1221H20.2352ZM12.8487 35.7336C13.2942 35.7336 13.6517 35.3761 13.6517 34.9306C13.6517 34.4851 13.2942 34.1276 12.8487 34.1276C12.4032 34.1276 12.0457 34.4851 12.0457 34.9306C12.0457 35.3761 12.4032 35.7336 12.8487 35.7336ZM12.0457 40.9641H13.6737V36.3001H12.0457V40.9641ZM19.5257 35.6951H17.6227L15.9837 37.3341V34.1221H14.3667L14.3612 40.9586H15.9947V39.1766L16.5007 38.7146L18.0847 40.9586H19.8282L17.5347 37.6806L19.5257 35.6951ZM35.1347 37.6861L37.1257 35.6951H35.2227L33.5837 37.3341V34.1221H31.9667L31.9557 40.9641H33.5892V39.1821L34.1007 38.7201L35.6847 40.9641H37.4282L35.1347 37.6861ZM30.9492 38.1921C30.9492 39.7376 29.6787 40.9916 28.1112 40.9916C26.5437 40.9916 25.2732 39.7376 25.2732 38.1921C25.2732 36.6466 26.5437 35.3926 28.1112 35.3926C29.6787 35.3926 30.9492 36.6466 30.9492 38.1921ZM29.5027 38.1921C29.5027 37.4221 28.8812 36.8006 28.1112 36.8006C27.3412 36.8006 26.7197 37.4221 26.7197 38.1921C26.7197 38.9621 27.3412 39.5836 28.1112 39.5836C28.8812 39.5836 29.5027 38.9621 29.5027 38.1921Z" fill="white"/>
</g>
<defs>
<clipPath id="clip0_80_6763">
<rect x="0.000976562" width="44" height="44" rx="10" fill="white"/>
</clipPath>
</defs>
</svg>
